<svg width="1440" height="488" viewBox="0 0 1440 488" fill="none" xmlns="http://www.w3.org/2000/svg">
<g opacity="0.15">
<path d="M1413.65 249.899V262.666H1440V235.193H1413.65V248.013H1377.65V249.953L1413.65 249.899ZM1416.44 238.155H1437.21V259.811H1416.44V238.155Z" fill="url(#paint0_linear_2729_65)"/>
<path d="M1431.17 244.404H1422.49V253.454H1431.17V244.404Z" fill="url(#paint1_linear_2729_65)"/>
<path d="M950.873 417.647H1096.4L1096.66 417.378L1139.28 372.289H1164.13V359.522H1217.91L1282.59 291.109H1301.96V297.034H1315.14V291.109H1356.31V303.875H1382.66V276.402H1356.31V289.169H1315.14V283.244H1301.96V289.169H1281.81L1217.13 357.583H1164.13V344.816H1137.78V357.583H1009.46V359.522H1126.68L1073.52 415.762H950.822V402.995H924.475V430.468H950.822V417.647H950.873ZM1095.63 415.708H1076.15L1129.31 359.468H1137.83V371.05L1095.63 415.708ZM948.084 427.505H927.316V405.85H948.084V427.505Z" fill="url(#paint2_linear_2729_65)"/>
<path d="M942.04 412.153H933.361V421.203H942.04V412.153Z" fill="url(#paint3_linear_2729_65)"/>
<path d="M1112.93 331.133V318.366H1198.69L1257.69 255.878H1269.36V249.899H1361.68V248.013H1269.36V242.196H1256.19V248.013L1172.96 248.067L1108.28 179.654H986.932V166.887H960.585V194.36H986.932V181.593H1079.3L1143.98 250.007H1256.19V254.747L1197.92 316.427H1112.93V303.66H1086.59V331.133H1112.93ZM1170.38 248.067H1144.76L1081.94 181.539H1107.56L1170.38 248.067Z" fill="url(#paint4_linear_2729_65)"/>
<path d="M1005.12 354.89H998.143V362.162H1005.12V354.89Z" fill="url(#paint5_linear_2729_65)"/>
<path d="M891.566 312.333V318.259H837.683C837.632 318.905 837.632 319.551 837.58 320.198H891.617V326.123H904.791V312.387H891.566V312.333Z" fill="url(#paint6_linear_2729_65)"/>
<path d="M1040.25 253.939L1079.35 253.831L1107.97 284.159H1108.34L1191.36 284.213V287.769H1200.03V278.719H1191.36V282.274L1122.23 282.22L1093.61 251.892L1041.02 252L1025.06 235.354V209.228H998.711V236.701H1023.72L1040.25 253.939ZM1022.27 233.846H1001.5V212.19H1022.27V233.846ZM1081.94 253.831H1092.84L1119.65 282.22H1108.75L1081.94 253.831Z" fill="url(#paint7_linear_2729_65)"/>
<path d="M1356.26 221.51H1382.6V194.037H1356.26V206.804H1304.75L1240.07 138.39H1172.65V125.623H1147.8L1104.93 80.265H1042V67.498H1015.66V94.9713H1042V82.2043H1104.15L1146.31 126.808V138.39H1102.81V140.329H1146.31V153.096H1171.16L1219.77 204.541V212.298H1228.45V203.302H1221.11L1172.6 151.965V140.383H1216L1280.68 208.797H1356.26V221.51ZM1039.21 92.0623H1018.45V70.407H1039.21V92.0623ZM1302.17 206.857H1281.45L1218.63 140.329H1239.35L1302.17 206.857ZM1359.05 196.999H1379.81V218.655H1359.05V196.999Z" fill="url(#paint8_linear_2729_65)"/>
<path d="M1373.77 244.404H1365.09V253.454H1373.77V244.404Z" fill="url(#paint9_linear_2729_65)"/>
<path d="M1063.13 312.764H1054.45V321.814H1063.13V312.764Z" fill="url(#paint10_linear_2729_65)"/>
<path d="M1009.51 488V460.527H983.161V473.294H889.913L837.167 417.485L885.057 417.593V430.36H911.404V402.887H885.057V415.654L815.676 415.492C815.676 415.708 815.676 416.462 815.676 417.539L870.127 475.179H983.161V487.946H1009.51V488ZM870.954 473.294L818.208 417.431L834.636 417.485L887.382 473.294H870.954Z" fill="url(#paint11_linear_2729_65)"/>
<path d="M1047.17 303.66L1030.69 286.476L990.859 286.53L923.028 357.637H911.301V346.055L974.741 279.527V236.755H986.985V209.281H960.637V222.048H870.437L908.718 181.539H941.988V184.178H948.962V176.906H941.988V179.546H907.943L867.854 221.995H840.009C839.854 222.641 839.751 223.287 839.596 223.934H960.637V236.701H972.881V278.719L909.855 344.816H884.954V372.289H911.301V359.522H993.752V357.583H947.671L1013.69 288.415H1029.91L1045.88 305.061V316.427H1019.89V313.787H1012.92V321.06H1019.89V318.42H1045.88V331.241H1072.23V303.768H1047.17V303.66ZM945.087 357.583H925.611L991.582 288.415H1011.06L945.087 357.583ZM1069.38 328.224H1048.62V306.569H1069.38V328.224Z" fill="url(#paint12_linear_2729_65)"/>
<path d="M884.953 266.113V278.88H836.547C836.392 279.527 836.237 280.173 836.082 280.82H885.005V293.587H911.352V266.113H884.953ZM908.511 290.624H887.743V268.968H908.511V290.624Z" fill="url(#paint13_linear_2729_65)"/>
<path d="M1033.17 76.7095H1024.49V85.7595H1033.17V76.7095Z" fill="url(#paint14_linear_2729_65)"/>
<path d="M1098.47 135.75H1091.49V143.022H1098.47V135.75Z" fill="url(#paint15_linear_2729_65)"/>
<path d="M1015.76 153.096V125.677H1042.11V138.443L1087.1 138.39V140.329H1042.11V153.096H1015.76Z" fill="url(#paint16_linear_2729_65)"/>
<path d="M1015.66 0V26.0726L999.693 42.7182L908.77 42.6105L880.149 72.9387H847.603V74.878H898.076L926.696 44.5497L1000.47 44.6575L1016.95 27.4732H1041.95V0H1015.66ZM897.353 72.8849H882.784L909.596 44.4959H924.165L897.353 72.8849ZM1039.21 24.5104H1018.45V2.85506H1039.21V24.5104Z" fill="url(#paint17_linear_2729_65)"/>
<path d="M975.153 90.9849V96.9105H886.658L821.979 165.324V167.264H863.204L927.884 98.8498H975.153V104.775H988.327V91.0388H975.153V90.9849ZM862.481 165.324H824.613L887.433 98.7959H925.301L862.481 165.324Z" fill="url(#paint18_linear_2729_65)"/>
<path d="M350.726 244.027V230.344H337.553V236.216H291.419V238.155H337.553V244.027H350.726Z" fill="url(#paint19_linear_2729_65)"/>
<path d="M507.415 119.105H498.736V128.155H507.415V119.105Z" fill="url(#paint20_linear_2729_65)"/>
<path d="M294.571 120.128H269.567V147.601H295.914V121.475L311.877 104.829L399.133 104.937L427.753 74.6087L505.399 74.5548V78.1102H514.078V69.0602H505.399V72.6156L413.856 72.6694H413.494L384.874 102.998L311.102 102.89L294.571 120.128ZM293.124 144.692H272.357V123.037H293.124V144.692ZM414.218 74.6626H425.118L398.306 103.052H387.406L414.218 74.6626Z" fill="url(#paint21_linear_2729_65)"/>
<path d="M536.086 359.037V331.564H509.739V344.331H425.325L401.871 319.498V313.626H396.292L360.646 275.864H312.652V269.938H299.479V283.675H312.652V277.749H359.871L394.897 314.811V316.212H292.918L267.501 289.331V263.097H241.154V275.81H169.345L204.733 238.047L274.372 237.994V236.054L187.168 236.108H186.806L149.662 275.81H93.7648L26.3471 204.379V178.253H0V205.726H25.0039L93.3515 277.857H112.259L150.127 318.259H247.715V324.184H260.888V310.448H247.715V316.373H168.105L131.994 277.911H241.205V290.731H266.106L292.143 318.312H394.949V320.952H400.631L424.602 346.324H446.455L496.617 399.008H519.813V397.069H512.736L464.381 346.271H509.791V359.037H536.086ZM23.5574 202.817H2.78969V181.162H23.5574V202.817ZM165.522 316.319H150.953L114.842 277.857H129.411L165.522 316.319ZM152.193 275.917L187.581 238.155H202.201L166.813 275.917H152.193ZM264.711 287.769H243.943V266.113H264.711V287.769ZM510.101 397.069H497.392L449.038 346.271H461.746L510.101 397.069Z" fill="url(#paint22_linear_2729_65)"/>
<path d="M287.856 232.661H279.177V241.711H287.856V232.661Z" fill="url(#paint23_linear_2729_65)"/>
<path d="M287.856 272.362H279.177V281.412H287.856V272.362Z" fill="url(#paint24_linear_2729_65)"/>
<path d="M534.072 393.514H525.393V402.564H534.072V393.514Z" fill="url(#paint25_linear_2729_65)"/>
<path d="M558.249 319.336V291.863H531.902V304.63H511.703L447.023 236.216H375.782V230.29H362.609V244.027H374.388L429.613 302.475V310.124H438.292V301.074H430.853L375.782 242.788V238.155H429.097L493.776 306.569H531.902V319.336H558.249ZM494.551 304.63L431.731 238.101H446.3L509.171 304.63H494.551ZM534.692 294.772H555.459V316.427H534.692V294.772Z" fill="url(#paint26_linear_2729_65)"/>
<path d="M572.611 215.854V209.982H535.932L506.072 178.361H498.736V169.311H507.415V177.014L536.707 208.043H572.611V202.171H585.733V215.854H572.611Z" fill="url(#paint27_linear_2729_65)"/>
<path d="M258.667 272.416H249.988V281.466H258.667V272.416Z" fill="url(#paint28_linear_2729_65)"/>
<path d="M17.5135 187.141H8.83447V196.191H17.5135V187.141Z" fill="url(#paint29_linear_2729_65)"/>
<path d="M593.636 168.718H547.142L516.248 136.019V124.599H572.3V130.525H585.474V116.842L572.3 116.788V122.714H516.248V109.947H489.901V122.714H370.461L311.412 185.202H299.53V198.939H312.704V193.013H446.299L474.661 223.018V230.236H481.48L510.927 261.427H572.455V259.487H511.65L483.288 229.482V221.186H475.436L446.971 191.074H363.177L393.657 158.806H462.211V164.732H475.384V150.995H462.211V156.921H376.918L344.63 191.128H312.601V186.602L371.184 124.599H489.849V137.366H514.853L546.263 170.657H593.533V174.213H602.212V165.163H593.533V168.718H593.636ZM377.797 158.806H391.177L360.697 191.074H347.317L377.797 158.806ZM513.459 134.457H492.691V112.802H513.459V134.457Z" fill="url(#paint30_linear_2729_65)"/>
<path d="M57.6016 205.726H83.9487V192.959H302.578V191.02H95.0041L148.163 134.781H221.935V147.548H248.282V120.074H221.935V132.841H125.329L125.071 133.111L82.4505 178.199H57.6016V205.726ZM224.725 123.037H245.493V144.693H224.725V123.037ZM83.897 179.438L126.052 134.834H145.529L92.4211 191.02H83.897V179.438Z" fill="url(#paint31_linear_2729_65)"/>
<path d="M850.754 72.9387H784.369V417.539H850.754V72.9387Z" fill="url(#paint32_linear_2729_65)"/>
<path d="M647.933 72.9387H586.766L459.783 417.539H530.765L564.19 321.383H673.298L708.789 417.539H783.181L647.933 72.9387ZM585.423 259.972C585.423 259.972 616.161 174.051 617.918 168.287C620.346 175.29 650.981 259.972 650.981 259.972H585.423Z" fill="url(#paint33_linear_2729_65)"/>
</g>
<path d="M1340.57 249.36V260.942H1364.49V236.001H1340.57V247.582H1307.87V249.306L1340.57 249.36ZM1343.1 238.64H1361.96V258.302H1343.1V238.64Z" fill="url(#paint34_linear_2729_65)"/>
<path d="M1356.49 244.404H1348.58V252.646H1356.49V244.404Z" fill="url(#paint35_linear_2729_65)"/>
<path d="M919.847 401.863H1052.15L1052.41 401.594L1091.15 360.6H1113.73V349.018H1162.65L1221.44 286.799H1239.06V292.186H1251.05V286.853H1288.45V298.435H1312.37V273.493H1288.45V285.075H1250.99V279.688H1239.01V285.075H1220.72L1161.93 347.294H1113.73V335.712H1089.81V347.294H973.161V349.018H1079.74L1031.43 400.14H919.847V388.558H895.928V413.499H919.847V401.863ZM1051.48 400.086H1033.76L1082.06 348.964H1089.81V359.522L1051.48 400.086ZM917.315 410.806H898.459V391.143H917.315V410.806Z" fill="url(#paint36_linear_2729_65)"/>
<path d="M911.839 396.854H903.935V405.096H911.839V396.854Z" fill="url(#paint37_linear_2729_65)"/>
<path d="M1067.24 323.215V311.633H1145.19L1198.82 254.801H1209.46V249.414H1293.41V247.69H1209.46V242.357H1197.47V247.69L1121.79 247.744L1063 185.525H952.703V173.943H928.784V198.885H952.703V187.303H1036.65L1095.44 249.522H1197.47V253.831L1144.47 309.963H1067.24V298.381H1043.32V323.322H1067.24V323.215ZM1119.46 247.69H1096.17L1039.03 187.249H1062.33L1119.46 247.69Z" fill="url(#paint38_linear_2729_65)"/>
<path d="M969.183 344.816H962.88V351.388H969.183V344.816Z" fill="url(#paint39_linear_2729_65)"/>
<path d="M865.965 306.084V311.471H816.99C816.938 312.064 816.938 312.656 816.887 313.195H865.965V318.582H877.95V306.084H865.965Z" fill="url(#paint40_linear_2729_65)"/>
<path d="M1001.16 253.023L1036.7 252.915L1062.74 280.443H1063.1L1138.58 280.496V283.729H1146.48V275.487H1138.58V278.719L1075.76 278.665L1049.72 251.084L1001.94 251.192L987.42 236.054V212.46H963.5V237.401H986.231L1001.16 253.023ZM984.785 234.762H965.929V215.099H984.785V234.762ZM1039.03 252.915H1048.95L1073.33 278.719H1063.41L1039.03 252.915Z" fill="url(#paint41_linear_2729_65)"/>
<path d="M1288.45 223.557H1312.37V198.615H1288.45V210.197H1241.64L1182.8 148.032H1121.48V136.45H1098.9L1059.9 95.1867H1002.66V83.6049H978.74V108.492H1002.66V96.9105H1059.18L1097.51 137.474V148.032H1057.99V149.756H1097.51V161.392H1120.08L1164.31 208.15V215.207H1172.21V206.965H1165.55L1121.43 160.314V149.756H1160.85L1219.64 211.975H1288.34V223.557H1288.45ZM1000.18 105.853H981.323V86.1906H1000.18V105.853ZM1239.27 210.251H1220.46L1163.33 149.81H1182.18L1239.27 210.251ZM1290.98 201.255H1309.84V220.917H1290.98V201.255Z" fill="url(#paint42_linear_2729_65)"/>
<path d="M1304.36 244.404H1296.46V252.646H1304.36V244.404Z" fill="url(#paint43_linear_2729_65)"/>
<path d="M1021.98 306.515H1014.08V314.757H1021.98V306.515Z" fill="url(#paint44_linear_2729_65)"/>
<path d="M973.212 465.806V440.865H949.293V452.446H864.517L816.576 401.702L860.126 401.81V413.445H884.045V388.504H860.126V400.086L797.048 399.978C797.048 400.193 797.048 400.84 797.048 401.863L846.539 454.224H949.293V465.806H973.212ZM847.211 452.446L799.269 401.702L814.199 401.756L862.141 452.5H847.211V452.446Z" fill="url(#paint45_linear_2729_65)"/>
<path d="M1007.41 298.219L992.431 282.597H956.216L894.533 347.24H883.891V336.736L941.544 276.295V237.401H952.703V212.46H928.784V224.042H846.798L881.618 187.195H911.839V189.619H918.142V183.047H911.839V185.471H880.894L844.473 224.042H819.159C819.056 224.634 818.901 225.227 818.798 225.765H928.836V237.347H939.943V275.54L882.599 335.604H859.972V360.546H883.891V348.91H958.851V347.186H916.954L976.984 284.267H991.707L1006.22 299.404V309.747H982.615V307.323H976.312V313.895H982.615V311.471H1006.22V323.107H1030.14V298.165H1007.41V298.219ZM914.629 347.24H896.909L956.888 284.375H974.607L914.629 347.24ZM1027.61 320.575H1008.76V300.913H1027.61V320.575Z" fill="url(#paint46_linear_2729_65)"/>
<path d="M859.971 264.066V275.648H815.956C815.801 276.241 815.646 276.779 815.543 277.372H859.971V288.954H883.89V264.012H859.971V264.066ZM881.359 286.368H862.503V266.706H881.359V286.368Z" fill="url(#paint47_linear_2729_65)"/>
<path d="M994.703 91.9008H986.799V100.143H994.703V91.9008Z" fill="url(#paint48_linear_2729_65)"/>
<path d="M1054.06 145.608H1047.76V152.18H1054.06V145.608Z" fill="url(#paint49_linear_2729_65)"/>
<path d="M978.895 161.392V136.397H1002.81V148.032H1043.73V149.756H1002.81V161.392H978.895Z" fill="url(#paint50_linear_2729_65)"/>
<path d="M978.792 22.1403V45.8965L964.275 61.0337L881.617 60.926L855.58 88.507H825.979V90.2308H871.905L897.942 62.7037L964.998 62.8114L979.98 47.1894H1002.71V22.248H978.792V22.1403ZM871.234 88.4531H857.957L882.341 62.6498H895.566L871.234 88.4531ZM1000.18 44.4959H981.323V24.8337H1000.18V44.4959Z" fill="url(#paint51_linear_2729_65)"/>
<path d="M941.958 104.883V110.27H861.522L802.731 172.489V174.213H840.237L899.028 111.994H941.958V117.381H953.943V104.883H941.958ZM839.514 172.435H805.056L862.193 111.994H896.651L839.514 172.435Z" fill="url(#paint52_linear_2729_65)"/>
<path d="M384.307 244.027V231.583H372.322V236.916H330.373V238.694L372.322 238.64V244.027H384.307Z" fill="url(#paint53_linear_2729_65)"/>
<path d="M526.734 130.471H518.83V138.713H526.734V130.471Z" fill="url(#paint54_linear_2729_65)"/>
<path d="M333.263 131.387H310.532V156.328H334.451V132.572L348.968 117.435L428.268 117.542L454.305 89.9614L524.874 89.9076V93.1397H532.778V84.8978H524.874V88.1299L441.648 88.1838H441.286L415.249 115.711L348.193 115.603L333.263 131.387ZM331.92 153.689H313.064V134.026H331.92V153.689ZM442.009 90.0692H451.928L427.544 115.872H417.626L442.009 90.0692Z" fill="url(#paint55_linear_2729_65)"/>
<path d="M552.772 348.587V323.646H528.853V335.227H452.137L430.801 312.656V307.323H425.738L393.295 273.009H349.693V267.622H337.708V280.119H349.693V274.732H392.623L424.498 308.454V309.747H331.767L308.674 285.291V261.427H284.755V272.955H219.404L251.589 238.64L314.925 238.586V236.862L235.626 236.916H235.264L201.478 273.009H150.695L89.3732 207.989V184.232H65.4541V209.174H88.1849L150.333 274.732H167.485L201.943 311.471H290.696V316.858H302.682V304.36H290.696V309.747H218.267L185.463 274.732H284.703V286.368H307.331L331.043 311.417H424.498V313.841H429.664L451.465 336.897H471.355L516.971 384.787H538.049V383.063H531.54L487.576 336.897H528.853V348.479H552.772V348.587ZM86.8418 206.534H67.9855V186.872H86.8418V206.534ZM215.943 309.747H202.717L169.913 274.732H183.19L215.943 309.747ZM203.802 273.009L235.935 238.694H249.212L217.028 273.009H203.802ZM306.143 283.782H287.287V264.12H306.143V283.782ZM529.163 383.117H517.591L473.628 336.951H485.2L529.163 383.117Z" fill="url(#paint56_linear_2729_65)"/>
<path d="M327.116 233.684H319.212V241.926H327.116V233.684Z" fill="url(#paint57_linear_2729_65)"/>
<path d="M327.116 269.776H319.212V278.018H327.116V269.776Z" fill="url(#paint58_linear_2729_65)"/>
<path d="M550.965 379.885H543.061V388.127H550.965V379.885Z" fill="url(#paint59_linear_2729_65)"/>
<path d="M572.921 312.495V287.553H549.002V299.135H530.611L471.821 236.916H407.089V231.529H395.156V244.027H405.85L456.064 297.142V304.091H463.968V295.849H457.201L407.141 242.842V238.64H455.599L514.389 300.859H549.054V312.441H572.921V312.495ZM515.009 299.135L457.872 238.694H471.149L528.286 299.135H515.009ZM551.534 290.193H570.39V309.855H551.534V290.193Z" fill="url(#paint60_linear_2729_65)"/>
<path d="M585.989 218.439V213.052H552.668L525.546 184.34H518.83V176.098H526.734V183.101L553.391 211.328H585.989V205.942H597.975V218.439H585.989Z" fill="url(#paint61_linear_2729_65)"/>
<path d="M300.667 269.83H292.763V278.072H300.667V269.83Z" fill="url(#paint62_linear_2729_65)"/>
<path d="M81.4173 192.313H73.5132V200.555H81.4173V192.313Z" fill="url(#paint63_linear_2729_65)"/>
<path d="M605.105 175.559H562.794L534.691 145.824V135.427H585.68V140.814H597.665V128.37L585.68 128.316V133.703H534.691V122.121H510.772V133.703H402.18L348.556 190.535H337.759V203.033H349.692V197.646H471.148L496.926 224.957V231.529H503.126L529.886 259.865H585.835V258.141H530.558L504.779 230.829V223.287H497.65L471.767 195.922H395.671L423.413 166.563H485.716V171.95H497.701V159.453H485.716V164.839H408.173L378.778 195.922H349.692V191.828L402.955 135.427H510.823V147.009H533.554L562.123 177.229H605.105V180.461H613.009V172.22H605.105V175.559ZM408.896 166.563H421.036L393.294 195.922H381.154L408.896 166.563ZM532.211 144.423H513.355V124.761H532.211V144.423Z" fill="url(#paint64_linear_2729_65)"/>
<path d="M117.786 209.174H141.705V197.592H340.445V195.868H151.831L200.134 144.746H267.241V156.328H291.161V131.387H267.241V142.969H179.418L179.159 143.238L140.414 184.232H117.838V209.174H117.786ZM269.773 134.026H288.629V153.689H269.773V134.026ZM141.705 185.31L180.038 144.746H197.809L149.506 195.868H141.757V185.31H141.705Z" fill="url(#paint65_linear_2729_65)"/>
<defs>
<linearGradient id="paint0_linear_2729_65" x1="27.0256" y1="190.857" x2="1427.04" y2="244.295" gradientUnits="userSpaceOnUse">
<stop stop-color="#00FFFF"/>
<stop offset="0.1869" stop-color="#18DFFB"/>
<stop offset="0.4612" stop-color="#3FA9F5"/>
<stop offset="1" stop-color="#ED1E79"/>
</linearGradient>
<linearGradient id="paint1_linear_2729_65" x1="27.0426" y1="190.858" x2="1427.04" y2="244.294" gradientUnits="userSpaceOnUse">
<stop stop-color="#00FFFF"/>
<stop offset="0.1869" stop-color="#18DFFB"/>
<stop offset="0.4612" stop-color="#3FA9F5"/>
<stop offset="1" stop-color="#ED1E79"/>
</linearGradient>
<linearGradient id="paint2_linear_2729_65" x1="22.6113" y1="306.465" x2="1422.62" y2="359.903" gradientUnits="userSpaceOnUse">
<stop stop-color="#00FFFF"/>
<stop offset="0.1869" stop-color="#18DFFB"/>
<stop offset="0.4612" stop-color="#3FA9F5"/>
<stop offset="1" stop-color="#ED1E79"/>
</linearGradient>
<linearGradient id="paint3_linear_2729_65" x1="19.8586" y1="378.584" x2="1419.87" y2="432.022" gradientUnits="userSpaceOnUse">
<stop stop-color="#00FFFF"/>
<stop offset="0.1869" stop-color="#18DFFB"/>
<stop offset="0.4612" stop-color="#3FA9F5"/>
<stop offset="1" stop-color="#ED1E79"/>
</linearGradient>
<linearGradient id="paint4_linear_2729_65" x1="26.4056" y1="207.051" x2="1426.42" y2="260.489" gradientUnits="userSpaceOnUse">
<stop stop-color="#00FFFF"/>
<stop offset="0.1869" stop-color="#18DFFB"/>
<stop offset="0.4612" stop-color="#3FA9F5"/>
<stop offset="1" stop-color="#ED1E79"/>
</linearGradient>
<linearGradient id="paint5_linear_2729_65" x1="22.1723" y1="317.889" x2="1422.19" y2="371.328" gradientUnits="userSpaceOnUse">
<stop stop-color="#00FFFF"/>
<stop offset="0.1869" stop-color="#18DFFB"/>
<stop offset="0.4612" stop-color="#3FA9F5"/>
<stop offset="1" stop-color="#ED1E79"/>
</linearGradient>
<linearGradient id="paint6_linear_2729_65" x1="23.5089" y1="282.881" x2="1423.52" y2="336.319" gradientUnits="userSpaceOnUse">
<stop stop-color="#00FFFF"/>
<stop offset="0.1869" stop-color="#18DFFB"/>
<stop offset="0.4612" stop-color="#3FA9F5"/>
<stop offset="1" stop-color="#ED1E79"/>
</linearGradient>
<linearGradient id="paint7_linear_2729_65" x1="26.5372" y1="203.63" x2="1426.55" y2="257.068" gradientUnits="userSpaceOnUse">
<stop stop-color="#00FFFF"/>
<stop offset="0.1869" stop-color="#18DFFB"/>
<stop offset="0.4612" stop-color="#3FA9F5"/>
<stop offset="1" stop-color="#ED1E79"/>
</linearGradient>
<linearGradient id="paint8_linear_2729_65" x1="30.6428" y1="96.0302" x2="1430.65" y2="149.468" gradientUnits="userSpaceOnUse">
<stop stop-color="#00FFFF"/>
<stop offset="0.1869" stop-color="#18DFFB"/>
<stop offset="0.4612" stop-color="#3FA9F5"/>
<stop offset="1" stop-color="#ED1E79"/>
</linearGradient>
<linearGradient id="paint9_linear_2729_65" x1="26.9334" y1="193.235" x2="1426.95" y2="246.673" gradientUnits="userSpaceOnUse">
<stop stop-color="#00FFFF"/>
<stop offset="0.1869" stop-color="#18DFFB"/>
<stop offset="0.4612" stop-color="#3FA9F5"/>
<stop offset="1" stop-color="#ED1E79"/>
</linearGradient>
<linearGradient id="paint10_linear_2729_65" x1="23.833" y1="274.365" x2="1423.85" y2="327.803" gradientUnits="userSpaceOnUse">
<stop stop-color="#00FFFF"/>
<stop offset="0.1869" stop-color="#18DFFB"/>
<stop offset="0.4612" stop-color="#3FA9F5"/>
<stop offset="1" stop-color="#ED1E79"/>
</linearGradient>
<linearGradient id="paint11_linear_2729_65" x1="18.7768" y1="406.937" x2="1418.79" y2="460.375" gradientUnits="userSpaceOnUse">
<stop stop-color="#00FFFF"/>
<stop offset="0.1869" stop-color="#18DFFB"/>
<stop offset="0.4612" stop-color="#3FA9F5"/>
<stop offset="1" stop-color="#ED1E79"/>
</linearGradient>
<linearGradient id="paint12_linear_2729_65" x1="25.2415" y1="237.607" x2="1425.25" y2="291.045" gradientUnits="userSpaceOnUse">
<stop stop-color="#00FFFF"/>
<stop offset="0.1869" stop-color="#18DFFB"/>
<stop offset="0.4612" stop-color="#3FA9F5"/>
<stop offset="1" stop-color="#ED1E79"/>
</linearGradient>
<linearGradient id="paint13_linear_2729_65" x1="25.0153" y1="243.579" x2="1425.03" y2="297.017" gradientUnits="userSpaceOnUse">
<stop stop-color="#00FFFF"/>
<stop offset="0.1869" stop-color="#18DFFB"/>
<stop offset="0.4612" stop-color="#3FA9F5"/>
<stop offset="1" stop-color="#ED1E79"/>
</linearGradient>
<linearGradient id="paint14_linear_2729_65" x1="32.7795" y1="39.9101" x2="1432.8" y2="93.3485" gradientUnits="userSpaceOnUse">
<stop stop-color="#00FFFF"/>
<stop offset="0.1869" stop-color="#18DFFB"/>
<stop offset="0.4612" stop-color="#3FA9F5"/>
<stop offset="1" stop-color="#ED1E79"/>
</linearGradient>
<linearGradient id="paint15_linear_2729_65" x1="30.6741" y1="95.211" x2="1430.69" y2="148.649" gradientUnits="userSpaceOnUse">
<stop stop-color="#00FFFF"/>
<stop offset="0.1869" stop-color="#18DFFB"/>
<stop offset="0.4612" stop-color="#3FA9F5"/>
<stop offset="1" stop-color="#ED1E79"/>
</linearGradient>
<linearGradient id="paint16_linear_2729_65" x1="30.569" y1="97.9475" x2="1430.58" y2="151.385" gradientUnits="userSpaceOnUse">
<stop stop-color="#00FFFF"/>
<stop offset="0.1869" stop-color="#18DFFB"/>
<stop offset="0.4612" stop-color="#3FA9F5"/>
<stop offset="1" stop-color="#ED1E79"/>
</linearGradient>
<linearGradient id="paint17_linear_2729_65" x1="34.3253" y1="-0.382192" x2="1434.34" y2="53.0557" gradientUnits="userSpaceOnUse">
<stop stop-color="#00FFFF"/>
<stop offset="0.1869" stop-color="#18DFFB"/>
<stop offset="0.4612" stop-color="#3FA9F5"/>
<stop offset="1" stop-color="#ED1E79"/>
</linearGradient>
<linearGradient id="paint18_linear_2729_65" x1="30.7677" y1="92.8021" x2="1430.78" y2="146.24" gradientUnits="userSpaceOnUse">
<stop stop-color="#00FFFF"/>
<stop offset="0.1869" stop-color="#18DFFB"/>
<stop offset="0.4612" stop-color="#3FA9F5"/>
<stop offset="1" stop-color="#ED1E79"/>
</linearGradient>
<linearGradient id="paint19_linear_2729_65" x1="25.7599" y1="223.97" x2="1425.77" y2="277.408" gradientUnits="userSpaceOnUse">
<stop stop-color="#00FFFF"/>
<stop offset="0.1869" stop-color="#18DFFB"/>
<stop offset="0.4612" stop-color="#3FA9F5"/>
<stop offset="1" stop-color="#ED1E79"/>
</linearGradient>
<linearGradient id="paint20_linear_2729_65" x1="30.3392" y1="104.005" x2="1430.35" y2="157.444" gradientUnits="userSpaceOnUse">
<stop stop-color="#00FFFF"/>
<stop offset="0.1869" stop-color="#18DFFB"/>
<stop offset="0.4612" stop-color="#3FA9F5"/>
<stop offset="1" stop-color="#ED1E79"/>
</linearGradient>
<linearGradient id="paint21_linear_2729_65" x1="30.7456" y1="93.3603" x2="1430.76" y2="146.798" gradientUnits="userSpaceOnUse">
<stop stop-color="#00FFFF"/>
<stop offset="0.1869" stop-color="#18DFFB"/>
<stop offset="0.4612" stop-color="#3FA9F5"/>
<stop offset="1" stop-color="#ED1E79"/>
</linearGradient>
<linearGradient id="paint22_linear_2729_65" x1="23.6696" y1="278.746" x2="1423.68" y2="332.184" gradientUnits="userSpaceOnUse">
<stop stop-color="#00FFFF"/>
<stop offset="0.1869" stop-color="#18DFFB"/>
<stop offset="0.4612" stop-color="#3FA9F5"/>
<stop offset="1" stop-color="#ED1E79"/>
</linearGradient>
<linearGradient id="paint23_linear_2729_65" x1="25.6641" y1="226.473" x2="1425.68" y2="279.911" gradientUnits="userSpaceOnUse">
<stop stop-color="#00FFFF"/>
<stop offset="0.1869" stop-color="#18DFFB"/>
<stop offset="0.4612" stop-color="#3FA9F5"/>
<stop offset="1" stop-color="#ED1E79"/>
</linearGradient>
<linearGradient id="paint24_linear_2729_65" x1="24.1516" y1="266.12" x2="1424.17" y2="319.558" gradientUnits="userSpaceOnUse">
<stop stop-color="#00FFFF"/>
<stop offset="0.1869" stop-color="#18DFFB"/>
<stop offset="0.4612" stop-color="#3FA9F5"/>
<stop offset="1" stop-color="#ED1E79"/>
</linearGradient>
<linearGradient id="paint25_linear_2729_65" x1="19.9227" y1="376.858" x2="1419.94" y2="430.296" gradientUnits="userSpaceOnUse">
<stop stop-color="#00FFFF"/>
<stop offset="0.1869" stop-color="#18DFFB"/>
<stop offset="0.4612" stop-color="#3FA9F5"/>
<stop offset="1" stop-color="#ED1E79"/>
</linearGradient>
<linearGradient id="paint26_linear_2729_65" x1="24.5" y1="257.01" x2="1424.51" y2="310.448" gradientUnits="userSpaceOnUse">
<stop stop-color="#00FFFF"/>
<stop offset="0.1869" stop-color="#18DFFB"/>
<stop offset="0.4612" stop-color="#3FA9F5"/>
<stop offset="1" stop-color="#ED1E79"/>
</linearGradient>
<linearGradient id="paint27_linear_2729_65" x1="27.7702" y1="171.334" x2="1427.78" y2="224.772" gradientUnits="userSpaceOnUse">
<stop stop-color="#00FFFF"/>
<stop offset="0.1869" stop-color="#18DFFB"/>
<stop offset="0.4612" stop-color="#3FA9F5"/>
<stop offset="1" stop-color="#ED1E79"/>
</linearGradient>
<linearGradient id="paint28_linear_2729_65" x1="24.1032" y1="267.388" x2="1424.11" y2="320.826" gradientUnits="userSpaceOnUse">
<stop stop-color="#00FFFF"/>
<stop offset="0.1869" stop-color="#18DFFB"/>
<stop offset="0.4612" stop-color="#3FA9F5"/>
<stop offset="1" stop-color="#ED1E79"/>
</linearGradient>
<linearGradient id="paint29_linear_2729_65" x1="26.9718" y1="192.242" x2="1426.98" y2="245.68" gradientUnits="userSpaceOnUse">
<stop stop-color="#00FFFF"/>
<stop offset="0.1869" stop-color="#18DFFB"/>
<stop offset="0.4612" stop-color="#3FA9F5"/>
<stop offset="1" stop-color="#ED1E79"/>
</linearGradient>
<linearGradient id="paint30_linear_2729_65" x1="27.9916" y1="165.508" x2="1428" y2="218.946" gradientUnits="userSpaceOnUse">
<stop stop-color="#00FFFF"/>
<stop offset="0.1869" stop-color="#18DFFB"/>
<stop offset="0.4612" stop-color="#3FA9F5"/>
<stop offset="1" stop-color="#ED1E79"/>
</linearGradient>
<linearGradient id="paint31_linear_2729_65" x1="28.2872" y1="157.755" x2="1428.3" y2="211.193" gradientUnits="userSpaceOnUse">
<stop stop-color="#00FFFF"/>
<stop offset="0.1869" stop-color="#18DFFB"/>
<stop offset="0.4612" stop-color="#3FA9F5"/>
<stop offset="1" stop-color="#ED1E79"/>
</linearGradient>
<linearGradient id="paint32_linear_2729_65" x1="26.2018" y1="212.395" x2="1426.21" y2="265.833" gradientUnits="userSpaceOnUse">
<stop stop-color="#00FFFF"/>
<stop offset="0.1869" stop-color="#18DFFB"/>
<stop offset="0.4612" stop-color="#3FA9F5"/>
<stop offset="1" stop-color="#ED1E79"/>
</linearGradient>
<linearGradient id="paint33_linear_2729_65" x1="25.7844" y1="223.322" x2="1425.79" y2="276.76" gradientUnits="userSpaceOnUse">
<stop stop-color="#00FFFF"/>
<stop offset="0.1869" stop-color="#18DFFB"/>
<stop offset="0.4612" stop-color="#3FA9F5"/>
<stop offset="1" stop-color="#ED1E79"/>
</linearGradient>
<linearGradient id="paint34_linear_2729_65" x1="80.0227" y1="195.687" x2="1352.76" y2="244.267" gradientUnits="userSpaceOnUse">
<stop stop-color="#00FFFF"/>
<stop offset="0.1869" stop-color="#18DFFB"/>
<stop offset="0.4612" stop-color="#3FA9F5"/>
<stop offset="1" stop-color="#ED1E79"/>
</linearGradient>
<linearGradient id="paint35_linear_2729_65" x1="80.0166" y1="195.687" x2="1352.76" y2="244.267" gradientUnits="userSpaceOnUse">
<stop stop-color="#00FFFF"/>
<stop offset="0.1869" stop-color="#18DFFB"/>
<stop offset="0.4612" stop-color="#3FA9F5"/>
<stop offset="1" stop-color="#ED1E79"/>
</linearGradient>
<linearGradient id="paint36_linear_2729_65" x1="76.0088" y1="300.785" x2="1348.75" y2="349.365" gradientUnits="userSpaceOnUse">
<stop stop-color="#00FFFF"/>
<stop offset="0.1869" stop-color="#18DFFB"/>
<stop offset="0.4612" stop-color="#3FA9F5"/>
<stop offset="1" stop-color="#ED1E79"/>
</linearGradient>
<linearGradient id="paint37_linear_2729_65" x1="73.5038" y1="366.348" x2="1346.25" y2="414.928" gradientUnits="userSpaceOnUse">
<stop stop-color="#00FFFF"/>
<stop offset="0.1869" stop-color="#18DFFB"/>
<stop offset="0.4612" stop-color="#3FA9F5"/>
<stop offset="1" stop-color="#ED1E79"/>
</linearGradient>
<linearGradient id="paint38_linear_2729_65" x1="79.4585" y1="210.408" x2="1352.2" y2="258.988" gradientUnits="userSpaceOnUse">
<stop stop-color="#00FFFF"/>
<stop offset="0.1869" stop-color="#18DFFB"/>
<stop offset="0.4612" stop-color="#3FA9F5"/>
<stop offset="1" stop-color="#ED1E79"/>
</linearGradient>
<linearGradient id="paint39_linear_2729_65" x1="75.6164" y1="311.171" x2="1348.35" y2="359.75" gradientUnits="userSpaceOnUse">
<stop stop-color="#00FFFF"/>
<stop offset="0.1869" stop-color="#18DFFB"/>
<stop offset="0.4612" stop-color="#3FA9F5"/>
<stop offset="1" stop-color="#ED1E79"/>
</linearGradient>
<linearGradient id="paint40_linear_2729_65" x1="76.8255" y1="279.346" x2="1349.56" y2="327.926" gradientUnits="userSpaceOnUse">
<stop stop-color="#00FFFF"/>
<stop offset="0.1869" stop-color="#18DFFB"/>
<stop offset="0.4612" stop-color="#3FA9F5"/>
<stop offset="1" stop-color="#ED1E79"/>
</linearGradient>
<linearGradient id="paint41_linear_2729_65" x1="79.5785" y1="207.299" x2="1352.32" y2="255.879" gradientUnits="userSpaceOnUse">
<stop stop-color="#00FFFF"/>
<stop offset="0.1869" stop-color="#18DFFB"/>
<stop offset="0.4612" stop-color="#3FA9F5"/>
<stop offset="1" stop-color="#ED1E79"/>
</linearGradient>
<linearGradient id="paint42_linear_2729_65" x1="83.3106" y1="109.481" x2="1356.05" y2="158.061" gradientUnits="userSpaceOnUse">
<stop stop-color="#00FFFF"/>
<stop offset="0.1869" stop-color="#18DFFB"/>
<stop offset="0.4612" stop-color="#3FA9F5"/>
<stop offset="1" stop-color="#ED1E79"/>
</linearGradient>
<linearGradient id="paint43_linear_2729_65" x1="79.9362" y1="197.849" x2="1352.68" y2="246.429" gradientUnits="userSpaceOnUse">
<stop stop-color="#00FFFF"/>
<stop offset="0.1869" stop-color="#18DFFB"/>
<stop offset="0.4612" stop-color="#3FA9F5"/>
<stop offset="1" stop-color="#ED1E79"/>
</linearGradient>
<linearGradient id="paint44_linear_2729_65" x1="77.1201" y1="271.603" x2="1349.86" y2="320.184" gradientUnits="userSpaceOnUse">
<stop stop-color="#00FFFF"/>
<stop offset="0.1869" stop-color="#18DFFB"/>
<stop offset="0.4612" stop-color="#3FA9F5"/>
<stop offset="1" stop-color="#ED1E79"/>
</linearGradient>
<linearGradient id="paint45_linear_2729_65" x1="72.5228" y1="392.124" x2="1345.26" y2="440.704" gradientUnits="userSpaceOnUse">
<stop stop-color="#00FFFF"/>
<stop offset="0.1869" stop-color="#18DFFB"/>
<stop offset="0.4612" stop-color="#3FA9F5"/>
<stop offset="1" stop-color="#ED1E79"/>
</linearGradient>
<linearGradient id="paint46_linear_2729_65" x1="78.4002" y1="238.187" x2="1351.14" y2="286.767" gradientUnits="userSpaceOnUse">
<stop stop-color="#00FFFF"/>
<stop offset="0.1869" stop-color="#18DFFB"/>
<stop offset="0.4612" stop-color="#3FA9F5"/>
<stop offset="1" stop-color="#ED1E79"/>
</linearGradient>
<linearGradient id="paint47_linear_2729_65" x1="78.195" y1="243.616" x2="1350.94" y2="292.196" gradientUnits="userSpaceOnUse">
<stop stop-color="#00FFFF"/>
<stop offset="0.1869" stop-color="#18DFFB"/>
<stop offset="0.4612" stop-color="#3FA9F5"/>
<stop offset="1" stop-color="#ED1E79"/>
</linearGradient>
<linearGradient id="paint48_linear_2729_65" x1="85.271" y1="58.4628" x2="1357.99" y2="107.042" gradientUnits="userSpaceOnUse">
<stop stop-color="#00FFFF"/>
<stop offset="0.1869" stop-color="#18DFFB"/>
<stop offset="0.4612" stop-color="#3FA9F5"/>
<stop offset="1" stop-color="#ED1E79"/>
</linearGradient>
<linearGradient id="paint49_linear_2729_65" x1="83.3438" y1="108.736" x2="1356.08" y2="157.316" gradientUnits="userSpaceOnUse">
<stop stop-color="#00FFFF"/>
<stop offset="0.1869" stop-color="#18DFFB"/>
<stop offset="0.4612" stop-color="#3FA9F5"/>
<stop offset="1" stop-color="#ED1E79"/>
</linearGradient>
<linearGradient id="paint50_linear_2729_65" x1="83.2417" y1="111.224" x2="1355.98" y2="159.804" gradientUnits="userSpaceOnUse">
<stop stop-color="#00FFFF"/>
<stop offset="0.1869" stop-color="#18DFFB"/>
<stop offset="0.4612" stop-color="#3FA9F5"/>
<stop offset="1" stop-color="#ED1E79"/>
</linearGradient>
<linearGradient id="paint51_linear_2729_65" x1="86.6584" y1="21.8332" x2="1359.39" y2="70.4131" gradientUnits="userSpaceOnUse">
<stop stop-color="#00FFFF"/>
<stop offset="0.1869" stop-color="#18DFFB"/>
<stop offset="0.4612" stop-color="#3FA9F5"/>
<stop offset="1" stop-color="#ED1E79"/>
</linearGradient>
<linearGradient id="paint52_linear_2729_65" x1="83.4252" y1="106.546" x2="1356.16" y2="155.126" gradientUnits="userSpaceOnUse">
<stop stop-color="#00FFFF"/>
<stop offset="0.1869" stop-color="#18DFFB"/>
<stop offset="0.4612" stop-color="#3FA9F5"/>
<stop offset="1" stop-color="#ED1E79"/>
</linearGradient>
<linearGradient id="paint53_linear_2729_65" x1="88.8729" y1="225.79" x2="1361.61" y2="274.37" gradientUnits="userSpaceOnUse">
<stop stop-color="#00FFFF"/>
<stop offset="0.1869" stop-color="#18DFFB"/>
<stop offset="0.4612" stop-color="#3FA9F5"/>
<stop offset="1" stop-color="#ED1E79"/>
</linearGradient>
<linearGradient id="paint54_linear_2729_65" x1="93.0351" y1="116.731" x2="1365.77" y2="165.31" gradientUnits="userSpaceOnUse">
<stop stop-color="#00FFFF"/>
<stop offset="0.1869" stop-color="#18DFFB"/>
<stop offset="0.4612" stop-color="#3FA9F5"/>
<stop offset="1" stop-color="#ED1E79"/>
</linearGradient>
<linearGradient id="paint55_linear_2729_65" x1="93.4025" y1="107.054" x2="1366.14" y2="155.634" gradientUnits="userSpaceOnUse">
<stop stop-color="#00FFFF"/>
<stop offset="0.1869" stop-color="#18DFFB"/>
<stop offset="0.4612" stop-color="#3FA9F5"/>
<stop offset="1" stop-color="#ED1E79"/>
</linearGradient>
<linearGradient id="paint56_linear_2729_65" x1="86.9714" y1="275.586" x2="1359.71" y2="324.166" gradientUnits="userSpaceOnUse">
<stop stop-color="#00FFFF"/>
<stop offset="0.1869" stop-color="#18DFFB"/>
<stop offset="0.4612" stop-color="#3FA9F5"/>
<stop offset="1" stop-color="#ED1E79"/>
</linearGradient>
<linearGradient id="paint57_linear_2729_65" x1="88.784" y1="228.065" x2="1361.52" y2="276.645" gradientUnits="userSpaceOnUse">
<stop stop-color="#00FFFF"/>
<stop offset="0.1869" stop-color="#18DFFB"/>
<stop offset="0.4612" stop-color="#3FA9F5"/>
<stop offset="1" stop-color="#ED1E79"/>
</linearGradient>
<linearGradient id="paint58_linear_2729_65" x1="87.4087" y1="264.108" x2="1360.14" y2="312.688" gradientUnits="userSpaceOnUse">
<stop stop-color="#00FFFF"/>
<stop offset="0.1869" stop-color="#18DFFB"/>
<stop offset="0.4612" stop-color="#3FA9F5"/>
<stop offset="1" stop-color="#ED1E79"/>
</linearGradient>
<linearGradient id="paint59_linear_2729_65" x1="83.5692" y1="364.779" x2="1356.3" y2="413.359" gradientUnits="userSpaceOnUse">
<stop stop-color="#00FFFF"/>
<stop offset="0.1869" stop-color="#18DFFB"/>
<stop offset="0.4612" stop-color="#3FA9F5"/>
<stop offset="1" stop-color="#ED1E79"/>
</linearGradient>
<linearGradient id="paint60_linear_2729_65" x1="87.7271" y1="255.826" x2="1360.46" y2="304.406" gradientUnits="userSpaceOnUse">
<stop stop-color="#00FFFF"/>
<stop offset="0.1869" stop-color="#18DFFB"/>
<stop offset="0.4612" stop-color="#3FA9F5"/>
<stop offset="1" stop-color="#ED1E79"/>
</linearGradient>
<linearGradient id="paint61_linear_2729_65" x1="90.6979" y1="177.939" x2="1363.43" y2="226.519" gradientUnits="userSpaceOnUse">
<stop stop-color="#00FFFF"/>
<stop offset="0.1869" stop-color="#18DFFB"/>
<stop offset="0.4612" stop-color="#3FA9F5"/>
<stop offset="1" stop-color="#ED1E79"/>
</linearGradient>
<linearGradient id="paint62_linear_2729_65" x1="87.3661" y1="265.261" x2="1360.1" y2="313.841" gradientUnits="userSpaceOnUse">
<stop stop-color="#00FFFF"/>
<stop offset="0.1869" stop-color="#18DFFB"/>
<stop offset="0.4612" stop-color="#3FA9F5"/>
<stop offset="1" stop-color="#ED1E79"/>
</linearGradient>
<linearGradient id="paint63_linear_2729_65" x1="89.973" y1="196.946" x2="1362.71" y2="245.526" gradientUnits="userSpaceOnUse">
<stop stop-color="#00FFFF"/>
<stop offset="0.1869" stop-color="#18DFFB"/>
<stop offset="0.4612" stop-color="#3FA9F5"/>
<stop offset="1" stop-color="#ED1E79"/>
</linearGradient>
<linearGradient id="paint64_linear_2729_65" x1="90.9002" y1="172.643" x2="1363.64" y2="221.222" gradientUnits="userSpaceOnUse">
<stop stop-color="#00FFFF"/>
<stop offset="0.1869" stop-color="#18DFFB"/>
<stop offset="0.4612" stop-color="#3FA9F5"/>
<stop offset="1" stop-color="#ED1E79"/>
</linearGradient>
<linearGradient id="paint65_linear_2729_65" x1="91.1691" y1="165.594" x2="1363.91" y2="214.174" gradientUnits="userSpaceOnUse">
<stop stop-color="#00FFFF"/>
<stop offset="0.1869" stop-color="#18DFFB"/>
<stop offset="0.4612" stop-color="#3FA9F5"/>
<stop offset="1" stop-color="#ED1E79"/>
</linearGradient>
</defs>
</svg>
