<svg width="1300" height="444" viewBox="0 0 1300 444" fill="none" xmlns="http://www.w3.org/2000/svg">
<path d="M1275.57 227.36V238.942H1299.49V214.001H1275.57V225.582H1242.87V227.306L1275.57 227.36ZM1278.1 216.64H1296.96V236.302H1278.1V216.64Z" fill="url(#paint0_linear_1797_8989)"/>
<path d="M1291.49 222.404H1283.58V230.646H1291.49V222.404Z" fill="url(#paint1_linear_1797_8989)"/>
<path d="M854.847 379.863H987.151L987.409 379.594L1026.15 338.6H1048.73V327.018H1097.65L1156.44 264.799H1174.06V270.186H1186.05V264.853H1223.45V276.435H1247.37V251.493H1223.45V263.075H1185.99V257.688H1174.01V263.075H1155.72L1096.93 325.294H1048.73V313.712H1024.81V325.294H908.161V327.018H1014.74L966.435 378.14H854.847V366.558H830.928V391.499H854.847V379.863ZM986.479 378.086H968.759L1017.06 326.964H1024.81V337.522L986.479 378.086ZM852.315 388.806H833.459V369.143H852.315V388.806Z" fill="url(#paint2_linear_1797_8989)"/>
<path d="M846.839 374.854H838.935V383.096H846.839V374.854Z" fill="url(#paint3_linear_1797_8989)"/>
<path d="M1002.24 301.215V289.633H1080.19L1133.82 232.801H1144.46V227.414H1228.41V225.69H1144.46V220.357H1132.47V225.69L1056.79 225.744L997.999 163.525H887.703V151.943H863.784V176.885H887.703V165.303H971.652L1030.44 227.522H1132.47V231.831L1079.47 287.963H1002.24V276.381H978.316V301.322H1002.24V301.215ZM1054.46 225.69H1031.17L974.028 165.249H997.327L1054.46 225.69Z" fill="url(#paint4_linear_1797_8989)"/>
<path d="M904.183 322.816H897.88V329.388H904.183V322.816Z" fill="url(#paint5_linear_1797_8989)"/>
<path d="M800.965 284.084V289.471H751.99C751.938 290.064 751.938 290.656 751.887 291.195H800.965V296.582H812.95V284.084H800.965Z" fill="url(#paint6_linear_1797_8989)"/>
<path d="M936.161 231.023L971.704 230.915L997.741 258.443H998.103L1073.58 258.496V261.729H1081.48V253.487H1073.58V256.719L1010.76 256.665L984.723 229.084L936.936 229.192L922.42 214.054V190.46H898.5V215.401H921.231L936.161 231.023ZM919.785 212.762H900.929V193.099H919.785V212.762ZM974.029 230.915H983.948L1008.33 256.719H998.413L974.029 230.915Z" fill="url(#paint7_linear_1797_8989)"/>
<path d="M1223.45 201.557H1247.37V176.615H1223.45V188.197H1176.64L1117.8 126.032H1056.48V114.45H1033.9L994.9 73.1867H937.659V61.6049H913.74V86.4924H937.659V74.9105H994.176L1032.51 115.474V126.032H992.988V127.756H1032.51V139.392H1055.08L1099.31 186.15V193.207H1107.21V184.965H1100.55L1056.43 138.314V127.756H1095.85L1154.64 189.975H1223.34V201.557H1223.45ZM935.18 83.8528H916.323V64.1906H935.18V83.8528ZM1174.27 188.251H1155.46L1098.33 127.81H1117.18L1174.27 188.251ZM1225.98 179.255H1244.84V198.917H1225.98V179.255Z" fill="url(#paint8_linear_1797_8989)"/>
<path d="M1239.36 222.404H1231.46V230.646H1239.36V222.404Z" fill="url(#paint9_linear_1797_8989)"/>
<path d="M956.98 284.515H949.076V292.757H956.98V284.515Z" fill="url(#paint10_linear_1797_8989)"/>
<path d="M908.212 443.806V418.865H884.293V430.446H799.517L751.576 379.702L795.126 379.81V391.445H819.045V366.504H795.126V378.086L732.048 377.978C732.048 378.193 732.048 378.84 732.048 379.863L781.539 432.224H884.293V443.806H908.212ZM782.211 430.446L734.269 379.702L749.199 379.756L797.141 430.5H782.211V430.446Z" fill="url(#paint11_linear_1797_8989)"/>
<path d="M942.412 276.219L927.431 260.597H891.216L829.533 325.24H818.891V314.736L876.544 254.295V215.401H887.703V190.46H863.784V202.042H781.798L816.618 165.195H846.839V167.619H853.142V161.047H846.839V163.471H815.894L779.473 202.042H754.159C754.056 202.634 753.901 203.227 753.798 203.765H863.836V215.347H874.943V253.54L817.599 313.604H794.972V338.546H818.891V326.91H893.851V325.186H851.954L911.984 262.267H926.707L941.224 277.404V287.747H917.615V285.323H911.312V291.895H917.615V289.471H941.224V301.107H965.143V276.165H942.412V276.219ZM849.629 325.24H831.909L891.888 262.375H909.607L849.629 325.24ZM962.612 298.575H943.755V278.913H962.612V298.575Z" fill="url(#paint12_linear_1797_8989)"/>
<path d="M794.971 242.066V253.648H750.956C750.801 254.241 750.646 254.779 750.543 255.372H794.971V266.954H818.89V242.012H794.971V242.066ZM816.359 264.368H797.503V244.706H816.359V264.368Z" fill="url(#paint13_linear_1797_8989)"/>
<path d="M929.703 69.9008H921.799V78.1428H929.703V69.9008Z" fill="url(#paint14_linear_1797_8989)"/>
<path d="M989.061 123.608H982.759V130.18H989.061V123.608Z" fill="url(#paint15_linear_1797_8989)"/>
<path d="M913.895 139.392V114.397H937.814V126.032H978.729V127.756H937.814V139.392H913.895Z" fill="url(#paint16_linear_1797_8989)"/>
<path d="M913.792 0.140259V23.8965L899.275 39.0337L816.617 38.926L790.58 66.507H760.979V68.2308H806.905L832.942 40.7037L899.998 40.8114L914.98 25.1894H937.711V0.248004H913.792V0.140259ZM806.234 66.4531H792.957L817.341 40.6498H830.566L806.234 66.4531ZM935.179 22.4959H916.323V2.83371H935.179V22.4959Z" fill="url(#paint17_linear_1797_8989)"/>
<path d="M876.958 82.8831V88.27H796.522L737.731 150.489V152.213H775.237L834.028 89.9938H876.958V95.3807H888.943V82.8831H876.958ZM774.514 150.435H740.056L797.193 89.9938H831.651L774.514 150.435Z" fill="url(#paint18_linear_1797_8989)"/>
<path d="M319.307 222.027V209.583H307.322V214.916H265.373V216.694L307.322 216.64V222.027H319.307Z" fill="url(#paint19_linear_1797_8989)"/>
<path d="M461.734 108.471H453.83V116.713H461.734V108.471Z" fill="url(#paint20_linear_1797_8989)"/>
<path d="M268.263 109.387H245.532V134.328H269.451V110.572L283.968 95.4347L363.268 95.5424L389.305 67.9614L459.874 67.9076V71.1397H467.778V62.8978H459.874V66.1299L376.648 66.1838H376.286L350.249 93.7109L283.193 93.6031L268.263 109.387ZM266.92 131.689H248.064V112.026H266.92V131.689ZM377.009 68.0692H386.928L362.544 93.8725H352.626L377.009 68.0692Z" fill="url(#paint21_linear_1797_8989)"/>
<path d="M487.772 326.587V301.646H463.853V313.227H387.137L365.801 290.656V285.323H360.738L328.295 251.009H284.693V245.622H272.708V258.119H284.693V252.732H327.623L359.498 286.454V287.747H266.767L243.674 263.291V239.427H219.755V250.955H154.404L186.589 216.64L249.925 216.586V214.862L170.626 214.916H170.264L136.478 251.009H85.6948L24.3732 185.989V162.232H0.454102V187.174H23.1849L85.3332 252.732H102.485L136.943 289.471H225.696V294.858H237.682V282.36H225.696V287.747H153.267L120.463 252.732H219.703V264.368H242.331L266.043 289.417H359.498V291.841H364.664L386.465 314.897H406.355L451.971 362.787H473.049V361.063H466.54L422.576 314.897H463.853V326.479H487.772V326.587ZM21.8418 184.534H2.9855V164.872H21.8418V184.534ZM150.943 287.747H137.717L104.913 252.732H118.19L150.943 287.747ZM138.802 251.009L170.935 216.694H184.212L152.028 251.009H138.802ZM241.143 261.782H222.287V242.12H241.143V261.782ZM464.163 361.117H452.591L408.628 314.951H420.2L464.163 361.117Z" fill="url(#paint22_linear_1797_8989)"/>
<path d="M262.116 211.684H254.212V219.926H262.116V211.684Z" fill="url(#paint23_linear_1797_8989)"/>
<path d="M262.116 247.776H254.212V256.018H262.116V247.776Z" fill="url(#paint24_linear_1797_8989)"/>
<path d="M485.965 357.885H478.061V366.127H485.965V357.885Z" fill="url(#paint25_linear_1797_8989)"/>
<path d="M507.921 290.495V265.553H484.002V277.135H465.611L406.821 214.916H342.089V209.529H330.156V222.027H340.85L391.064 275.142V282.091H398.968V273.849H392.201L342.141 220.842V216.64H390.599L449.389 278.859H484.054V290.441H507.921V290.495ZM450.009 277.135L392.872 216.694H406.149L463.286 277.135H450.009ZM486.534 268.193H505.39V287.855H486.534V268.193Z" fill="url(#paint26_linear_1797_8989)"/>
<path d="M520.989 196.439V191.052H487.668L460.546 162.34H453.83V154.098H461.734V161.101L488.391 189.328H520.989V183.942H532.975V196.439H520.989Z" fill="url(#paint27_linear_1797_8989)"/>
<path d="M235.667 247.83H227.763V256.072H235.667V247.83Z" fill="url(#paint28_linear_1797_8989)"/>
<path d="M16.4173 170.313H8.51318V178.555H16.4173V170.313Z" fill="url(#paint29_linear_1797_8989)"/>
<path d="M540.105 153.559H497.794L469.691 123.824V113.427H520.68V118.814H532.665V106.37L520.68 106.316V111.703H469.691V100.121H445.772V111.703H337.18L283.556 168.535H272.759V181.033H284.692V175.646H406.148L431.926 202.957V209.529H438.126L464.886 237.865H520.835V236.141H465.558L439.779 208.829V201.287H432.65L406.767 173.922H330.671L358.413 144.563H420.716V149.95H432.701V137.453H420.716V142.839H343.173L313.778 173.922H284.692V169.828L337.955 113.427H445.823V125.009H468.554L497.123 155.229H540.105V158.461H548.009V150.22H540.105V153.559ZM343.896 144.563H356.036L328.294 173.922H316.154L343.896 144.563ZM467.211 122.423H448.355V102.761H467.211V122.423Z" fill="url(#paint30_linear_1797_8989)"/>
<path d="M52.7861 187.174H76.7052V175.592H275.445V173.868H86.8308L135.134 122.746H202.241V134.328H226.161V109.387H202.241V120.969H114.418L114.159 121.238L75.4137 162.232H52.8378V187.174H52.7861ZM204.773 112.026H223.629V131.689H204.773V112.026ZM76.7052 163.31L115.038 122.746H132.809L84.506 173.868H76.7569V163.31H76.7052Z" fill="url(#paint31_linear_1797_8989)"/>
<defs>
<linearGradient id="paint0_linear_1797_8989" x1="15.0227" y1="173.687" x2="1287.76" y2="222.267" gradientUnits="userSpaceOnUse">
<stop stop-color="#00FFFF"/>
<stop offset="0.1869" stop-color="#18DFFB"/>
<stop offset="0.4612" stop-color="#3FA9F5"/>
<stop offset="1" stop-color="#ED1E79"/>
</linearGradient>
<linearGradient id="paint1_linear_1797_8989" x1="15.0166" y1="173.687" x2="1287.76" y2="222.267" gradientUnits="userSpaceOnUse">
<stop stop-color="#00FFFF"/>
<stop offset="0.1869" stop-color="#18DFFB"/>
<stop offset="0.4612" stop-color="#3FA9F5"/>
<stop offset="1" stop-color="#ED1E79"/>
</linearGradient>
<linearGradient id="paint2_linear_1797_8989" x1="11.0088" y1="278.785" x2="1283.75" y2="327.365" gradientUnits="userSpaceOnUse">
<stop stop-color="#00FFFF"/>
<stop offset="0.1869" stop-color="#18DFFB"/>
<stop offset="0.4612" stop-color="#3FA9F5"/>
<stop offset="1" stop-color="#ED1E79"/>
</linearGradient>
<linearGradient id="paint3_linear_1797_8989" x1="8.50378" y1="344.348" x2="1281.25" y2="392.928" gradientUnits="userSpaceOnUse">
<stop stop-color="#00FFFF"/>
<stop offset="0.1869" stop-color="#18DFFB"/>
<stop offset="0.4612" stop-color="#3FA9F5"/>
<stop offset="1" stop-color="#ED1E79"/>
</linearGradient>
<linearGradient id="paint4_linear_1797_8989" x1="14.4585" y1="188.408" x2="1287.2" y2="236.988" gradientUnits="userSpaceOnUse">
<stop stop-color="#00FFFF"/>
<stop offset="0.1869" stop-color="#18DFFB"/>
<stop offset="0.4612" stop-color="#3FA9F5"/>
<stop offset="1" stop-color="#ED1E79"/>
</linearGradient>
<linearGradient id="paint5_linear_1797_8989" x1="10.6164" y1="289.171" x2="1283.35" y2="337.75" gradientUnits="userSpaceOnUse">
<stop stop-color="#00FFFF"/>
<stop offset="0.1869" stop-color="#18DFFB"/>
<stop offset="0.4612" stop-color="#3FA9F5"/>
<stop offset="1" stop-color="#ED1E79"/>
</linearGradient>
<linearGradient id="paint6_linear_1797_8989" x1="11.8255" y1="257.346" x2="1284.56" y2="305.926" gradientUnits="userSpaceOnUse">
<stop stop-color="#00FFFF"/>
<stop offset="0.1869" stop-color="#18DFFB"/>
<stop offset="0.4612" stop-color="#3FA9F5"/>
<stop offset="1" stop-color="#ED1E79"/>
</linearGradient>
<linearGradient id="paint7_linear_1797_8989" x1="14.5785" y1="185.299" x2="1287.32" y2="233.879" gradientUnits="userSpaceOnUse">
<stop stop-color="#00FFFF"/>
<stop offset="0.1869" stop-color="#18DFFB"/>
<stop offset="0.4612" stop-color="#3FA9F5"/>
<stop offset="1" stop-color="#ED1E79"/>
</linearGradient>
<linearGradient id="paint8_linear_1797_8989" x1="18.3106" y1="87.4807" x2="1291.05" y2="136.061" gradientUnits="userSpaceOnUse">
<stop stop-color="#00FFFF"/>
<stop offset="0.1869" stop-color="#18DFFB"/>
<stop offset="0.4612" stop-color="#3FA9F5"/>
<stop offset="1" stop-color="#ED1E79"/>
</linearGradient>
<linearGradient id="paint9_linear_1797_8989" x1="14.9362" y1="175.849" x2="1287.68" y2="224.429" gradientUnits="userSpaceOnUse">
<stop stop-color="#00FFFF"/>
<stop offset="0.1869" stop-color="#18DFFB"/>
<stop offset="0.4612" stop-color="#3FA9F5"/>
<stop offset="1" stop-color="#ED1E79"/>
</linearGradient>
<linearGradient id="paint10_linear_1797_8989" x1="12.1201" y1="249.603" x2="1284.86" y2="298.184" gradientUnits="userSpaceOnUse">
<stop stop-color="#00FFFF"/>
<stop offset="0.1869" stop-color="#18DFFB"/>
<stop offset="0.4612" stop-color="#3FA9F5"/>
<stop offset="1" stop-color="#ED1E79"/>
</linearGradient>
<linearGradient id="paint11_linear_1797_8989" x1="7.52281" y1="370.124" x2="1280.26" y2="418.704" gradientUnits="userSpaceOnUse">
<stop stop-color="#00FFFF"/>
<stop offset="0.1869" stop-color="#18DFFB"/>
<stop offset="0.4612" stop-color="#3FA9F5"/>
<stop offset="1" stop-color="#ED1E79"/>
</linearGradient>
<linearGradient id="paint12_linear_1797_8989" x1="13.4002" y1="216.187" x2="1286.14" y2="264.767" gradientUnits="userSpaceOnUse">
<stop stop-color="#00FFFF"/>
<stop offset="0.1869" stop-color="#18DFFB"/>
<stop offset="0.4612" stop-color="#3FA9F5"/>
<stop offset="1" stop-color="#ED1E79"/>
</linearGradient>
<linearGradient id="paint13_linear_1797_8989" x1="13.195" y1="221.616" x2="1285.94" y2="270.196" gradientUnits="userSpaceOnUse">
<stop stop-color="#00FFFF"/>
<stop offset="0.1869" stop-color="#18DFFB"/>
<stop offset="0.4612" stop-color="#3FA9F5"/>
<stop offset="1" stop-color="#ED1E79"/>
</linearGradient>
<linearGradient id="paint14_linear_1797_8989" x1="20.271" y1="36.4628" x2="1292.99" y2="85.0416" gradientUnits="userSpaceOnUse">
<stop stop-color="#00FFFF"/>
<stop offset="0.1869" stop-color="#18DFFB"/>
<stop offset="0.4612" stop-color="#3FA9F5"/>
<stop offset="1" stop-color="#ED1E79"/>
</linearGradient>
<linearGradient id="paint15_linear_1797_8989" x1="18.3438" y1="86.7364" x2="1291.08" y2="135.316" gradientUnits="userSpaceOnUse">
<stop stop-color="#00FFFF"/>
<stop offset="0.1869" stop-color="#18DFFB"/>
<stop offset="0.4612" stop-color="#3FA9F5"/>
<stop offset="1" stop-color="#ED1E79"/>
</linearGradient>
<linearGradient id="paint16_linear_1797_8989" x1="18.2417" y1="89.2239" x2="1290.98" y2="137.804" gradientUnits="userSpaceOnUse">
<stop stop-color="#00FFFF"/>
<stop offset="0.1869" stop-color="#18DFFB"/>
<stop offset="0.4612" stop-color="#3FA9F5"/>
<stop offset="1" stop-color="#ED1E79"/>
</linearGradient>
<linearGradient id="paint17_linear_1797_8989" x1="21.6584" y1="-0.166845" x2="1294.39" y2="48.4131" gradientUnits="userSpaceOnUse">
<stop stop-color="#00FFFF"/>
<stop offset="0.1869" stop-color="#18DFFB"/>
<stop offset="0.4612" stop-color="#3FA9F5"/>
<stop offset="1" stop-color="#ED1E79"/>
</linearGradient>
<linearGradient id="paint18_linear_1797_8989" x1="18.4252" y1="84.546" x2="1291.16" y2="133.126" gradientUnits="userSpaceOnUse">
<stop stop-color="#00FFFF"/>
<stop offset="0.1869" stop-color="#18DFFB"/>
<stop offset="0.4612" stop-color="#3FA9F5"/>
<stop offset="1" stop-color="#ED1E79"/>
</linearGradient>
<linearGradient id="paint19_linear_1797_8989" x1="23.8729" y1="203.79" x2="1296.61" y2="252.37" gradientUnits="userSpaceOnUse">
<stop stop-color="#00FFFF"/>
<stop offset="0.1869" stop-color="#18DFFB"/>
<stop offset="0.4612" stop-color="#3FA9F5"/>
<stop offset="1" stop-color="#ED1E79"/>
</linearGradient>
<linearGradient id="paint20_linear_1797_8989" x1="28.0351" y1="94.7309" x2="1300.77" y2="143.31" gradientUnits="userSpaceOnUse">
<stop stop-color="#00FFFF"/>
<stop offset="0.1869" stop-color="#18DFFB"/>
<stop offset="0.4612" stop-color="#3FA9F5"/>
<stop offset="1" stop-color="#ED1E79"/>
</linearGradient>
<linearGradient id="paint21_linear_1797_8989" x1="28.4025" y1="85.0536" x2="1301.14" y2="133.634" gradientUnits="userSpaceOnUse">
<stop stop-color="#00FFFF"/>
<stop offset="0.1869" stop-color="#18DFFB"/>
<stop offset="0.4612" stop-color="#3FA9F5"/>
<stop offset="1" stop-color="#ED1E79"/>
</linearGradient>
<linearGradient id="paint22_linear_1797_8989" x1="21.9714" y1="253.586" x2="1294.71" y2="302.166" gradientUnits="userSpaceOnUse">
<stop stop-color="#00FFFF"/>
<stop offset="0.1869" stop-color="#18DFFB"/>
<stop offset="0.4612" stop-color="#3FA9F5"/>
<stop offset="1" stop-color="#ED1E79"/>
</linearGradient>
<linearGradient id="paint23_linear_1797_8989" x1="23.784" y1="206.065" x2="1296.52" y2="254.645" gradientUnits="userSpaceOnUse">
<stop stop-color="#00FFFF"/>
<stop offset="0.1869" stop-color="#18DFFB"/>
<stop offset="0.4612" stop-color="#3FA9F5"/>
<stop offset="1" stop-color="#ED1E79"/>
</linearGradient>
<linearGradient id="paint24_linear_1797_8989" x1="22.4087" y1="242.108" x2="1295.14" y2="290.688" gradientUnits="userSpaceOnUse">
<stop stop-color="#00FFFF"/>
<stop offset="0.1869" stop-color="#18DFFB"/>
<stop offset="0.4612" stop-color="#3FA9F5"/>
<stop offset="1" stop-color="#ED1E79"/>
</linearGradient>
<linearGradient id="paint25_linear_1797_8989" x1="18.5692" y1="342.779" x2="1291.3" y2="391.359" gradientUnits="userSpaceOnUse">
<stop stop-color="#00FFFF"/>
<stop offset="0.1869" stop-color="#18DFFB"/>
<stop offset="0.4612" stop-color="#3FA9F5"/>
<stop offset="1" stop-color="#ED1E79"/>
</linearGradient>
<linearGradient id="paint26_linear_1797_8989" x1="22.7271" y1="233.826" x2="1295.46" y2="282.406" gradientUnits="userSpaceOnUse">
<stop stop-color="#00FFFF"/>
<stop offset="0.1869" stop-color="#18DFFB"/>
<stop offset="0.4612" stop-color="#3FA9F5"/>
<stop offset="1" stop-color="#ED1E79"/>
</linearGradient>
<linearGradient id="paint27_linear_1797_8989" x1="25.6979" y1="155.939" x2="1298.43" y2="204.519" gradientUnits="userSpaceOnUse">
<stop stop-color="#00FFFF"/>
<stop offset="0.1869" stop-color="#18DFFB"/>
<stop offset="0.4612" stop-color="#3FA9F5"/>
<stop offset="1" stop-color="#ED1E79"/>
</linearGradient>
<linearGradient id="paint28_linear_1797_8989" x1="22.3661" y1="243.261" x2="1295.1" y2="291.841" gradientUnits="userSpaceOnUse">
<stop stop-color="#00FFFF"/>
<stop offset="0.1869" stop-color="#18DFFB"/>
<stop offset="0.4612" stop-color="#3FA9F5"/>
<stop offset="1" stop-color="#ED1E79"/>
</linearGradient>
<linearGradient id="paint29_linear_1797_8989" x1="24.973" y1="174.946" x2="1297.71" y2="223.526" gradientUnits="userSpaceOnUse">
<stop stop-color="#00FFFF"/>
<stop offset="0.1869" stop-color="#18DFFB"/>
<stop offset="0.4612" stop-color="#3FA9F5"/>
<stop offset="1" stop-color="#ED1E79"/>
</linearGradient>
<linearGradient id="paint30_linear_1797_8989" x1="25.9002" y1="150.643" x2="1298.64" y2="199.222" gradientUnits="userSpaceOnUse">
<stop stop-color="#00FFFF"/>
<stop offset="0.1869" stop-color="#18DFFB"/>
<stop offset="0.4612" stop-color="#3FA9F5"/>
<stop offset="1" stop-color="#ED1E79"/>
</linearGradient>
<linearGradient id="paint31_linear_1797_8989" x1="26.1691" y1="143.594" x2="1298.91" y2="192.174" gradientUnits="userSpaceOnUse">
<stop stop-color="#00FFFF"/>
<stop offset="0.1869" stop-color="#18DFFB"/>
<stop offset="0.4612" stop-color="#3FA9F5"/>
<stop offset="1" stop-color="#ED1E79"/>
</linearGradient>
</defs>
</svg>
