<svg preserveAspectRatio="none" viewBox="0 0 1440 329" fill="none" xmlns="http://www.w3.org/2000/svg">
<path d="M1.79102 207.536C281.562 479.884 369.127 -36.9812 453.316 40.5486C579.004 156.446 594.293 336.752 708.664 69.9702C844.677 -247.306 825.814 666.354 1439.17 83.8859" stroke="url(#paint0_linear_2085_150)" stroke-width="0.7911" stroke-linecap="round" stroke-linejoin="round"/>
<path d="M1.78906 201.97C281.56 440.324 369.125 -11.933 453.314 55.8559C579.002 157.241 594.291 315.084 708.662 81.5004C844.675 -196.215 825.812 603.336 1439.16 93.8257" stroke="url(#paint1_linear_2085_150)" stroke-width="0.8735" stroke-linecap="round" stroke-linejoin="round"/>
<path d="M1.78809 196.602C281.559 400.764 369.124 13.3139 453.313 71.3619C579.001 158.235 594.29 293.614 708.661 93.4281C844.674 -144.529 825.811 540.716 1439.16 103.964" stroke="url(#paint2_linear_2085_150)" stroke-width="0.9559" stroke-linecap="round" stroke-linejoin="round"/>
<path d="M1.78809 191.235C281.559 361.403 369.124 38.362 453.313 86.8678C579.001 159.229 594.29 271.945 708.661 105.157C844.674 -93.24 825.811 477.897 1439.16 113.904" stroke="url(#paint3_linear_2085_150)" stroke-width="1.0383" stroke-linecap="round" stroke-linejoin="round"/>
<path d="M1.78711 185.669C281.558 321.843 369.123 63.4104 453.312 102.175C579 160.024 594.289 250.277 708.66 116.886C844.673 -41.7518 825.81 415.078 1439.16 123.844" stroke="url(#paint4_linear_2085_150)" stroke-width="1.1207" stroke-linecap="round" stroke-linejoin="round"/>
<path d="M1.78906 180.301C281.56 282.481 369.125 88.6569 453.314 117.681C579.002 161.217 594.291 228.807 708.662 128.615C844.675 9.53668 825.812 352.258 1439.16 133.783" stroke="url(#paint5_linear_2085_150)" stroke-width="1.2031" stroke-linecap="round" stroke-linejoin="round"/>
<path d="M1.78906 174.934C281.56 242.921 369.125 113.904 453.314 133.187C579.002 162.211 594.291 207.337 708.662 140.542C844.675 61.2231 825.812 289.638 1439.16 144.12" stroke="url(#paint6_linear_2085_150)" stroke-width="1.2855" stroke-linecap="round" stroke-linejoin="round"/>
<path d="M1.79102 169.367C281.562 203.361 369.127 138.753 453.316 148.494C579.004 163.006 594.293 185.47 708.664 152.072C844.677 112.313 825.814 226.62 1439.17 153.861" stroke="url(#paint7_linear_2085_150)" stroke-width="1.3679" stroke-linecap="round" stroke-linejoin="round"/>
<path d="M1.78809 164C281.559 164 369.124 164 453.313 164C579.001 164 594.29 164 708.661 164C844.674 164 825.811 164 1439.16 164" stroke="url(#paint8_linear_2085_150)" stroke-width="1.4503" stroke-linecap="round" stroke-linejoin="round"/>
<path d="M1.78516 158.632C281.556 124.639 369.121 189.247 453.31 179.506C578.998 164.994 594.287 142.53 708.658 175.928C844.671 215.686 825.808 101.38 1439.16 174.138" stroke="url(#paint9_linear_2085_150)" stroke-width="1.5327" stroke-linecap="round" stroke-linejoin="round"/>
<path d="M1.78906 153.066C281.56 85.0786 369.125 214.096 453.314 194.813C579.002 165.789 594.291 120.663 708.662 187.458C844.675 266.777 825.812 38.3619 1439.16 183.879" stroke="url(#paint10_linear_2085_150)" stroke-width="1.6151" stroke-linecap="round" stroke-linejoin="round"/>
<path d="M1.78613 147.699C281.557 45.5188 369.122 239.343 453.311 210.319C578.999 166.783 594.288 99.1933 708.659 199.386C844.672 318.464 825.809 -24.258 1439.16 194.217" stroke="url(#paint11_linear_2085_150)" stroke-width="1.6975" stroke-linecap="round" stroke-linejoin="round"/>
<path d="M1.78711 142.331C281.558 6.15706 369.123 264.59 453.312 225.825C579 167.976 594.289 77.7231 708.66 211.114C844.673 369.752 825.81 -87.0775 1439.16 204.156" stroke="url(#paint12_linear_2085_150)" stroke-width="1.7799" stroke-linecap="round" stroke-linejoin="round"/>
<path d="M1.78711 136.765C281.558 -33.4029 369.123 289.638 453.312 241.132C579 168.771 594.289 56.0545 708.66 222.843C844.673 421.24 825.81 -149.897 1439.16 214.096" stroke="url(#paint13_linear_2085_150)" stroke-width="1.8623" stroke-linecap="round" stroke-linejoin="round"/>
<path d="M1.78711 131.398C281.558 -72.7643 369.123 314.686 453.312 256.638C579 169.765 594.289 34.3859 708.66 234.572C844.673 472.529 825.81 -212.716 1439.16 224.036" stroke="url(#paint14_linear_2085_150)" stroke-width="1.9447" stroke-linecap="round" stroke-linejoin="round"/>
<path d="M1.78613 126.03C281.557 -112.324 369.122 339.933 453.311 272.144C578.999 170.759 594.288 12.9161 708.659 246.5C844.672 524.215 825.809 -275.336 1439.16 234.174" stroke="url(#paint15_linear_2085_150)" stroke-width="2.0271" stroke-linecap="round" stroke-linejoin="round"/>
<path d="M1.78809 120.464C281.559 -151.884 369.124 364.981 453.313 287.451C579.001 171.554 594.29 -8.75233 708.661 258.03C844.674 575.306 825.811 -338.354 1439.16 244.114" stroke="url(#paint16_linear_2085_150)" stroke-width="2.1095" stroke-linecap="round" stroke-linejoin="round"/>
<defs>
<linearGradient id="paint0_linear_2085_150" x1="1447.68" y1="144.189" x2="-13.6244" y2="144.189" gradientUnits="userSpaceOnUse">
<stop stop-color="#009ED4"/>
<stop offset="1" stop-color="#FF5CE8"/>
</linearGradient>
<linearGradient id="paint1_linear_2085_150" x1="1318.56" y1="405.795" x2="109.358" y2="-94.4811" gradientUnits="userSpaceOnUse">
<stop stop-color="#109AD5"/>
<stop offset="0.00180441" stop-color="#109AD5"/>
<stop offset="0.6495" stop-color="#9F76E1"/>
<stop offset="0.9964" stop-color="#EE63E7"/>
<stop offset="1" stop-color="#EF63E7"/>
</linearGradient>
<linearGradient id="paint2_linear_2085_150" x1="1061.03" y1="491.095" x2="376.016" y2="-193.109" gradientUnits="userSpaceOnUse">
<stop stop-color="#2096D7"/>
<stop offset="0.00180441" stop-color="#2096D7"/>
<stop offset="0.7573" stop-color="#B075E2"/>
<stop offset="0.9964" stop-color="#DE6AE5"/>
<stop offset="1" stop-color="#DF6AE5"/>
</linearGradient>
<linearGradient id="paint3_linear_2085_150" x1="818.637" y1="389.515" x2="626.27" y2="-74.3519" gradientUnits="userSpaceOnUse">
<stop stop-color="#3092D8"/>
<stop offset="0.00180441" stop-color="#3092D8"/>
<stop offset="0.9082" stop-color="#C074E3"/>
<stop offset="0.9964" stop-color="#CE71E4"/>
<stop offset="1" stop-color="#CF71E4"/>
</linearGradient>
<linearGradient id="paint4_linear_2085_150" x1="720.6" y1="227.617" x2="720.6" y2="79.8513" gradientUnits="userSpaceOnUse">
<stop stop-color="#408ED9"/>
<stop offset="0.00180441" stop-color="#408ED9"/>
<stop offset="0.9964" stop-color="#BF78E2"/>
<stop offset="1" stop-color="#BF78E2"/>
</linearGradient>
<linearGradient id="paint5_linear_2085_150" x1="605.509" y1="435.321" x2="837.293" y2="-123.594" gradientUnits="userSpaceOnUse">
<stop stop-color="#5089DA"/>
<stop offset="0.00180441" stop-color="#5089DA"/>
<stop offset="0.9964" stop-color="#AF7FE1"/>
<stop offset="1" stop-color="#AF7FE1"/>
</linearGradient>
<linearGradient id="paint6_linear_2085_150" x1="348.754" y1="531.711" x2="1096.99" y2="-215.64" gradientUnits="userSpaceOnUse">
<stop stop-color="#6085DC"/>
<stop offset="0.00180441" stop-color="#6085DC"/>
<stop offset="0.9964" stop-color="#9F86DF"/>
<stop offset="1" stop-color="#9F86DF"/>
</linearGradient>
<linearGradient id="paint7_linear_2085_150" x1="96.6633" y1="420.463" x2="1351.11" y2="-98.5335" gradientUnits="userSpaceOnUse">
<stop stop-color="#7081DD"/>
<stop offset="0.00180441" stop-color="#7081DD"/>
<stop offset="0.9964" stop-color="#8F8DDE"/>
<stop offset="1" stop-color="#8F8DDE"/>
</linearGradient>
<linearGradient id="paint8_linear_2085_150" x1="-nan" y1="-nan" x2="-nan" y2="-nan" gradientUnits="userSpaceOnUse">
<stop stop-color="#807DDE"/>
<stop offset="0.00180441" stop-color="#807DDE"/>
<stop offset="0.9964" stop-color="#7F95DC"/>
<stop offset="1" stop-color="#8095DC"/>
</linearGradient>
<linearGradient id="paint9_linear_2085_150" x1="96.5059" y1="-92.5211" x2="1351.26" y2="426.603" gradientUnits="userSpaceOnUse">
<stop stop-color="#8F79DF"/>
<stop offset="0.00180441" stop-color="#8F79DF"/>
<stop offset="0.9964" stop-color="#6F9CDB"/>
<stop offset="1" stop-color="#709CDB"/>
</linearGradient>
<linearGradient id="paint10_linear_2085_150" x1="348.522" y1="-203.939" x2="1097.23" y2="543.882" gradientUnits="userSpaceOnUse">
<stop stop-color="#9F75E1"/>
<stop offset="0.00180441" stop-color="#9F75E1"/>
<stop offset="0.9964" stop-color="#5FA3D9"/>
<stop offset="1" stop-color="#60A3D9"/>
</linearGradient>
<linearGradient id="paint11_linear_2085_150" x1="605.317" y1="-107.773" x2="837.481" y2="452.058" gradientUnits="userSpaceOnUse">
<stop stop-color="#AF71E2"/>
<stop offset="0.00180441" stop-color="#AF71E2"/>
<stop offset="0.9964" stop-color="#4FAAD8"/>
<stop offset="1" stop-color="#50AAD8"/>
</linearGradient>
<linearGradient id="paint12_linear_2085_150" x1="720.6" y1="99.7266" x2="720.6" y2="248.82" gradientUnits="userSpaceOnUse">
<stop stop-color="#BF6DE3"/>
<stop offset="0.00180441" stop-color="#BF6DE3"/>
<stop offset="0.9964" stop-color="#40B1D6"/>
<stop offset="1" stop-color="#40B1D6"/>
</linearGradient>
<linearGradient id="paint13_linear_2085_150" x1="818.952" y1="-62.2719" x2="625.951" y2="403.122" gradientUnits="userSpaceOnUse">
<stop stop-color="#CF68E4"/>
<stop offset="0.00180441" stop-color="#CF68E4"/>
<stop offset="0.9026" stop-color="#3FB0D6"/>
<stop offset="0.9964" stop-color="#30B8D4"/>
<stop offset="1" stop-color="#30B8D4"/>
</linearGradient>
<linearGradient id="paint14_linear_2085_150" x1="1061.72" y1="-163.788" x2="375.313" y2="521.813" gradientUnits="userSpaceOnUse">
<stop stop-color="#DF64E5"/>
<stop offset="0.00180441" stop-color="#DF64E5"/>
<stop offset="0.7534" stop-color="#4FA8D7"/>
<stop offset="0.9964" stop-color="#20BFD3"/>
<stop offset="1" stop-color="#20BFD3"/>
</linearGradient>
<linearGradient id="paint15_linear_2085_150" x1="1319.62" y1="-78.2298" x2="108.287" y2="422.926" gradientUnits="userSpaceOnUse">
<stop stop-color="#EF60E7"/>
<stop offset="0.00180441" stop-color="#EF60E7"/>
<stop offset="0.6467" stop-color="#60A2D9"/>
<stop offset="0.9964" stop-color="#10C6D2"/>
<stop offset="1" stop-color="#10C6D2"/>
</linearGradient>
<linearGradient id="paint16_linear_2085_150" x1="1448.99" y1="183.816" x2="-14.9472" y2="183.816" gradientUnits="userSpaceOnUse">
<stop offset="0.00180441" stop-color="#FF5CE8"/>
<stop offset="0.5665" stop-color="#709BDB"/>
<stop offset="0.9964" stop-color="#00CDD0"/>
</linearGradient>
</defs>
</svg>
