<svg width="413" height="400" viewBox="0 0 413 400" fill="none" xmlns="http://www.w3.org/2000/svg">
<g filter="url(#filter0_d_1797_8948)">
<path d="M289.312 250.95C338.293 169.115 339.584 79.7759 292.194 51.4054C244.805 23.0349 166.681 66.3765 117.7 148.211C68.7183 230.046 67.428 319.386 114.817 347.756C162.207 376.126 240.331 332.785 289.312 250.95Z" stroke="url(#paint0_linear_1797_8948)" stroke-miterlimit="10"/>
<path d="M292.183 347.72C339.572 319.349 338.282 230.01 289.301 148.175C240.32 66.3403 162.196 22.9988 114.806 51.3693C67.4168 79.7398 68.7071 169.079 117.688 250.914C166.669 332.749 244.793 376.09 292.183 347.72Z" stroke="url(#paint1_linear_1797_8948)" stroke-miterlimit="10"/>
<path d="M102.967 101.02C27.8116 122.21 11.867 183.533 67.3622 237.943C122.914 292.404 228.836 319.295 303.992 298.104C379.148 276.912 395.147 215.643 339.595 161.181C284.1 106.772 178.124 79.829 102.967 101.02Z" stroke="url(#paint2_linear_1797_8948)" stroke-miterlimit="10"/>
<path d="M199.854 276.702C223.942 276.702 243.47 231.23 243.47 175.138C243.47 119.046 223.942 73.5744 199.854 73.5744C175.766 73.5744 156.238 119.046 156.238 175.138C156.238 231.23 175.766 276.702 199.854 276.702Z" fill="#8FFFEC"/>
<path d="M185.823 316.635H197.144C198.593 316.635 199.766 317.576 199.766 318.737V331.127C199.766 333.89 195.681 335.371 193.113 333.527C189.358 330.828 185.063 326.314 183.252 319.156C182.923 317.855 184.167 316.635 185.823 316.635Z" fill="url(#paint3_radial_1797_8948)"/>
<path d="M199.426 310.965L199.433 300.983C199.436 296.794 195.159 293.762 190.474 294.633L184.157 295.807C179.472 296.678 176.635 301.032 178.214 304.927L181.978 314.208C185.332 322.483 199.42 319.865 199.426 310.965Z" fill="url(#paint4_radial_1797_8948)"/>
<path d="M198.66 289.874L198.67 275.615C198.674 269.63 192.564 265.299 185.871 266.543L176.846 268.221C170.153 269.465 166.1 275.685 168.356 281.25L173.732 294.507C178.526 306.329 198.652 302.588 198.66 289.874Z" fill="url(#paint5_radial_1797_8948)"/>
<path d="M172.91 292.477L173.732 294.506C178.526 306.328 198.652 302.587 198.66 289.873L198.661 288.454C192.113 295.241 182.192 296.55 172.91 292.477Z" fill="url(#paint6_radial_1797_8948)"/>
<path d="M175.279 302.297C174.739 299.415 176.048 296.766 178.201 296.382C180.355 295.998 182.538 298.024 183.078 300.907C183.617 303.79 182.309 306.439 180.155 306.822C178.001 307.206 175.818 305.18 175.279 302.297Z" fill="url(#paint7_radial_1797_8948)"/>
<path d="M215.127 316.635H203.806C202.358 316.635 201.184 317.576 201.184 318.737V331.127C201.184 333.89 205.269 335.371 207.837 333.527C211.592 330.828 215.887 326.314 217.698 319.156C218.028 317.855 216.783 316.635 215.127 316.635Z" fill="url(#paint8_radial_1797_8948)"/>
<path d="M201.525 310.965L201.518 300.983C201.515 296.794 205.793 293.762 210.477 294.633L216.794 295.807C221.48 296.678 224.316 301.032 222.737 304.927L218.974 314.208C215.619 322.483 201.531 319.865 201.525 310.965Z" fill="url(#paint9_radial_1797_8948)"/>
<path d="M202.29 289.874L202.28 275.615C202.276 269.63 208.386 265.299 215.079 266.543L224.104 268.221C230.797 269.465 234.85 275.685 232.594 281.25L227.218 294.507C222.424 306.329 202.298 302.588 202.29 289.874Z" fill="url(#paint10_radial_1797_8948)"/>
<path d="M228.04 292.477L227.218 294.506C222.424 306.328 202.298 302.587 202.29 289.873L202.289 288.454C208.837 295.241 218.758 296.55 228.04 292.477Z" fill="url(#paint11_radial_1797_8948)"/>
<path d="M225.671 302.297C226.21 299.415 224.902 296.766 222.748 296.382C220.594 295.998 218.411 298.024 217.871 300.907C217.332 303.79 218.64 306.439 220.794 306.822C222.948 307.206 225.131 305.18 225.671 302.297Z" fill="url(#paint12_radial_1797_8948)"/>
<path d="M90.6307 184.561L105.084 180.393C111.151 178.643 117.332 182.779 118.031 189.057L118.974 197.522C119.674 203.8 114.555 209.196 108.251 208.825L93.2354 207.942C79.8452 207.156 77.7427 188.279 90.6307 184.561Z" fill="url(#paint13_radial_1797_8948)"/>
<path d="M121.932 175.921L142.58 169.967C151.247 167.467 160.077 173.376 161.076 182.344L162.422 194.438C163.422 203.406 156.109 211.115 147.104 210.586L125.652 209.325C106.524 208.2 103.519 181.231 121.932 175.921Z" fill="url(#paint14_radial_1797_8948)"/>
<path d="M121.932 175.921L142.58 169.967C151.247 167.467 160.077 173.376 161.076 182.344L162.422 194.438C163.422 203.406 156.109 211.115 147.104 210.586L125.652 209.325C106.524 208.2 103.519 181.231 121.932 175.921Z" fill="url(#paint15_radial_1797_8948)"/>
<path d="M310.151 184.561L295.698 180.393C289.631 178.643 283.45 182.779 282.75 189.057L281.807 197.522C281.108 203.8 286.227 209.196 292.53 208.825L307.546 207.942C320.936 207.156 323.039 188.279 310.151 184.561Z" fill="url(#paint16_radial_1797_8948)"/>
<path d="M278.849 175.921L258.201 169.967C249.534 167.467 240.704 173.376 239.705 182.344L238.358 194.438C237.358 203.406 244.671 211.115 253.676 210.586L275.128 209.324C294.258 208.2 297.262 181.231 278.849 175.921Z" fill="url(#paint17_radial_1797_8948)"/>
<path d="M157.565 246.702L148.361 192.959C144.497 170.398 161.867 149.792 184.747 149.792H215.599C238.478 149.792 255.848 170.398 251.985 192.959L242.781 246.702C234.573 294.625 165.773 294.625 157.565 246.702Z" fill="url(#paint18_radial_1797_8948)"/>
<path d="M215.597 149.792H200.607V222.46C213.91 222.629 224.643 233.507 224.643 246.91C224.643 260.313 213.91 269.789 200.607 269.958V282.635C219.713 282.456 238.706 270.482 242.779 246.701L251.983 192.958C255.847 170.398 238.477 149.792 215.597 149.792Z" fill="url(#paint19_linear_1797_8948)"/>
<path d="M200.296 268.453C211.608 268.453 220.779 259.241 220.779 247.878C220.779 236.514 211.608 227.302 200.296 227.302C188.983 227.302 179.813 236.514 179.813 247.878C179.813 259.241 188.983 268.453 200.296 268.453Z" fill="#6661AB"/>
<path d="M200.295 261.891C207.729 261.891 213.756 255.836 213.756 248.368C213.756 240.9 207.729 234.846 200.295 234.846C192.86 234.846 186.833 240.9 186.833 248.368C186.833 255.836 192.86 261.891 200.295 261.891Z" fill="#8FFFEC"/>
<path d="M200.295 222.46C213.743 222.46 224.644 233.411 224.644 246.918C224.644 260.426 213.743 271.376 200.295 271.376C186.848 271.376 175.947 260.425 175.947 246.918C175.947 233.41 186.848 222.46 200.295 222.46ZM200.295 218.616C184.75 218.616 172.104 231.312 172.104 246.918C172.104 262.524 184.75 275.22 200.295 275.22C215.841 275.22 228.487 262.524 228.487 246.918C228.487 231.312 215.841 218.616 200.295 218.616Z" fill="url(#paint20_radial_1797_8948)"/>
<path d="M125.589 209.317C125.611 209.318 125.631 209.322 125.653 209.324L140.678 210.207C127.514 202.623 123.951 182.445 136.902 171.604L124.345 175.226C114.628 185.009 116.415 200.748 125.589 209.317Z" fill="url(#paint21_radial_1797_8948)"/>
<path d="M273.991 209.317C273.969 209.318 273.949 209.322 273.928 209.324L258.903 210.207C272.067 202.623 275.63 182.445 262.679 171.604L275.236 175.226C284.952 185.009 283.165 200.748 273.991 209.317Z" fill="url(#paint22_radial_1797_8948)"/>
<path d="M108.214 175.389C113.651 174.338 118.679 176.7 119.445 180.666C120.212 184.632 116.425 188.7 110.988 189.751C105.551 190.802 100.523 188.44 99.7571 184.474C98.9912 180.508 102.778 176.44 108.214 175.389Z" fill="url(#paint23_radial_1797_8948)"/>
<path d="M292.567 175.389C287.13 174.338 282.102 176.7 281.336 180.666C280.569 184.632 284.355 188.7 289.792 189.751C295.229 190.802 300.258 188.44 301.024 184.474C301.79 180.508 298.003 176.44 292.567 175.389Z" fill="url(#paint24_radial_1797_8948)"/>
<path d="M200.591 184.241C236.25 184.241 265.158 157.324 265.158 124.121C265.158 90.9169 236.25 64 200.591 64C164.932 64 136.024 90.9169 136.024 124.121C136.024 157.324 164.932 184.241 200.591 184.241Z" fill="url(#paint25_radial_1797_8948)"/>
<path d="M201.185 102.722C216.896 102.722 229.632 94.0541 229.632 83.3612C229.632 72.6683 216.896 64 201.185 64C185.474 64 172.738 72.6683 172.738 83.3612C172.738 94.0541 185.474 102.722 201.185 102.722Z" fill="url(#paint26_radial_1797_8948)"/>
<path d="M265.157 134.272C252.723 187.362 148.495 187.362 136.061 134.272H265.157Z" fill="url(#paint27_radial_1797_8948)"/>
<path d="M264.78 117.645C250.54 133.433 227.113 143.751 200.591 143.751C174.07 143.751 150.643 133.433 136.403 117.645C136.209 119.331 136.103 121.041 136.062 122.766C136.13 125.731 136.291 129.707 136.526 131.495C150.788 147.182 174.167 157.411 200.591 157.411C227.015 157.411 250.395 147.182 264.657 131.495C264.891 129.708 265.052 125.731 265.121 122.766C265.079 121.042 264.973 119.332 264.78 117.645Z" fill="url(#paint28_radial_1797_8948)"/>
<path d="M264.78 117.645C250.54 133.433 227.113 143.751 200.591 143.751C174.07 143.751 150.643 133.433 136.403 117.645C136.209 119.331 136.103 121.041 136.062 122.766C136.13 125.731 136.291 129.707 136.526 131.495C150.788 147.182 174.167 157.411 200.591 157.411C227.015 157.411 250.395 147.182 264.657 131.495C264.891 129.708 265.052 125.731 265.121 122.766C265.079 121.042 264.973 119.332 264.78 117.645Z" fill="url(#paint29_radial_1797_8948)"/>
<path d="M165.823 145.918C165.823 143.779 167.556 142.045 169.695 142.045C171.832 142.045 173.567 143.779 173.567 145.918C173.567 148.057 171.833 149.791 169.695 149.791C167.556 149.791 165.823 148.058 165.823 145.918Z" fill="#8FFFEC"/>
<path d="M228.802 145.918C228.802 143.779 230.535 142.045 232.674 142.045C234.813 142.045 236.546 143.779 236.546 145.918C236.546 148.057 234.813 149.791 232.674 149.791C230.535 149.791 228.802 148.058 228.802 145.918Z" fill="#8FFFEC"/>
<path d="M196.313 143.655C199.049 143.759 201.791 143.762 204.528 143.667C227.683 142.769 248.182 134.005 261.822 120.712C262.745 119.799 264.217 118.287 264.779 117.645C264.27 113.065 263.095 108.472 261.617 104.49H139.563C138.091 108.458 136.916 112.892 136.401 117.645C137.505 118.933 138.531 119.897 139.564 120.908C153.136 134.026 173.412 142.69 196.313 143.655Z" fill="url(#paint30_radial_1797_8948)"/>
<path d="M265.157 124.12C265.157 157.324 236.25 184.241 200.591 184.241C164.931 184.241 136.024 157.324 136.024 124.12" fill="url(#paint31_linear_1797_8948)"/>
</g>
<defs>
<filter id="filter0_d_1797_8948" x="0.774902" y="10.1744" width="411.433" height="386.777" filterUnits="userSpaceOnUse" color-interpolation-filters="sRGB">
<feFlood flood-opacity="0" result="BackgroundImageFix"/>
<feColorMatrix in="SourceAlpha" type="matrix" values="0 0 0 0 0 0 0 0 0 0 0 0 0 0 0 0 0 0 127 0" result="hardAlpha"/>
<feOffset dx="3" dy="4"/>
<feGaussianBlur stdDeviation="18"/>
<feComposite in2="hardAlpha" operator="out"/>
<feColorMatrix type="matrix" values="0 0 0 0 1 0 0 0 0 1 0 0 0 0 1 0 0 0 0.4 0"/>
<feBlend mode="normal" in2="BackgroundImageFix" result="effect1_dropShadow_1797_8948"/>
<feBlend mode="normal" in="SourceGraphic" in2="effect1_dropShadow_1797_8948" result="shape"/>
</filter>
<linearGradient id="paint0_linear_1797_8948" x1="139.869" y1="305.915" x2="267.175" y2="93.2653" gradientUnits="userSpaceOnUse">
<stop offset="0.2151" stop-color="#E4FFFB" stop-opacity="0.1921"/>
<stop offset="0.3206" stop-color="#D5FFF8" stop-opacity="0.3007"/>
<stop offset="0.6151" stop-color="#AFFFF2" stop-opacity="0.6038"/>
<stop offset="0.8519" stop-color="#98FFEE" stop-opacity="0.8476"/>
<stop offset="1" stop-color="#8FFFEC"/>
</linearGradient>
<linearGradient id="paint1_linear_1797_8948" x1="97.193" y1="263.192" x2="309.815" y2="135.929" gradientUnits="userSpaceOnUse">
<stop offset="0.2151" stop-color="#E4FFFB" stop-opacity="0.1921"/>
<stop offset="0.3206" stop-color="#D5FFF8" stop-opacity="0.3007"/>
<stop offset="0.6151" stop-color="#AFFFF2" stop-opacity="0.6038"/>
<stop offset="0.8519" stop-color="#98FFEE" stop-opacity="0.8476"/>
<stop offset="1" stop-color="#8FFFEC"/>
</linearGradient>
<linearGradient id="paint2_linear_1797_8948" x1="33.7717" y1="199.565" x2="373.211" y2="199.565" gradientUnits="userSpaceOnUse">
<stop stop-color="#8FFFEC"/>
<stop offset="0.1481" stop-color="#98FFEE" stop-opacity="0.8476"/>
<stop offset="0.3849" stop-color="#AFFFF2" stop-opacity="0.6038"/>
<stop offset="0.6794" stop-color="#D5FFF8" stop-opacity="0.3007"/>
<stop offset="0.7849" stop-color="#E4FFFB" stop-opacity="0.1921"/>
</linearGradient>
<radialGradient id="paint3_radial_1797_8948" cx="0" cy="0" r="1" gradientUnits="userSpaceOnUse" gradientTransform="translate(192.351 318.781) rotate(-2.99559) scale(12.0733 6.49493)">
<stop offset="0.0937" stop-color="#69B5B5"/>
<stop offset="0.3458" stop-color="#D9E7E7"/>
<stop offset="0.4438" stop-color="#D5E5E5"/>
<stop offset="0.5495" stop-color="#C8DEDE"/>
<stop offset="0.6552" stop-color="#B3D4D4"/>
<stop offset="0.8911" stop-color="#BDD7D7"/>
<stop offset="1" stop-color="#C4D9D9"/>
</radialGradient>
<radialGradient id="paint4_radial_1797_8948" cx="0" cy="0" r="1" gradientUnits="userSpaceOnUse" gradientTransform="translate(187.379 297.574) rotate(169.466) scale(14.0427 9.81826)">
<stop offset="0.3906" stop-color="#69B5B5"/>
<stop offset="0.438" stop-color="#70B8B8"/>
<stop offset="0.5053" stop-color="#82C0C0"/>
<stop offset="0.5842" stop-color="#A1CCCC"/>
<stop offset="0.624" stop-color="#B3D4D4"/>
<stop offset="0.7509" stop-color="#DBF2F2"/>
<stop offset="0.9385" stop-color="#D9E7E7"/>
</radialGradient>
<radialGradient id="paint5_radial_1797_8948" cx="0" cy="0" r="1" gradientUnits="userSpaceOnUse" gradientTransform="translate(184.446 270.723) rotate(169.466) scale(20.0617 14.0266)">
<stop offset="0.4539" stop-color="#69B5B5"/>
<stop offset="0.6117" stop-color="#B3D4D4"/>
<stop offset="0.7234" stop-color="#B4C7C7"/>
<stop offset="0.8455" stop-color="#C7D8D8"/>
<stop offset="0.9385" stop-color="#D9E7E7"/>
</radialGradient>
<radialGradient id="paint6_radial_1797_8948" cx="0" cy="0" r="1" gradientUnits="userSpaceOnUse" gradientTransform="translate(193.813 293.736) rotate(-33.2794) scale(27.9743 13.5411)">
<stop offset="0.00070255" stop-color="#FF8742"/>
<stop offset="0.1665" stop-color="#E68724"/>
<stop offset="0.3839" stop-color="#C98600"/>
<stop offset="0.5017" stop-color="#C48300"/>
<stop offset="0.6417" stop-color="#B67900"/>
<stop offset="0.7925" stop-color="#9E6800"/>
<stop offset="0.8911" stop-color="#8A5B00"/>
</radialGradient>
<radialGradient id="paint7_radial_1797_8948" cx="0" cy="0" r="1" gradientUnits="userSpaceOnUse" gradientTransform="translate(179.845 298.917) rotate(47.393) scale(6.95398 3.98668)">
<stop stop-color="#6661AC"/>
<stop offset="0.2636" stop-color="#4A4587"/>
<stop offset="0.5125" stop-color="#322E69"/>
<stop offset="1" stop-color="#383475"/>
</radialGradient>
<radialGradient id="paint8_radial_1797_8948" cx="0" cy="0" r="1" gradientUnits="userSpaceOnUse" gradientTransform="translate(208.6 318.78) rotate(-177.004) scale(12.0733 6.49493)">
<stop offset="0.0937" stop-color="#69B5B5"/>
<stop offset="0.3458" stop-color="#D9E7E7"/>
<stop offset="0.4438" stop-color="#D5E5E5"/>
<stop offset="0.5495" stop-color="#C8DEDE"/>
<stop offset="0.6552" stop-color="#B3D4D4"/>
<stop offset="0.8911" stop-color="#BDD7D7"/>
<stop offset="1" stop-color="#C4D9D9"/>
</radialGradient>
<radialGradient id="paint9_radial_1797_8948" cx="0" cy="0" r="1" gradientUnits="userSpaceOnUse" gradientTransform="translate(213.572 297.574) rotate(10.5338) scale(14.0427 9.81826)">
<stop offset="0.3906" stop-color="#69B5B5"/>
<stop offset="0.438" stop-color="#70B8B8"/>
<stop offset="0.5053" stop-color="#82C0C0"/>
<stop offset="0.5842" stop-color="#A1CCCC"/>
<stop offset="0.624" stop-color="#B3D4D4"/>
<stop offset="0.7509" stop-color="#DBF2F2"/>
<stop offset="0.9385" stop-color="#D9E7E7"/>
</radialGradient>
<radialGradient id="paint10_radial_1797_8948" cx="0" cy="0" r="1" gradientUnits="userSpaceOnUse" gradientTransform="translate(216.504 270.723) rotate(10.5338) scale(20.0617 14.0266)">
<stop offset="0.4539" stop-color="#69B5B5"/>
<stop offset="0.6117" stop-color="#B3D4D4"/>
<stop offset="0.7234" stop-color="#B4C7C7"/>
<stop offset="0.8455" stop-color="#C7D8D8"/>
<stop offset="0.9385" stop-color="#D9E7E7"/>
</radialGradient>
<radialGradient id="paint11_radial_1797_8948" cx="0" cy="0" r="1" gradientUnits="userSpaceOnUse" gradientTransform="translate(207.137 293.737) rotate(-146.721) scale(27.9743 13.5411)">
<stop offset="0.00070255" stop-color="#FF8742"/>
<stop offset="0.1665" stop-color="#E68724"/>
<stop offset="0.3839" stop-color="#C98600"/>
<stop offset="0.5017" stop-color="#C48300"/>
<stop offset="0.6417" stop-color="#B67900"/>
<stop offset="0.7925" stop-color="#9E6800"/>
<stop offset="0.8911" stop-color="#8A5B00"/>
</radialGradient>
<radialGradient id="paint12_radial_1797_8948" cx="0" cy="0" r="1" gradientUnits="userSpaceOnUse" gradientTransform="translate(221.105 298.918) rotate(132.607) scale(6.95399 3.98669)">
<stop stop-color="#6661AC"/>
<stop offset="0.2636" stop-color="#4A4587"/>
<stop offset="0.5125" stop-color="#322E69"/>
<stop offset="1" stop-color="#383475"/>
</radialGradient>
<radialGradient id="paint13_radial_1797_8948" cx="0" cy="0" r="1" gradientUnits="userSpaceOnUse" gradientTransform="translate(116.567 193.751) rotate(83.6408) scale(18.6149 14.8366)">
<stop offset="0.5782" stop-color="#69B5B5"/>
<stop offset="0.6117" stop-color="#B3D4D4"/>
<stop offset="0.7509" stop-color="#C4D9D9"/>
<stop offset="0.9252" stop-color="#D7E6E6"/>
<stop offset="0.9385" stop-color="#D9E7E7"/>
</radialGradient>
<radialGradient id="paint14_radial_1797_8948" cx="0" cy="0" r="1" gradientUnits="userSpaceOnUse" gradientTransform="translate(158.988 189.054) rotate(83.6408) scale(26.5937 21.196)">
<stop offset="0.5782" stop-color="#69B5B5"/>
<stop offset="0.6117" stop-color="#B3D4D4"/>
<stop offset="0.7509" stop-color="#C4D9D9"/>
<stop offset="0.9252" stop-color="#D7E6E6"/>
<stop offset="0.9385" stop-color="#D9E7E7"/>
</radialGradient>
<radialGradient id="paint15_radial_1797_8948" cx="0" cy="0" r="1" gradientUnits="userSpaceOnUse" gradientTransform="translate(158.988 189.054) rotate(83.6408) scale(26.5937 21.196)">
<stop offset="0.5782" stop-color="#69B5B5"/>
<stop offset="0.6117" stop-color="#B3D4D4"/>
<stop offset="0.7509" stop-color="#C4D9D9"/>
<stop offset="0.9252" stop-color="#D7E6E6"/>
<stop offset="0.9385" stop-color="#D9E7E7"/>
</radialGradient>
<radialGradient id="paint16_radial_1797_8948" cx="0" cy="0" r="1" gradientUnits="userSpaceOnUse" gradientTransform="translate(284.21 193.758) rotate(96.3592) scale(18.615 14.8367)">
<stop offset="0.5782" stop-color="#69B5B5"/>
<stop offset="0.6117" stop-color="#B3D4D4"/>
<stop offset="0.7509" stop-color="#C4D9D9"/>
<stop offset="0.9252" stop-color="#D7E6E6"/>
<stop offset="0.9385" stop-color="#D9E7E7"/>
</radialGradient>
<radialGradient id="paint17_radial_1797_8948" cx="0" cy="0" r="1" gradientUnits="userSpaceOnUse" gradientTransform="translate(241.788 189.061) rotate(96.3592) scale(26.5937 21.196)">
<stop offset="0.5782" stop-color="#69B5B5"/>
<stop offset="0.6117" stop-color="#B3D4D4"/>
<stop offset="0.7509" stop-color="#C4D9D9"/>
<stop offset="0.9252" stop-color="#D7E6E6"/>
<stop offset="0.9385" stop-color="#D9E7E7"/>
</radialGradient>
<radialGradient id="paint18_radial_1797_8948" cx="0" cy="0" r="1" gradientUnits="userSpaceOnUse" gradientTransform="translate(199.703 153.481) scale(67.4255 57.5434)">
<stop offset="0.5251" stop-color="#69B5B5"/>
<stop offset="0.6117" stop-color="#B3D4D4"/>
<stop offset="0.7509" stop-color="#C4D9D9"/>
<stop offset="0.8717" stop-color="#D7E8E8"/>
<stop offset="0.9385" stop-color="#E4F2F2"/>
<stop offset="1" stop-color="#D0E1E1"/>
</radialGradient>
<linearGradient id="paint19_linear_1797_8948" x1="341.948" y1="215.824" x2="174.563" y2="216.285" gradientUnits="userSpaceOnUse">
<stop offset="0.8392" stop-color="white" stop-opacity="0"/>
<stop offset="0.8411" stop-color="#D3D2E4" stop-opacity="0.1781"/>
<stop offset="0.8441" stop-color="#928FBA" stop-opacity="0.468"/>
<stop offset="0.8466" stop-color="#625E9C" stop-opacity="0.7115"/>
<stop offset="0.8485" stop-color="#45408A" stop-opacity="0.896"/>
<stop offset="0.8496" stop-color="#3A3583"/>
</linearGradient>
<radialGradient id="paint20_radial_1797_8948" cx="0" cy="0" r="1" gradientUnits="userSpaceOnUse" gradientTransform="translate(200.295 246.918) scale(28.2413 28.2524)">
<stop offset="0.7631" stop-color="#4F8787"/>
<stop offset="0.7967" stop-color="#558B8B" stop-opacity="0.8584"/>
<stop offset="0.8431" stop-color="#679898" stop-opacity="0.6625"/>
<stop offset="0.897" stop-color="#85ACAC" stop-opacity="0.4349"/>
<stop offset="0.9561" stop-color="#ADC9C9" stop-opacity="0.1855"/>
<stop offset="1" stop-color="#D0E1E1" stop-opacity="0"/>
</radialGradient>
<radialGradient id="paint21_radial_1797_8948" cx="0" cy="0" r="1" gradientUnits="userSpaceOnUse" gradientTransform="translate(125.115 183.15) rotate(-2.17858) scale(42.3415 26.4204)">
<stop stop-color="#FF8742"/>
<stop offset="0.2499" stop-color="#E68724"/>
<stop offset="0.5773" stop-color="#C98600"/>
<stop offset="0.6232" stop-color="#C88905"/>
<stop offset="0.6778" stop-color="#C49013"/>
<stop offset="0.7369" stop-color="#BE9C2C"/>
<stop offset="0.7992" stop-color="#B6AE4D"/>
<stop offset="0.864" stop-color="#ABC478"/>
<stop offset="0.9308" stop-color="#9EDFAD"/>
<stop offset="0.9982" stop-color="#8FFEEA"/>
<stop offset="1" stop-color="#8FFFEC"/>
</radialGradient>
<radialGradient id="paint22_radial_1797_8948" cx="0" cy="0" r="1" gradientUnits="userSpaceOnUse" gradientTransform="translate(274.461 183.142) rotate(-177.821) scale(42.3414 26.4204)">
<stop stop-color="#FF8742"/>
<stop offset="0.2499" stop-color="#E68724"/>
<stop offset="0.5773" stop-color="#C98600"/>
<stop offset="0.6232" stop-color="#C88905"/>
<stop offset="0.6778" stop-color="#C49013"/>
<stop offset="0.7369" stop-color="#BE9C2C"/>
<stop offset="0.7992" stop-color="#B6AE4D"/>
<stop offset="0.864" stop-color="#ABC478"/>
<stop offset="0.9308" stop-color="#9EDFAD"/>
<stop offset="0.9982" stop-color="#8FFEEA"/>
<stop offset="1" stop-color="#8FFFEC"/>
</radialGradient>
<radialGradient id="paint23_radial_1797_8948" cx="0" cy="0" r="1" gradientUnits="userSpaceOnUse" gradientTransform="translate(116.143 181.435) rotate(79.7869) scale(10.7907 8.95701)">
<stop stop-color="#6661AC"/>
<stop offset="0.2636" stop-color="#4A4587"/>
<stop offset="0.5125" stop-color="#322E69"/>
<stop offset="1" stop-color="#383475"/>
</radialGradient>
<radialGradient id="paint24_radial_1797_8948" cx="0" cy="0" r="1" gradientUnits="userSpaceOnUse" gradientTransform="translate(284.635 181.443) rotate(100.213) scale(10.7907 8.95702)">
<stop stop-color="#6661AC"/>
<stop offset="0.2636" stop-color="#4A4587"/>
<stop offset="0.5125" stop-color="#322E69"/>
<stop offset="1" stop-color="#383475"/>
</radialGradient>
<radialGradient id="paint25_radial_1797_8948" cx="0" cy="0" r="1" gradientUnits="userSpaceOnUse" gradientTransform="translate(211.974 103.685) scale(84.1132 65.9499)">
<stop offset="0.0858" stop-color="white"/>
<stop offset="0.2639" stop-color="#FCFEFE"/>
<stop offset="0.3707" stop-color="#F4F9F9"/>
<stop offset="0.4586" stop-color="#E6F1F1"/>
<stop offset="0.5363" stop-color="#D2E5E5"/>
<stop offset="0.6066" stop-color="#B8D7D7"/>
<stop offset="0.6173" stop-color="#B3D4D4"/>
<stop offset="0.7174" stop-color="#C4D9D9"/>
<stop offset="1" stop-color="#D3E0E0"/>
</radialGradient>
<radialGradient id="paint26_radial_1797_8948" cx="0" cy="0" r="1" gradientUnits="userSpaceOnUse" gradientTransform="translate(201.185 83.0615) scale(34.9021 22.15)">
<stop offset="0.7575" stop-color="white" stop-opacity="0"/>
<stop offset="0.8291" stop-color="#BBBAD4" stop-opacity="0.3013"/>
<stop offset="0.9087" stop-color="#7673A9" stop-opacity="0.6364"/>
<stop offset="0.9661" stop-color="#4B468D" stop-opacity="0.8782"/>
<stop offset="0.995" stop-color="#3A3583"/>
</radialGradient>
<radialGradient id="paint27_radial_1797_8948" cx="0" cy="0" r="1" gradientUnits="userSpaceOnUse" gradientTransform="translate(201.007 131.233) rotate(89.9766) scale(50.3741 79.8618)">
<stop offset="0.6567" stop-color="white" stop-opacity="0"/>
<stop offset="0.7211" stop-color="white" stop-opacity="0.7"/>
<stop offset="0.8196" stop-color="white" stop-opacity="0"/>
</radialGradient>
<radialGradient id="paint28_radial_1797_8948" cx="0" cy="0" r="1" gradientUnits="userSpaceOnUse" gradientTransform="translate(191.657 148.389) rotate(0.263663) scale(102.75 26.9929)">
<stop offset="0.1547" stop-color="#6661AC"/>
<stop offset="0.3599" stop-color="#5F5BA4"/>
<stop offset="0.674" stop-color="#4E498F"/>
<stop offset="0.967" stop-color="#383475"/>
</radialGradient>
<radialGradient id="paint29_radial_1797_8948" cx="0" cy="0" r="1" gradientUnits="userSpaceOnUse" gradientTransform="translate(200.948 120.268) scale(67.1297 36.4524)">
<stop offset="0.165" stop-color="#0B0B52"/>
<stop offset="0.4702" stop-color="#0D0D54" stop-opacity="0.6345"/>
<stop offset="0.6222" stop-color="#15145C" stop-opacity="0.4525"/>
<stop offset="0.7403" stop-color="#222169" stop-opacity="0.311"/>
<stop offset="0.841" stop-color="#35327B" stop-opacity="0.1904"/>
<stop offset="0.9297" stop-color="#4D4993" stop-opacity="0.0842"/>
<stop offset="1" stop-color="#6661AC" stop-opacity="0"/>
</radialGradient>
<radialGradient id="paint30_radial_1797_8948" cx="0" cy="0" r="1" gradientUnits="userSpaceOnUse" gradientTransform="translate(200.983 102.994) rotate(89.9764) scale(52.1297 99.023)">
<stop offset="0.6462" stop-color="white" stop-opacity="0"/>
<stop offset="0.7302" stop-color="white" stop-opacity="0.5"/>
<stop offset="0.8187" stop-color="white" stop-opacity="0"/>
</radialGradient>
<linearGradient id="paint31_linear_1797_8948" x1="201.018" y1="160.359" x2="201.38" y2="190.971" gradientUnits="userSpaceOnUse">
<stop offset="0.3115" stop-color="white" stop-opacity="0"/>
<stop offset="0.3209" stop-color="#FCFFFF" stop-opacity="0.0137"/>
<stop offset="0.4648" stop-color="#D5FFF8" stop-opacity="0.2227"/>
<stop offset="0.6071" stop-color="#B7FFF3" stop-opacity="0.4293"/>
<stop offset="0.7455" stop-color="#A1FFEF" stop-opacity="0.6304"/>
<stop offset="0.8786" stop-color="#93FFED" stop-opacity="0.8236"/>
<stop offset="1" stop-color="#8FFFEC"/>
</linearGradient>
</defs>
</svg>
