<?xml version="1.0" encoding="UTF-8"?>
<svg version="1.1" xmlns="http://www.w3.org/2000/svg" width="5692" height="1833">
<path d="M0 0 C0.65307129 0.31694824 1.30614258 0.63389648 1.97900391 0.96044922 C23.43482409 11.51060908 43.8605052 26.77712384 58.5 45.8125 C58.97284424 46.42287109 59.44568848 47.03324219 59.93286133 47.66210938 C77.78526534 70.84372564 100.00181723 107.1920986 99.378479 137.52900696 C98.47060358 143.45629444 95.79713834 149.01296682 93.53515625 154.53515625 C92.95269378 155.98614025 92.37149176 157.43763076 91.79145813 158.8895874 C90.54808958 161.99456872 89.29625571 165.09594282 88.03753662 168.19473267 C86.03508589 173.12465762 84.05148789 178.06203065 82.07080078 183.00073242 C79.69479308 188.92177314 77.314557 194.8410753 74.9283371 200.758008 C71.07578085 210.31171538 67.25171711 219.87629041 63.45703125 229.453125 C63.20201151 230.09670393 62.94699177 230.74028286 62.68424416 231.40336418 C61.41623781 234.60402655 60.14895603 237.80497513 58.88204956 241.006073 C56.59585398 246.78180856 54.30389762 252.55525871 52.01238441 258.32888603 C51.24271027 260.26821405 50.47316369 262.20759263 49.70365906 264.14698792 C43.92335812 278.71501589 38.1389025 293.28139422 32.35461426 307.84783936 C23.35885329 330.5017122 14.36505407 353.15636176 5.375 375.8125 C5.11889954 376.45790741 4.86279907 377.10331482 4.59893799 377.76828003 C2.27797257 383.61744527 -0.04295024 389.46662741 -2.36383057 395.31582642 C-5.98977486 404.45410985 -9.61591102 413.59231713 -13.2421875 422.73046875 C-13.50019135 423.38063461 -13.75819519 424.03080048 -14.02401733 424.70066833 C-16.11018612 429.95777947 -18.19636623 435.21488611 -20.282547 440.47199249 C-22.10764086 445.07116995 -23.93272961 449.67034944 -25.7578125 454.26953125 C-26.01585663 454.91979782 -26.27390076 455.57006439 -26.5397644 456.24003601 C-30.16260768 465.36955298 -33.78525214 474.49914883 -37.40776825 483.62879562 C-48.71926292 512.1364968 -60.03388303 540.64295393 -71.35282898 569.14769745 C-79.77931457 590.36833491 -88.20373635 611.58978968 -96.625 632.8125 C-96.88110046 633.45790741 -97.13720093 634.10331482 -97.40106201 634.76828003 C-99.72202743 640.61744527 -102.04295024 646.46662741 -104.36383057 652.31582642 C-107.98977486 661.45410985 -111.61590993 670.59231756 -115.2421875 679.73046875 C-115.62925558 680.70587333 -115.62925558 680.70587333 -116.02414322 681.70098305 C-117.32792148 684.98647794 -118.63170294 688.27197155 -119.93548584 691.5574646 C-122.27996734 697.46549077 -124.62442049 703.37352819 -126.96887589 709.28156471 C-128.27091611 712.56271027 -129.57295814 715.8438551 -130.875 719.125 C-131.39583334 720.4375 -131.91666668 721.75 -132.4375 723.0625 C-133.47916667 725.6875 -134.52083333 728.3125 -135.5625 730.9375 C-135.82031187 731.58718593 -136.07812374 732.23687185 -136.34374809 732.90624523 C-136.86458775 734.21876114 -137.38542744 735.53127703 -137.90626717 736.84379292 C-139.20825404 740.1247994 -140.51024032 743.40580613 -141.81222534 746.68681335 C-144.15712648 752.59597143 -146.50203188 758.50512782 -148.84696007 764.41427517 C-150.15058056 767.69935933 -151.45419747 770.98444492 -152.7578125 774.26953125 C-153.01586796 774.91982615 -153.27392342 775.57012104 -153.53979874 776.24012184 C-157.16263053 785.36961022 -160.78526351 794.49917747 -164.40776825 803.62879562 C-175.71926292 832.1364968 -187.03388303 860.64295393 -198.35282898 889.14769745 C-206.77931457 910.36833491 -215.20373635 931.58978968 -223.625 952.8125 C-223.88110046 953.45790741 -224.13720093 954.10331482 -224.40106201 954.76828003 C-226.72202743 960.61744527 -229.04295024 966.46662741 -231.36383057 972.31582642 C-234.98977486 981.45410985 -238.61590993 990.59231756 -242.2421875 999.73046875 C-242.62925558 1000.70587333 -242.62925558 1000.70587333 -243.02414322 1001.70098305 C-244.32792148 1004.98647794 -245.63170294 1008.27197155 -246.93548584 1011.5574646 C-249.27996734 1017.46549077 -251.62442049 1023.37352819 -253.96887589 1029.28156471 C-255.27091611 1032.56271027 -256.57295814 1035.8438551 -257.875 1039.125 C-258.39583334 1040.4375 -258.91666668 1041.75 -259.4375 1043.0625 C-260.47916667 1045.6875 -261.52083333 1048.3125 -262.5625 1050.9375 C-262.82031187 1051.58718593 -263.07812374 1052.23687185 -263.34374809 1052.90624523 C-263.86458775 1054.21876114 -264.38542744 1055.53127703 -264.90626717 1056.84379292 C-266.20825404 1060.1247994 -267.51024032 1063.40580613 -268.81222534 1066.68681335 C-271.15712648 1072.59597143 -273.50203188 1078.50512782 -275.84696007 1084.41427517 C-277.15058056 1087.69935933 -278.45419747 1090.98444492 -279.7578125 1094.26953125 C-280.01586796 1094.91982615 -280.27392342 1095.57012104 -280.53979874 1096.24012184 C-284.16263053 1105.36961022 -287.78526351 1114.49917747 -291.40776825 1123.62879562 C-302.71926292 1152.1364968 -314.03388303 1180.64295393 -325.35282898 1209.14769745 C-333.77931457 1230.36833491 -342.20373635 1251.58978968 -350.625 1272.8125 C-350.88110046 1273.45790741 -351.13720093 1274.10331482 -351.40106201 1274.76828003 C-353.72202743 1280.61744527 -356.04295024 1286.46662741 -358.36383057 1292.31582642 C-361.98977486 1301.45410985 -365.61591102 1310.59231713 -369.2421875 1319.73046875 C-369.50019135 1320.38063461 -369.75819519 1321.03080048 -370.02401733 1321.70066833 C-372.11018612 1326.95777947 -374.19636623 1332.21488611 -376.282547 1337.47199249 C-378.10764086 1342.07116995 -379.93272961 1346.67034944 -381.7578125 1351.26953125 C-382.01585663 1351.91979782 -382.27390076 1352.57006439 -382.5397644 1353.24003601 C-386.16260768 1362.36955298 -389.78525214 1371.49914883 -393.40776825 1380.62879562 C-404.71926292 1409.1364968 -416.03388303 1437.64295393 -427.35282898 1466.14769745 C-435.26188745 1486.06528477 -443.16935657 1505.98350137 -451.07363892 1525.90298462 C-452.36365951 1529.15394047 -453.65375958 1532.40486477 -454.94388294 1535.65577984 C-459.89982286 1548.14407423 -464.8548199 1560.63274073 -469.80645752 1573.1227417 C-472.2109936 1579.18790935 -474.61616255 1585.25282599 -477.02143097 1591.31770325 C-477.8076493 1593.30026824 -478.59374491 1595.28288185 -479.37982178 1597.26550293 C-484.84376579 1611.04553589 -490.32067202 1624.82009154 -495.83984375 1638.578125 C-496.3023201 1639.73148849 -496.76479645 1640.88485199 -497.24128723 1642.07316589 C-499.39769313 1647.44981421 -501.55703689 1652.82524727 -503.72192383 1658.19848633 C-504.48708026 1660.10213952 -505.25166972 1662.00602071 -506.015625 1663.91015625 C-506.37362183 1664.8022731 -506.73161865 1665.69438995 -507.10046387 1666.61354065 C-509.1146278 1671.66858327 -510.99790514 1676.74445717 -512.77734375 1681.88671875 C-514.51756748 1686.8563037 -516.48375538 1691.31314219 -519.3125 1695.75 C-519.69857422 1696.37285889 -520.08464844 1696.99571777 -520.48242188 1697.63745117 C-523.92706621 1703.09264589 -527.76732012 1708.12996678 -532 1713 C-532.70898438 1713.83015625 -533.41796875 1714.6603125 -534.1484375 1715.515625 C-547.64821183 1730.95747213 -563.87797252 1742.6078797 -582 1752 C-582.74894531 1752.39541992 -583.49789062 1752.79083984 -584.26953125 1753.19824219 C-636.53735777 1780.52400058 -698.72939867 1786.24491853 -756.8125 1786.1875 C-758.50684174 1786.18659363 -758.50684174 1786.18659363 -760.2354126 1786.18566895 C-827.45342713 1786.08811878 -904.06733028 1776.51535295 -957 1731 C-957.95390625 1730.18015625 -958.9078125 1729.3603125 -959.890625 1728.515625 C-978.55196291 1712.12712305 -989.88965656 1692.90958532 -999 1670 C-999.46841309 1668.8258252 -999.93682617 1667.65165039 -1000.41943359 1666.44189453 C-1003.39889949 1658.96114659 -1006.34648065 1651.46797297 -1009.2890625 1643.97265625 C-1014.78182313 1629.98541683 -1020.3344873 1616.02196776 -1025.88315582 1602.0568428 C-1027.34278135 1598.38297208 -1028.80198943 1594.70893556 -1030.26123047 1591.03491211 C-1032.35105795 1585.77332131 -1034.4410117 1580.51178069 -1036.53112221 1575.25030231 C-1040.28727091 1565.79482878 -1044.04238028 1556.3389429 -1047.796875 1546.8828125 C-1048.07391518 1546.18505581 -1048.35095535 1545.48729912 -1048.63639069 1544.76839828 C-1050.03247006 1541.25220053 -1051.42853157 1537.73599567 -1052.82458496 1534.2197876 C-1055.35145303 1527.85544739 -1057.87848063 1521.49117052 -1060.40549469 1515.12688828 C-1061.81200285 1511.58459472 -1063.21850092 1508.04229716 -1064.625 1504.5 C-1065.18749995 1503.08333331 -1065.74999995 1501.66666665 -1066.3125 1500.25 C-1123.68749415 1355.75001473 -1123.68749415 1355.75001473 -1124.53124809 1353.62500477 C-1125.09375442 1352.20832219 -1125.65626078 1350.79163963 -1126.21876717 1349.37495708 C-1127.62492065 1345.83353391 -1129.03107357 1342.29211051 -1130.43722534 1338.75068665 C-1132.96962725 1332.37277887 -1135.5020331 1325.99487266 -1138.03446007 1319.61697483 C-1139.442247 1316.07147391 -1140.85003063 1312.52597168 -1142.2578125 1308.98046875 C-1142.53649296 1308.27861135 -1142.81517342 1307.57675396 -1143.10229874 1306.85362816 C-1147.01678429 1296.99496803 -1150.93108553 1287.13623474 -1154.84526825 1277.27745438 C-1157.35513611 1270.95578595 -1159.86505251 1264.6341368 -1162.375 1258.3125 C-1162.65172546 1257.61553009 -1162.92845093 1256.91856018 -1163.21356201 1256.20046997 C-1172.30633375 1233.29923744 -1181.40239468 1210.39931275 -1190.5 1187.5 C-1202.66676101 1156.87540643 -1214.82900618 1126.24902201 -1226.98883057 1095.62167358 C-1230.90645455 1085.75422861 -1234.82425494 1075.8868537 -1238.7421875 1066.01953125 C-1239.02085789 1065.31769903 -1239.29952827 1064.61586681 -1239.58664322 1063.89276695 C-1240.99458834 1060.34685547 -1242.40253642 1056.80094517 -1243.81048584 1053.2550354 C-1246.34246601 1046.87825871 -1248.8744199 1040.50147158 -1251.40637589 1034.12468529 C-1252.81258286 1030.5831231 -1254.21879151 1027.04156158 -1255.625 1023.5 C-1256.18750001 1022.08333334 -1256.75000001 1020.66666667 -1257.3125 1019.25 C-1257.5909375 1018.54875 -1257.869375 1017.8475 -1258.15625 1017.125 C-1314.6875035 874.74999118 -1314.6875035 874.74999118 -1315.53124809 872.62500477 C-1316.09375442 871.20832219 -1316.65626078 869.79163963 -1317.21876717 868.37495708 C-1318.62492065 864.83353391 -1320.03107357 861.29211051 -1321.43722534 857.75068665 C-1323.96962725 851.37277887 -1326.5020331 844.99487266 -1329.03446007 838.61697483 C-1330.442247 835.07147391 -1331.85003063 831.52597168 -1333.2578125 827.98046875 C-1333.53649296 827.27861135 -1333.81517342 826.57675396 -1334.10229874 825.85362816 C-1338.01678429 815.99496803 -1341.93108553 806.13623474 -1345.84526825 796.27745438 C-1348.35513611 789.95578595 -1350.86505251 783.6341368 -1353.375 777.3125 C-1353.65172546 776.61553009 -1353.92845093 775.91856018 -1354.21356201 775.20046997 C-1363.30633375 752.29923744 -1372.40239468 729.39931275 -1381.5 706.5 C-1393.66676101 675.87540643 -1405.82900618 645.24902201 -1417.98883057 614.62167358 C-1421.90645455 604.75422861 -1425.82425494 594.8868537 -1429.7421875 585.01953125 C-1430.02085789 584.31769903 -1430.29952827 583.61586681 -1430.58664322 582.89276695 C-1431.99458834 579.34685547 -1433.40253642 575.80094517 -1434.81048584 572.2550354 C-1437.34246601 565.87825871 -1439.8744199 559.50147158 -1442.40637589 553.12468529 C-1443.81258286 549.5831231 -1445.21879151 546.04156158 -1446.625 542.5 C-1447.18750001 541.08333334 -1447.75000001 539.66666667 -1448.3125 538.25 C-1448.5909375 537.54875 -1448.869375 536.8475 -1449.15625 536.125 C-1505.68750175 393.74999559 -1505.68750175 393.74999559 -1506.53124809 391.62500477 C-1507.09375442 390.20832219 -1507.65626078 388.79163963 -1508.21876717 387.37495708 C-1509.62492065 383.83353391 -1511.03107357 380.29211051 -1512.43722534 376.75068665 C-1514.96962725 370.37277887 -1517.5020331 363.99487266 -1520.03446007 357.61697483 C-1521.442247 354.07147391 -1522.85003063 350.52597168 -1524.2578125 346.98046875 C-1524.53649296 346.27861135 -1524.81517342 345.57675396 -1525.10229874 344.85362816 C-1529.01667528 334.99524257 -1532.93086793 325.13678399 -1536.84494209 315.27827835 C-1543.89599128 297.51859936 -1550.94766386 279.75916799 -1558 262 C-1558.31213692 261.21397148 -1558.62427383 260.42794296 -1558.94586945 259.6180954 C-1563.22085631 248.85277133 -1567.49621006 238.08759306 -1571.77203369 227.32260132 C-1573.33481951 223.38803773 -1574.89739705 219.45339147 -1576.45991039 215.51871967 C-1577.34594302 213.28771877 -1578.23216516 211.05679322 -1579.11842346 208.82588196 C-1580.23905905 206.00495402 -1581.35889051 203.18370887 -1582.47813416 200.36222839 C-1584.80561208 194.49791214 -1587.14054778 188.63714612 -1589.51831055 182.79296875 C-1590.07546501 181.41908997 -1590.07546501 181.41908997 -1590.64387512 180.01745605 C-1591.29799804 178.40792998 -1591.95614808 176.80002937 -1592.61991882 175.19445801 C-1603.88332568 147.45328541 -1601.6715918 116.08034035 -1590.55688477 88.70117188 C-1583.42370638 71.98080995 -1573.06405916 57.68870333 -1560.51855469 44.59033203 C-1559.48375467 43.50662024 -1558.45601111 42.41613669 -1557.43457031 41.31982422 C-1523.70597542 5.17329921 -1469.88120865 -18.48684419 -1420.5859375 -20.21484375 C-1389.75924934 -20.92392275 -1355.25357078 -14.7487172 -1332 7 C-1331.02933594 7.85464844 -1330.05867188 8.70929687 -1329.05859375 9.58984375 C-1299.34879733 35.85364648 -1282.15209831 69.96973687 -1267.79264069 106.3702507 C-1266.43664427 109.79984108 -1265.06718696 113.2240484 -1263.69873047 116.64868164 C-1261.76175115 121.49876928 -1259.82811295 126.35015711 -1257.89957237 131.20360661 C-1253.73398979 141.68614333 -1249.51268348 152.14578002 -1245.27514648 162.59942627 C-1243.36036841 167.32428648 -1241.45004118 172.05094592 -1239.5390625 176.77734375 C-1238.78550494 178.64047161 -1238.03192422 180.5035901 -1237.27832031 182.36669922 C-1233.74902648 191.09264734 -1230.22166204 199.8193755 -1226.6940918 208.54602051 C-1224.71017994 213.45388016 -1222.72618925 218.36170794 -1220.7421875 223.26953125 C-1220.15380096 224.72502884 -1220.15380096 224.72502884 -1219.55352783 226.20993042 C-1217.19880922 232.03475112 -1214.84389796 237.85949389 -1212.48883057 243.68417358 C-1203.3774107 266.21905403 -1194.27068018 288.75582036 -1185.16955566 311.29486084 C-1176.56627916 332.60071506 -1167.95570007 353.90361176 -1159.34277344 375.20556641 C-1154.99797533 385.95147062 -1150.65403952 396.69772346 -1146.30993652 407.44390869 C-1145.12069205 410.38578498 -1143.93144201 413.32765902 -1142.7421875 416.26953125 C-1142.15377075 417.72510437 -1142.15377075 417.72510437 -1141.5534668 419.21008301 C-1139.19876761 425.03485247 -1136.84387743 430.85954468 -1134.48883057 436.68417358 C-1125.3774107 459.21905403 -1116.27068018 481.75582036 -1107.16955566 504.29486084 C-1098.56627916 525.60071506 -1089.95570007 546.90361176 -1081.34277344 568.20556641 C-1077.79129312 576.98937324 -1074.24043127 585.77343008 -1070.68951416 594.5574646 C-1068.70970062 599.45498631 -1066.72984838 604.35249237 -1064.75 609.25 C-1063.95833315 611.20833326 -1063.16666648 613.16666659 -1062.375 615.125 C-1061.983125 616.094375 -1061.59125 617.06375 -1061.1875 618.0625 C-1057.62500033 626.87499919 -1057.62500033 626.87499919 -1056.43746948 629.81257629 C-1055.64590529 631.77065561 -1054.85434034 633.72873464 -1054.06277466 635.68681335 C-1052.0820341 640.58653061 -1050.10130653 645.48625311 -1048.12060547 650.38598633 C-1044.57690272 659.15213861 -1041.03311559 667.91825671 -1037.48883057 676.68417358 C-1028.3774107 699.21905403 -1019.27068018 721.75582036 -1010.16955566 744.29486084 C-1001.56627916 765.60071506 -992.95570007 786.90361176 -984.34277344 808.20556641 C-979.99797533 818.95147062 -975.65403952 829.69772346 -971.30993652 840.44390869 C-970.12069205 843.38578498 -968.93144201 846.32765902 -967.7421875 849.26953125 C-967.15377075 850.72510437 -967.15377075 850.72510437 -966.5534668 852.21008301 C-964.19876761 858.03485247 -961.84387743 863.85954468 -959.48883057 869.68417358 C-950.3774107 892.21905403 -941.27068018 914.75582036 -932.16955566 937.29486084 C-923.56627916 958.60071506 -914.95570007 979.90361176 -906.34277344 1001.20556641 C-902.79129312 1009.98937324 -899.24043127 1018.77343008 -895.68951416 1027.5574646 C-893.70970062 1032.45498631 -891.72984838 1037.35249237 -889.75 1042.25 C-888.95833315 1044.20833326 -888.16666648 1046.16666659 -887.375 1048.125 C-886.983125 1049.094375 -886.59125 1050.06375 -886.1875 1051.0625 C-882.62500029 1059.87499929 -882.62500029 1059.87499929 -881.43746948 1062.81257629 C-880.64590529 1064.77065561 -879.85434034 1066.72873464 -879.06277466 1068.68681335 C-877.0820341 1073.58653061 -875.10130653 1078.48625311 -873.12060547 1083.38598633 C-869.57690272 1092.15213861 -866.03311559 1100.91825671 -862.48883057 1109.68417358 C-853.3774107 1132.21905403 -844.27068018 1154.75582036 -835.16955566 1177.29486084 C-826.56627916 1198.60071506 -817.95570007 1219.90361176 -809.34277344 1241.20556641 C-806.98091047 1247.04711591 -804.61932527 1252.88877767 -802.2578125 1258.73046875 C-801.66891991 1260.18719749 -801.66891991 1260.18719749 -801.06813049 1261.6733551 C-799.09047247 1266.56547522 -797.11290849 1271.45763332 -795.13549805 1276.34985352 C-791.11707798 1286.29134024 -787.09704148 1296.23216894 -783.07421875 1306.171875 C-778.74633851 1316.8660105 -774.42349529 1327.56217121 -770.10583496 1338.26043701 C-769.00755928 1340.98127287 -767.90858233 1343.70182478 -766.80957031 1346.42236328 C-765.1172274 1350.61302099 -763.42870257 1354.80519692 -761.74331665 1358.99865723 C-761.12827573 1360.52753832 -760.51206556 1362.05594962 -759.8946228 1363.5838623 C-759.05799875 1365.65487576 -758.22567066 1367.72756186 -757.39453125 1369.80078125 C-756.92893799 1370.95747314 -756.46334473 1372.11416504 -755.98364258 1373.3059082 C-755 1376 -755 1376 -755 1378 C-754.34 1378 -753.68 1378 -753 1378 C-752.66226563 1376.7315625 -752.32453125 1375.463125 -751.9765625 1374.15625 C-749.70303227 1366.59722517 -746.54319651 1359.39561035 -743.48251343 1352.13012695 C-741.55380809 1347.54983044 -739.64290565 1342.96210745 -737.73046875 1338.375 C-737.33525528 1337.42798218 -736.94004181 1336.48096436 -736.53285217 1335.50524902 C-732.51517994 1325.86468181 -728.59343947 1316.1862594 -724.6875 1306.5 C-723.26867211 1302.98419609 -721.84933851 1299.46859662 -720.4296875 1295.953125 C-720.07122238 1295.06538391 -719.71275726 1294.17764282 -719.34342957 1293.26300049 C-715.02703748 1282.58089104 -710.66986709 1271.915445 -706.3125 1261.25 C-704.62105506 1257.1093908 -702.92965268 1252.96876422 -701.23828125 1248.828125 C-700.81187851 1247.78430664 -700.38547577 1246.74048828 -699.94615173 1245.66503906 C-694.95576831 1233.44675443 -689.97809989 1221.2232931 -685 1209 C-677.59809767 1190.82634738 -670.18821879 1172.65597509 -662.77050781 1154.48876953 C-656.17264519 1138.32897674 -649.58411187 1122.16539992 -643 1106 C-635.59795701 1087.8264046 -628.18821884 1069.65597522 -620.77050781 1051.48876953 C-614.17264519 1035.32897674 -607.58411187 1019.16539992 -601 1003 C-593.59795701 984.8264046 -586.18821884 966.65597522 -578.77050781 948.48876953 C-572.17264519 932.32897674 -565.58411187 916.16539992 -559 900 C-551.59795701 881.8264046 -544.18821884 863.65597522 -536.77050781 845.48876953 C-530.17264519 829.32897674 -523.58411187 813.16539992 -517 797 C-510.00692254 779.83050226 -503.00782427 762.66348407 -496 745.5 C-489.03473163 728.4403224 -482.0766454 711.37773348 -475.125 694.3125 C-474.44005463 692.63107407 -474.44005463 692.63107407 -473.74127197 690.91567993 C-470.49394977 682.94388093 -467.24693949 674.97195489 -464 667 C-460.29188053 657.89574621 -456.58362358 648.79154845 -452.875 639.6875 C-452.41820862 638.56614655 -451.96141724 637.44479309 -451.49078369 636.28945923 C-444.59108071 619.35248004 -437.68306844 602.41890705 -430.7699585 585.48739624 C-424.17227642 569.32806224 -417.5839259 553.16494334 -411 537 C-403.59795701 518.8264046 -396.18821884 500.65597522 -388.77050781 482.48876953 C-382.17264519 466.32897674 -375.58411187 450.16539992 -369 434 C-361.59795701 415.8264046 -354.18821884 397.65597522 -346.77050781 379.48876953 C-340.17264519 363.32897674 -333.58411187 347.16539992 -327 331 C-319.59795701 312.8264046 -312.18821884 294.65597522 -304.77050781 276.48876953 C-298.17264519 260.32897674 -291.58411187 244.16539992 -285 228 C-277.60000285 209.83142758 -270.19286288 191.66579443 -262.77655029 173.50387573 C-257.48262058 160.53930342 -252.19512237 147.57213772 -246.9158783 134.60157776 C-244.55167402 128.79326875 -242.18628898 122.9854478 -239.81762695 117.17895508 C-239.36387192 116.06662003 -238.91011688 114.95428497 -238.44261169 113.8082428 C-237.54794438 111.61513474 -236.65322078 109.42204964 -235.75843811 107.22898865 C-233.42716545 101.51195115 -231.10545395 95.79123463 -228.79708862 90.06491089 C-218.62374079 64.83494495 -208.15022447 41.26445966 -189.16015625 21.28125 C-187.35102433 19.370702 -185.70113445 17.42912866 -184.0625 15.375 C-179.98798554 10.57943382 -174.95145786 6.84153375 -170 3 C-169.13246094 2.31679688 -168.26492188 1.63359375 -167.37109375 0.9296875 C-120.56091765 -34.64883681 -49.82959798 -24.36035863 0 0 Z " fill="#1B72A4" transform="translate(1609,34)"/>
<path d="M0 0 C0.98709961 0.44730469 1.97419922 0.89460937 2.99121094 1.35546875 C38.98130773 17.77776634 72.72020353 38.83001218 104 63 C104.8957373 63.68739258 104.8957373 63.68739258 105.80957031 64.38867188 C118.56616349 74.19074075 130.6998267 84.65239839 142.48486328 95.59814453 C144.05484604 97.0507454 145.63375773 98.49309092 147.21484375 99.93359375 C156.5739391 108.47758253 165.86438564 117.14432147 174.08984375 126.8046875 C176.68270679 129.78462416 179.37444056 132.66854665 182.0625 135.5625 C194 148.4597248 194 148.4597248 194 151 C194.59167969 151.26554688 195.18335937 151.53109375 195.79296875 151.8046875 C202.3238438 155.34176319 207.22344857 162.43490972 212 168 C212.88354655 169.00831053 213.76770766 170.01608274 214.65234375 171.0234375 C274.40243756 239.41089184 312.79038016 326.05034899 353 532 C353.10441406 533.24297852 353.20882812 534.48595703 353.31640625 535.76660156 C360.26327422 621.39334443 351.54916704 703.78221796 306 825 C305.72329468 825.6144397 305.44658936 826.22887939 305.16149902 826.86193848 C297.46099938 843.96040098 289.3553087 860.73184643 280 877 C279.41025391 878.03125 278.82050781 879.0625 278.21289062 880.125 C261.56989446 909.0993353 243.02812863 937.00785413 222 963 C221.44666992 963.68481445 220.89333984 964.36962891 220.32324219 965.07519531 C213.79489031 973.13199622 207.18850874 981.06282335 200.14453125 988.67578125 C198.30467937 990.66979194 196.51791393 992.69255178 194.75 994.75 C186.39923026 1004.32710656 177.59036883 1013.49980396 168.625 1022.5 C167.98377197 1023.14582031 167.34254395 1023.79164062 166.68188477 1024.45703125 C162.89327563 1028.2334238 158.98562548 1031.81168746 154.9375 1035.30761719 C151.94760875 1037.91925103 149.07495408 1040.65136423 146.1875 1043.375 C141.19589254 1048.04558016 136.09756213 1052.49617477 130.7578125 1056.76953125 C128.27261825 1058.7795113 125.8418371 1060.84157094 123.42138672 1062.92871094 C116.2228072 1069.12014474 108.73586119 1074.85673499 101.08154297 1080.47167969 C99.06053777 1081.95555168 97.04778218 1083.45010556 95.03515625 1084.9453125 C54.12629836 1115.1174889 10.88365144 1141.57065433 -37 1159 C-37.63143921 1159.23031921 -38.26287842 1159.46063843 -38.91345215 1159.69793701 C-82.12345526 1175.39097431 -127.33764724 1185.17104824 -172.91601562 1190.74285889 C-174.89813523 1190.98743099 -176.87880798 1191.24364602 -178.859375 1191.50048828 C-222.01296883 1196.91147444 -268.90083416 1196.72310468 -312 1191 C-313.35137668 1190.82648045 -314.70277699 1190.65314489 -316.05419922 1190.47998047 C-407.20961143 1178.61978546 -491.60327705 1145.18126396 -587 1080 C-587.61713867 1079.54737793 -588.23427734 1079.09475586 -588.87011719 1078.62841797 C-607.88743937 1064.65120576 -626.03114136 1049.58898053 -643.32495117 1033.53149414 C-644.58572329 1032.37877246 -645.85888889 1031.2395837 -647.13793945 1030.10717773 C-653.6694182 1024.31374886 -659.89211945 1018.26227738 -666.05102539 1012.0793457 C-667.69239796 1010.43258596 -669.33908819 1008.79127905 -670.98632812 1007.15039062 C-676.53565056 1001.6045672 -681.90448917 995.96927563 -687 990 C-688.61967817 988.22429779 -690.24411718 986.45291693 -691.875 984.6875 C-695.91402153 980.25368689 -699.77506878 975.71945416 -703.5390625 971.05078125 C-705.33280236 968.82711326 -707.13872383 966.61801522 -708.9609375 964.41796875 C-733.05893314 935.2344293 -752.35517391 903.46409226 -769.55615234 869.81591797 C-770.92692954 867.14250841 -772.31550318 864.47905635 -773.70703125 861.81640625 C-803.33842047 804.53339298 -822.61892649 741.33260783 -834 678 C-834.20318848 676.87335937 -834.40637695 675.74671875 -834.61572266 674.5859375 C-837.09567591 660.50620292 -838.70265048 646.33759187 -840.1875 632.125 C-840.2724472 631.32050415 -840.35739441 630.5160083 -840.44491577 629.68713379 C-842.46078487 610.38910658 -843.21059988 591.14834109 -843.1875 571.75 C-843.18689575 570.79845032 -843.1862915 569.84690063 -843.18566895 568.86651611 C-843.06090463 495.81396374 -828.53373482 425.67948804 -804 357 C-803.76990234 356.3535553 -803.53980469 355.7071106 -803.30273438 355.04107666 C-786.68553919 308.42713485 -763.8992176 264.48932035 -737 223 C-736.30648437 221.93007813 -735.61296875 220.86015625 -734.8984375 219.7578125 C-721.7182569 199.74346418 -707.44060623 180.33040777 -692 162 C-691.13390387 160.95981082 -690.26803127 159.91943551 -689.40234375 158.87890625 C-683.99862896 152.4115058 -678.4428543 146.12030808 -672.703125 139.94921875 C-671.31047059 138.44902345 -669.94765054 136.93833325 -668.62280273 135.37768555 C-662.94983946 128.69945494 -656.72285255 122.57224781 -650.52124023 116.39086914 C-648.56704376 114.4420313 -646.61824853 112.48790728 -644.66992188 110.53320312 C-638.61490165 104.47499341 -632.54561995 98.53259511 -626 93 C-624.4551874 91.5867645 -622.91304675 90.17059591 -621.375 88.75 C-616.3366772 84.20397134 -611.05533332 80.03688247 -605.6953125 75.8828125 C-603.22812008 73.96881394 -600.78774105 72.02732797 -598.3671875 70.0546875 C-589.20419387 62.59157705 -579.75105623 55.67451977 -570 49 C-569.27941406 48.505 -568.55882813 48.01 -567.81640625 47.5 C-556.15941423 39.52088247 -544.20301771 32.11309835 -532 25 C-531.31760254 24.60216309 -530.63520508 24.20432617 -529.93212891 23.79443359 C-525.32617624 21.12527188 -520.67460556 18.54666775 -516 16 C-515.20416504 15.56252441 -514.40833008 15.12504883 -513.58837891 14.67431641 C-437.3793998 -27.00088468 -346.65936843 -50.63870149 0 0 Z M-304 253 C-305.4526123 253.55518311 -305.4526123 253.55518311 -306.93457031 254.12158203 C-341.03187983 267.26931668 -373.08820415 284.20699351 -401 308 C-402.09574764 308.91088636 -403.1921373 309.8210008 -404.2890625 310.73046875 C-415.67801657 320.24569451 -426.57010884 330.51304835 -436 342 C-436.40331543 342.47888672 -436.80663086 342.95777344 -437.22216797 343.45117188 C-479.84009363 394.14839727 -503.64398534 459.03204347 -510.72363281 524.46289062 C-510.90576211 526.13487623 -511.1001411 527.80557953 -511.30761719 529.47460938 C-515.24168418 561.36909574 -514.45147273 594.87387027 -510.41015625 626.71289062 C-510.01321268 629.89410985 -509.67052739 633.07651978 -509.34375 636.265625 C-503.29548167 693.08811859 -479.45346529 746.42400563 -444 791 C-443.26652344 791.92425781 -442.53304687 792.84851562 -441.77734375 793.80078125 C-437.45775959 799.15765835 -432.97882967 804.33924953 -428.3359375 809.41796875 C-426.45264529 811.49966799 -424.61624766 813.60736027 -422.78515625 815.734375 C-418.73546834 820.3716583 -414.4255139 824.72157731 -410.0625 829.0625 C-409.30259766 829.82626953 -408.54269531 830.59003906 -407.75976562 831.37695312 C-362.63610616 876.423544 -303.62428879 900.2008551 -239.9375 900.25 C-239.14720398 900.25067474 -238.35690796 900.25134949 -237.54266357 900.25204468 C-211.46190472 900.21691134 -184.04262309 897.87382272 -160 887 C-159.25492188 886.6690332 -158.50984375 886.33806641 -157.7421875 885.99707031 C-138.97934389 877.60819705 -121.37974431 867.42435364 -105 855 C-104.13084961 854.34499512 -104.13084961 854.34499512 -103.24414062 853.67675781 C-95.73575154 847.99019705 -88.61846315 842.00595455 -81.75 835.5625 C-79.27320706 833.25457931 -76.74771258 831.02673791 -74.1875 828.8125 C-70.80492959 825.81720062 -67.8225792 822.67178353 -64.9140625 819.21875 C-63.53409658 817.61911603 -62.10553303 816.06095827 -60.6484375 814.53125 C-47.81384737 801.05303736 -36.9398918 785.70764481 -27 770 C-26.63777344 769.43104004 -26.27554688 768.86208008 -25.90234375 768.27587891 C9.45535902 712.30869079 29.293547 647.43152516 29.1875 581.1875 C29.18656342 580.42310608 29.18562683 579.65871216 29.18466187 578.87115479 C29.0440531 525.50770227 17.90735548 472.07754311 -2.79003906 422.91113281 C-3.96816521 420.07659362 -5.09737537 417.22763146 -6.2109375 414.3671875 C-13.92540489 394.67178655 -23.26703017 375.94688964 -36 359 C-36.45761719 358.38833984 -36.91523438 357.77667969 -37.38671875 357.14648438 C-42.83169839 349.92464164 -48.57617251 343.08231969 -54.73046875 336.453125 C-56.72469454 334.29757629 -58.65283403 332.10513865 -60.5625 329.875 C-66.83558726 322.67420266 -73.73143205 316.17828276 -81 310 C-82.39992188 308.78376953 -82.39992188 308.78376953 -83.828125 307.54296875 C-124.37878793 272.49989507 -173.95292168 244.3058663 -228.8984375 243.76171875 C-229.72304977 243.75197021 -230.54766205 243.74222168 -231.39726257 243.73217773 C-256.11109389 243.50038008 -280.63366501 243.9360677 -304 253 Z " fill="#714B8F" transform="translate(4075,626)"/>
<path d="M0 0 C9.62209903 9.42073158 17.74231774 19.88030055 25.7265625 30.69042969 C26.4071875 31.60824219 27.0878125 32.52605469 27.7890625 33.47167969 C55.75744118 72.31665008 72.52395383 121.94865897 65.5390625 170.03417969 C59.37454599 207.34917856 45.27819745 246.69095825 13.50634766 269.67724609 C-16.37384309 290.16493585 -59.23996923 295.21127565 -94.4765625 289.49511719 C-119.43848116 284.20483402 -141.8734211 273.46869763 -164.61053467 262.25817871 C-191.85486369 248.84358817 -219.83735951 237.31917153 -248.2734375 226.69042969 C-249.41731934 226.25923828 -250.56120117 225.82804687 -251.73974609 225.38378906 C-295.72639705 208.88166558 -342.10590738 195.92675745 -388.98950195 191.42724609 C-394.55925625 190.86123293 -399.98225814 189.83055527 -405.4609375 188.69042969 C-452.53649397 178.95496725 -502.36314592 182.69892814 -543.38305664 209.25073242 C-548.81047619 212.89761201 -553.60813091 217.12594505 -558.2734375 221.69042969 C-558.79550781 222.13902344 -559.31757813 222.58761719 -559.85546875 223.04980469 C-569.74231837 234.48913483 -571.19245657 253.264064 -570.4375 267.61767578 C-569.09883279 284.5303017 -559.87535264 297.06177977 -547.69140625 308.01074219 C-538.20131469 315.87182591 -527.60603187 321.14320335 -516.3984375 326.12792969 C-515.40102036 326.57437836 -515.40102036 326.57437836 -514.38345337 327.02984619 C-435.80014965 362.18136126 -353.98289036 390.14874677 -251.22265625 414.82324219 C-176.4224012 430.4579665 -104.90340294 462.94821811 -44.2734375 509.69042969 C-43.73009766 510.10760254 -43.18675781 510.52477539 -42.62695312 510.95458984 C-20.67919434 527.8408501 0.86809799 546.44908423 18.7265625 567.69042969 C19.88285156 569.01300781 19.88285156 569.01300781 21.0625 570.36230469 C39.42848877 591.47818882 55.94483045 614.77098813 68.7265625 639.69042969 C69.2304248 640.67221191 69.73428711 641.65399414 70.25341797 642.66552734 C87.98056491 677.57133937 99.36392373 714.11209437 105.7265625 752.69042969 C105.90590332 753.74294922 106.08524414 754.79546875 106.27001953 755.87988281 C111.55137062 788.24979239 111.18739449 824.37828726 105.7265625 856.69042969 C105.55495605 857.74375488 105.38334961 858.79708008 105.20654297 859.88232422 C97.7473879 904.6705842 83.18429522 949.75877213 57.7265625 987.69042969 C57.25541016 988.39522461 56.78425781 989.10001953 56.29882812 989.82617188 C38.87873183 1015.65396485 17.49903114 1040.68283074 -7.2734375 1059.69042969 C-8.60842106 1060.76259693 -9.94159993 1061.83701327 -11.2734375 1062.91308594 C-21.79546145 1071.34862582 -32.69698812 1078.7813269 -44.2734375 1085.69042969 C-45.24168457 1086.2748584 -45.24168457 1086.2748584 -46.22949219 1086.87109375 C-103.96429317 1121.48757506 -170.98236814 1136.26244213 -237.69433594 1138.22875977 C-246.16426762 1138.51628978 -254.53469814 1139.24061457 -262.9609375 1140.12792969 C-318.85558809 1145.79779876 -376.25514702 1145.69257666 -432.2734375 1141.69042969 C-433.20859192 1141.62490906 -434.14374634 1141.55938843 -435.10723877 1141.49188232 C-532.5157803 1134.63987813 -629.6975307 1118.92130987 -788.2734375 1066.69042969 C-789.59939941 1066.06031982 -789.59939941 1066.06031982 -790.95214844 1065.41748047 C-816.05497753 1053.40073747 -839.34502912 1039.08384775 -860.2734375 1020.69042969 C-860.96179687 1020.11292969 -861.65015625 1019.53542969 -862.359375 1018.94042969 C-893.96389935 992.269945 -916.24809387 955.82407863 -919.8984375 914.19042969 C-922.14515344 879.63185361 -914.48805562 840.89102884 -891.77734375 813.70214844 C-889.04184031 810.59947657 -886.18475589 807.62774199 -883.2734375 804.69042969 C-881.9740625 803.37171875 -881.9740625 803.37171875 -880.6484375 802.02636719 C-858.09017802 780.34089751 -825.31449325 771.55895649 -794.66796875 771.52246094 C-793.66746994 771.51913254 -792.66697113 771.51580414 -791.63615417 771.51237488 C-789.52249608 771.5073349 -787.40883011 771.50496564 -785.29516602 771.50512695 C-782.13999391 771.5029667 -778.98518734 771.48485231 -775.83007812 771.46582031 C-757.70860798 771.41451136 -739.76778904 772.55291524 -721.8984375 775.69042969 C-720.13052856 775.99920044 -720.13052856 775.99920044 -718.3269043 776.31420898 C-689.55615706 781.5963024 -661.10555782 789.51841246 -633.46484375 799.02246094 C-557.13972442 825.19687742 -475.78539301 839.9700068 -395.4609375 846.37792969 C-394.31638596 846.46947327 -394.31638596 846.46947327 -393.14871216 846.56286621 C-371.6039641 848.26122202 -350.1347694 848.8956228 -328.5234375 848.87792969 C-326.643078 848.87752182 -326.643078 848.87752182 -324.72473145 848.87710571 C-306.39025981 848.85885941 -288.17095542 848.57860043 -269.89697266 847.00244141 C-267.39003035 846.78657614 -264.88173444 846.58608244 -262.37255859 846.39794922 C-238.53930843 844.6093541 -216.18473547 840.30993958 -199.2734375 821.69042969 C-191.21394951 810.76140971 -188.84204285 800.2013571 -190.671875 786.76464844 C-192.31359653 779.22765414 -196.1116011 774.28476968 -201.2734375 768.69042969 C-201.84707031 768.036875 -202.42070312 767.38332031 -203.01171875 766.70996094 C-244.38487508 722.217764 -317.28832408 703.45424651 -373.58666992 686.49969482 C-376.25807812 685.69505599 -378.92893623 684.88861789 -381.59960938 684.08154297 C-388.73009406 681.92676531 -395.86091132 679.77309697 -402.99267578 677.62255859 C-423.46145482 671.44574648 -443.87448369 665.09363646 -464.2734375 658.69042969 C-465.38503235 658.34173828 -466.4966272 657.99304687 -467.64190674 657.63378906 C-669.22352222 594.38473295 -669.22352222 594.38473295 -702.19921875 572.63574219 C-705.84557827 570.32838889 -709.62029858 568.39956758 -713.4609375 566.44042969 C-736.42780968 554.54886064 -757.46845629 537.94659874 -776.3515625 520.38964844 C-779.06221779 517.88555378 -781.8161736 515.44116124 -784.5859375 513.00292969 C-788.23327279 509.73431132 -791.48298904 506.31898625 -794.63671875 502.57714844 C-796.22959475 500.74096919 -797.89855906 499.06373936 -799.6484375 497.37792969 C-804.26699542 492.82108969 -808.24615498 487.76772977 -812.2734375 482.69042969 C-813.03398437 481.74683594 -813.79453125 480.80324219 -814.578125 479.83105469 C-848.63637936 436.7278213 -871.63980037 384.968567 -880.2734375 330.69042969 C-880.43714844 329.67078125 -880.60085937 328.65113281 -880.76953125 327.60058594 C-887.61359593 282.294009 -884.12776306 234.4176061 -875.2734375 189.69042969 C-875.06912109 188.63291504 -874.86480469 187.57540039 -874.65429688 186.48583984 C-863.35640816 129.19837079 -837.35264808 73.75093697 -800.2734375 28.69042969 C-799.82790527 28.14725098 -799.38237305 27.60407227 -798.92333984 27.04443359 C-789.65630446 15.79660691 -779.79973342 5.14559536 -769.5234375 -5.18457031 C-768.92176758 -5.79091309 -768.32009766 -6.39725586 -767.70019531 -7.02197266 C-763.38915572 -11.31769144 -758.90119718 -15.35846899 -754.2734375 -19.30957031 C-753.63470703 -19.85500488 -752.99597656 -20.40043945 -752.33789062 -20.96240234 C-731.70318633 -38.44139478 -709.85775931 -53.65373662 -685.38867188 -65.29248047 C-683.1237906 -66.38152656 -680.87855682 -67.5058423 -678.6328125 -68.63378906 C-616.54832528 -99.47102229 -547.88418099 -111.12664351 -479.2734375 -114.30957031 C-478.2117334 -114.36209961 -477.1500293 -114.41462891 -476.05615234 -114.46875 C-392.68693654 -118.56910093 -308.5204097 -117.55932778 0 0 Z " fill="#4F5B97" transform="translate(3071.2734375,673.3095703125)"/>
<path d="M0 0 C77.65597383 -1.41428394 155.04891792 12.16410728 287.92431641 70.06640625 C289.26333008 70.86280518 289.26333008 70.86280518 290.62939453 71.67529297 C319.18819237 88.75345407 346.05524757 108.63189185 370.66650391 131.02734375 C372.70415832 132.86757836 374.77438028 134.65821183 376.86181641 136.44140625 C382.14861412 141.04049044 387.00574417 146.08166488 391.92431641 151.06640625 C394.9004911 154.0526526 397.89060386 157.02449735 400.88525391 159.9921875 C402.35666524 161.45436955 403.82801801 162.91661055 405.29931641 164.37890625 C406.02892578 165.10013672 406.75853516 165.82136719 407.51025391 166.56445312 C412.19678889 171.23006608 416.63541897 176.03400282 420.92431641 181.06640625 C421.38563965 181.60080322 421.84696289 182.1352002 422.32226562 182.68579102 C429.44751472 190.94793451 436.27484662 199.41838592 442.92431641 208.06640625 C443.38386719 208.66227539 443.84341797 209.25814453 444.31689453 209.87207031 C464.80951653 236.53528016 482.79710075 264.67546652 498.50927734 294.39648438 C499.94849793 297.11203239 501.40813678 299.81591515 502.86962891 302.51953125 C546.1430144 383.21300001 565.07523614 471.87332296 582.61181641 659.69140625 C582.67266418 660.83539886 582.73351196 661.97939148 582.79620361 663.15805054 C584.98262269 704.87864205 585.07663648 746.58442416 585.05961644 788.34768513 C585.05730621 794.1729111 585.05705743 799.99813415 585.05813217 805.82336044 C585.05836202 807.08366011 585.05836202 807.08366011 585.05859651 808.36942037 C585.05891636 810.07829405 585.05924058 811.78716773 585.05956911 813.4960414 C585.06239957 829.40598402 585.05917677 845.31592082 585.05376874 861.22586249 C585.0493145 874.74546724 585.05007001 888.26506338 585.0546875 901.78466797 C585.06009691 917.62946713 585.06211319 933.4742612 585.05907524 949.31906116 C585.05875683 951.02471789 585.05844245 952.73037461 585.05813217 954.43603134 C585.0579779 955.27437896 585.05782362 956.11272658 585.05766467 956.97647867 C585.05681751 962.75738281 585.05824542 968.53828355 585.06061172 974.31918716 C585.0718005 1004.66513313 585.0520003 1035.00851013 584.54101562 1065.35107422 C584.52587363 1066.39450241 584.51073163 1067.43793061 584.49513078 1068.51297784 C584.24663417 1084.91655933 583.79026472 1101.58385559 579.73681641 1117.56640625 C579.52323486 1118.4289502 579.30965332 1119.29149414 579.08959961 1120.18017578 C570.01084282 1155.44604494 550.46844928 1185.12955393 518.81005859 1203.9230957 C502.28510328 1213.2633799 483.67411619 1217.9892771 464.92431641 1220.06640625 C464.1645752 1220.15664062 463.40483398 1220.246875 462.62207031 1220.33984375 C426.93861277 1224.48111151 391.59774471 1222.65217642 356.92431641 1213.06640625 C356.19712402 1212.86821289 355.46993164 1212.67001953 354.72070312 1212.46582031 C338.54668788 1207.93693459 322.32751337 1200.19415928 308.92431641 1190.06640625 C307.61914062 1189.091875 307.61914062 1189.091875 306.28759766 1188.09765625 C293.63943535 1178.20070005 282.29939876 1166.81177042 273.92431641 1153.06640625 C273.55113281 1152.46248047 273.17794922 1151.85855469 272.79345703 1151.23632812 C260.29465718 1130.8237153 251.90826923 1107.23495657 251.71315098 1083.15690517 C251.70246608 1082.29082621 251.69178119 1081.42474725 251.68077251 1080.53242347 C251.64611777 1077.63415053 251.61794544 1074.73585146 251.58973694 1071.83750916 C251.56594318 1069.73667112 251.54174503 1067.63583762 251.51717752 1065.53500849 C251.45083084 1059.76396454 251.39012606 1053.99287284 251.33031094 1048.22175801 C251.26477103 1041.99557981 251.19395056 1035.76946151 251.123703 1029.54333496 C251.0025749 1018.74977849 250.88457961 1007.95619257 250.76854134 997.16258049 C250.60032118 981.52304925 250.42539693 965.88359779 250.24857645 950.24416167 C250.1660942 942.94873185 250.0838969 935.65329881 250.00173855 928.35786533 C249.9935121 927.62746566 249.98528565 926.89706599 249.97680992 926.14453299 C249.78105098 908.75921833 249.58780675 891.37387593 249.39526367 873.98852539 C249.38683902 873.22798771 249.37841437 872.46745003 249.36973442 871.68386575 C249.17350882 853.96792745 248.9783054 836.2519782 248.784729 818.53601074 C248.77642056 817.77571778 248.76811211 817.01542482 248.75955189 816.23209268 C248.73440271 813.9307061 248.70925518 811.6293195 248.6841082 809.32793289 C248.65900895 807.03091495 248.63390939 804.73389702 248.60880849 802.4368791 C248.5921009 800.90792733 248.57539463 799.37897555 248.55868968 797.85002375 C248.28180713 772.51108802 247.99924677 747.17222032 247.71063778 721.83341537 C247.66976382 718.24409841 247.62896706 714.65478057 247.58822441 711.06546211 C247.57619808 710.00602099 247.57619808 710.00602099 247.56392879 708.92517702 C247.43580206 697.62129945 247.31377461 686.31736408 247.19427521 675.01339235 C247.0737021 663.61677127 246.94706159 652.22023295 246.81478722 640.82374047 C246.74350084 634.66509453 246.67480672 628.50645057 246.61352158 622.3476963 C245.74458874 535.67016523 239.26243146 435.6981074 174.43603516 370.56640625 C158.82811174 355.76778256 140.54871012 346.94824349 120.24072266 340.4921875 C116.31784191 339.23011848 112.53793997 337.72428369 108.73681641 336.12890625 C55.20092706 314.37283207 -5.31618757 312.59919359 -61.07568359 326.06640625 C-61.94435059 326.27604004 -62.81301758 326.48567383 -63.70800781 326.70166016 C-99.30995474 335.55274706 -135.78322146 351.13334891 -162.56396484 376.671875 C-164.61697146 378.62909593 -166.69598974 380.45853336 -168.88818359 382.25390625 C-172.71392192 385.51219056 -175.87601271 389.20139738 -179.07568359 393.06640625 C-179.71981201 393.82606689 -179.71981201 393.82606689 -180.37695312 394.60107422 C-212.1807532 432.19532913 -226.33541887 477.92288173 -226.56797218 526.67377472 C-226.60217862 532.94902243 -226.69156123 539.22342582 -226.78417969 545.49804688 C-226.81268556 547.43849318 -226.81268556 547.43849318 -226.84176731 549.41814041 C-227.0644885 562.86185776 -227.65901349 576.28000084 -228.34521484 589.70703125 C-228.40566105 590.89640856 -228.46610725 592.08578587 -228.52838516 593.31120491 C-228.8417563 599.44178276 -229.16232142 605.5719558 -229.48718262 611.70193481 C-230.15742344 624.37036458 -230.78785107 637.04082619 -231.41534281 649.7114346 C-231.48315396 651.08048691 -231.5510463 652.44953519 -231.61901999 653.81857944 C-233.82468265 698.25021543 -235.44900593 742.7029668 -236.88427734 787.16558838 C-237.03534977 791.84236019 -237.19086493 796.51896806 -237.34814358 801.19553471 C-238.86417816 846.39113784 -239.25481758 891.5716111 -239.26273155 936.78974724 C-239.26318029 938.80160927 -239.2640259 940.81347079 -239.26496887 942.82533264 C-240.1901474 992.08914985 -240.1901474 992.08914985 -236.07568359 1041.06640625 C-230.88856205 1084.29241909 -237.14390929 1135.02625022 -264.66162109 1170.15625 C-294.70532336 1206.37398169 -344.73392363 1223.9295027 -390.72045898 1228.55078125 C-437.20961514 1232.52723626 -483.39467721 1220.74728883 -519.6015625 1190.61035156 C-522.12030534 1188.45946509 -524.59599821 1186.26218563 -527.07568359 1184.06640625 C-528.34503955 1183.04373645 -529.61559363 1182.02254889 -530.88818359 1181.00390625 C-547.05542127 1166.86752848 -555.74240948 1142.93246902 -557.22713256 1121.9233768 C-558.34576201 1102.50412318 -558.21996153 1083.06115244 -558.20640826 1063.61843204 C-558.20411701 1058.74213591 -558.20765266 1053.86584316 -558.21038818 1048.98954773 C-558.21481048 1039.4549116 -558.21388378 1029.92028338 -558.21097554 1020.38564695 C-558.2087009 1012.59843007 -558.20841786 1004.81121538 -558.20949936 997.02399826 C-558.20965259 995.90794204 -558.20980583 994.79188583 -558.2099637 993.64200973 C-558.21028351 991.37286366 -558.21060773 989.10371759 -558.21093629 986.83457153 C-558.21378247 965.58902267 -558.21052104 944.34347814 -558.20513593 923.09793 C-558.20069946 905.04152145 -558.20141917 886.98511936 -558.20605469 868.92871094 C-558.21146954 847.82761001 -558.21347584 826.72651291 -558.21044242 805.62541139 C-558.21012399 803.35014176 -558.20980962 801.07487214 -558.20949936 798.79960251 C-558.20934508 797.68104559 -558.20919081 796.56248868 -558.20903186 795.41003609 C-558.20818482 787.69748591 -558.20960929 779.98493826 -558.21197891 772.27238846 C-558.23030363 706.91066711 -557.97769475 641.55425923 -556.19970703 576.21231079 C-556.13528351 573.83436057 -556.07251814 571.45637043 -556.01000977 569.07836914 C-555.3755142 545.057063 -554.6470061 521.04770359 -553.07568359 497.06640625 C-553.00913574 495.9587793 -552.94258789 494.85115234 -552.87402344 493.70996094 C-549.17486567 433.8678897 -520.60261143 373.01279068 -494.07568359 320.06640625 C-493.47003768 318.85254625 -492.86440576 317.63867927 -492.25878906 316.42480469 C-480.60046335 293.16021389 -467.58214335 270.6768101 -453.07568359 249.06640625 C-452.58036133 248.32551758 -452.08503906 247.58462891 -451.57470703 246.82128906 C-439.57268918 228.9190882 -426.88472626 211.61788869 -413.07568359 195.06640625 C-412.58438965 194.47601562 -412.0930957 193.885625 -411.58691406 193.27734375 C-406.30179854 186.93875815 -400.92618618 180.69133848 -395.36547852 174.59155273 C-393.95809035 173.03950925 -392.55898074 171.47985 -391.17407227 169.90771484 C-384.99923567 162.91970303 -378.47667268 156.31435318 -371.87329102 149.73364258 C-370.00925116 147.87498517 -368.15064848 146.01101011 -366.29248047 144.14648438 C-360.39027767 138.24063742 -354.47400798 132.43989479 -348.07568359 127.06640625 C-346.96891623 126.10566062 -345.86341955 125.14344896 -344.75927734 124.1796875 C-302.67571473 87.77702069 -254.79582205 55.57048598 -202.07568359 37.06640625 C-200.22475098 36.40777588 -200.22475098 36.40777588 -198.33642578 35.73583984 C-134.73541026 13.18350435 -67.43864271 1.45604944 0 0 Z " fill="#903D87" transform="translate(5095.07568359375,581.93359375)"/>
<path d="M0 0 C0.86460846 -0.00067474 1.72921692 -0.00134949 2.62002563 -0.00204468 C15.98835796 0.01449665 28.99768524 0.50229889 42.125 3.25 C42.98029297 3.42692383 43.83558594 3.60384766 44.71679688 3.78613281 C75.46747615 10.36582361 104.28611739 25.33421722 123.0625 51.3125 C124.1083101 52.94257646 125.12819402 54.58950432 126.125 56.25 C126.7540625 57.24644531 127.383125 58.24289062 128.03125 59.26953125 C143.14679026 84.23924102 150.36600265 113.70683269 150.80177021 142.72715473 C150.83446329 144.28827538 150.86785794 145.84938147 150.90189101 147.41047348 C151.26322156 165.18335269 151.28569594 182.9611242 151.29460812 200.73697191 C151.29821193 205.75205162 151.30746153 210.76712193 151.31591636 215.78219539 C151.32991208 224.53240981 151.34041493 233.28262274 151.34849739 242.03284454 C151.36051958 255.04503204 151.3780635 268.05720823 151.39657578 281.06938791 C151.43134974 305.66482929 151.45958929 330.26027601 151.48559722 354.85572793 C151.48845769 357.55961968 151.49132081 360.26351143 151.49418616 362.96740317 C151.49489675 363.63850364 151.49560733 364.30960411 151.49633945 365.00104096 C151.51217444 379.92899395 151.52969671 394.85694481 151.54749822 409.78489557 C151.55484325 415.94750485 151.56214979 422.11011418 151.56946212 428.2727235 C151.5702705 428.95377783 151.57107889 429.63483217 151.57191176 430.33652452 C151.61814979 469.30428835 151.66225377 508.27205413 151.70190716 547.23982525 C151.70338919 548.69487173 151.70487129 550.14991822 151.70635347 551.60496471 C151.71304196 558.17323749 151.71971693 564.7415103 151.7263887 571.3097831 C151.72936348 574.23829701 151.73233933 577.16681092 151.73531534 580.09532482 C151.73680451 581.56108703 151.73829305 583.02684924 151.73978095 584.49261146 C151.78686793 630.87521222 151.84196095 677.25779717 151.90356445 723.64038086 C151.91909933 735.33810509 151.93460147 747.03582937 151.94992352 758.73355389 C151.95086714 759.4539502 151.95181077 760.17434652 151.95278299 760.91657302 C151.98184521 783.13328478 152.00842181 805.34999845 152.03247547 827.56671619 C152.03323136 828.2645765 152.03398724 828.9624368 152.03476603 829.68144439 C152.05133809 845.00335715 152.0673127 860.32527049 152.08273614 875.64718446 C152.08826059 881.12965806 152.09383065 886.61213161 152.09942347 892.09460515 C152.10081427 893.45832257 152.10220277 894.82203999 152.10358896 896.18575742 C152.12565075 917.86629965 152.15366805 939.546829 152.18471065 961.22736008 C152.21680213 983.67201383 152.2414546 1006.11666505 152.25768574 1028.56133606 C152.26724463 1041.48484787 152.28237018 1054.40832449 152.30562021 1067.33181908 C152.32060934 1075.97689101 152.3281593 1084.62194935 152.32980734 1093.26703406 C152.33095009 1098.18359096 152.33516971 1103.10008784 152.34849032 1108.01662811 C152.4811566 1159.0465658 152.4811566 1159.0465658 147.875 1180.1875 C147.65739014 1181.2177832 147.43978027 1182.24806641 147.21557617 1183.30957031 C141.08798769 1211.2630247 128.98840388 1235.59205997 109.125 1256.25 C108.27035156 1257.21679688 108.27035156 1257.21679688 107.3984375 1258.203125 C93.85123928 1273.07030664 72.34457834 1281.84133033 53.125 1286.25 C52.41166504 1286.41371094 51.69833008 1286.57742188 50.96337891 1286.74609375 C-0.65291998 1297.86663177 -64.41209341 1286.15892968 -108.76123047 1258.0546875 C-144.10576718 1234.64895958 -166.52938214 1201.11302182 -176.4017073 1160.05972886 C-176.96555798 1156.71239743 -177.00045059 1153.54049439 -177.00090593 1150.14468008 C-177.0023543 1149.43742093 -177.00380268 1148.73016178 -177.00529494 1148.00147053 C-177.00891397 1145.6258392 -177.00537199 1143.25027307 -177.00185299 1140.87464237 C-177.00292709 1139.15644962 -177.00442684 1137.43825708 -177.00631639 1135.72006503 C-177.01016918 1130.9972887 -177.00764561 1126.27453424 -177.00395254 1121.55175855 C-177.00095204 1116.47640391 -177.00341558 1111.40105124 -177.00500357 1106.32569635 C-177.00703518 1096.37874443 -177.00296571 1086.43180346 -176.99646352 1076.48485379 C-176.99113188 1068.30974687 -176.98775436 1060.13464116 -176.98541725 1051.95953286 C-176.95617957 957.51223542 -176.60351616 863.06735693 -176.13258925 768.62136384 C-176.0548932 753.02907956 -175.97939881 737.43678569 -175.90521049 721.84448433 C-175.89981023 720.71007735 -175.89440997 719.57567038 -175.88884606 718.40688743 C-175.86690049 713.79654117 -175.84496246 709.18619486 -175.82303641 704.5758485 C-175.62109611 662.1212279 -175.41358916 619.66663631 -175.2032242 577.21205671 C-175.01717681 539.65791336 -174.8362679 502.10374834 -174.65942383 464.54956055 C-174.45832396 421.8482998 -174.25423953 379.14705509 -174.04522032 336.44583231 C-174.0230102 331.90691255 -174.00080662 327.36799276 -173.97860527 322.82907295 C-173.97314009 321.71232755 -173.96767491 320.59558215 -173.96204412 319.44499598 C-173.87999303 302.66861512 -173.80019465 285.89222454 -173.72151375 269.11582756 C-173.63264444 250.17015283 -173.5404477 231.22449757 -173.44382221 212.27886074 C-173.38999766 201.70728144 -173.33872176 191.13569715 -173.29114986 180.56408782 C-173.25913289 173.50681295 -173.22371955 166.44956036 -173.18555361 159.39231608 C-173.16393016 155.37667092 -173.14375077 151.36103334 -173.12770248 147.3453617 C-173.11305419 143.68778082 -173.09404702 140.03024839 -173.07169757 136.3727067 C-173.06104845 134.45263684 -173.0549212 132.53254349 -173.04903135 130.61245313 C-172.8935931 107.86122231 -172.8935931 107.86122231 -169.8125 97.4375 C-169.487052 96.31456543 -169.487052 96.31456543 -169.1550293 95.16894531 C-163.46884645 76.50840719 -153.2756292 61.26646694 -139.875 47.25 C-139.276875 46.58871094 -138.67875 45.92742188 -138.0625 45.24609375 C-111.31090731 16.70721792 -68.43722246 5.10794542 -30.875 1.25 C-30.01890137 1.1571875 -29.16280273 1.064375 -28.28076172 0.96875 C-18.86622855 0.05582557 -9.45042266 0.00665007 0 0 Z " fill="#39659D" transform="translate(1944.875,530.75)"/>
<path d="M0 0 C8.19690561 -0.0231271 16.39379768 -0.04091696 24.59072781 -0.05181217 C28.39651577 -0.0570402 32.20228148 -0.06413638 36.00805664 -0.07543945 C39.67792544 -0.0862712 43.34777278 -0.09227744 47.01765633 -0.09487724 C48.42074992 -0.09673097 49.82384229 -0.1003506 51.2269268 -0.10573006 C53.1856968 -0.11294419 55.1444882 -0.11340809 57.10327148 -0.11352539 C58.22023911 -0.115746 59.33720673 -0.11796661 60.48802185 -0.12025452 C63 0 63 0 64 1 C67.22562564 1.54216024 70.46161415 1.96598652 73.703125 2.40234375 C76.74840269 2.95439053 79.17172531 3.78588866 82 5 C83.57824372 5.47556351 85.16179806 5.9338328 86.75 6.375 C91.09379689 7.64302454 95.10638275 9.28465035 99.1875 11.23046875 C100.97864208 12.13026819 100.97864208 12.13026819 103 12 C103 12.66 103 13.32 103 14 C103.67160156 14.08507812 104.34320312 14.17015625 105.03515625 14.2578125 C108.83903497 15.2100351 112.03731137 16.98336963 115.4375 18.875 C116.72747303 19.58144461 118.01783301 20.28718316 119.30859375 20.9921875 C119.92718262 21.3334668 120.54577148 21.67474609 121.18310547 22.02636719 C122.89918855 22.94597742 124.65411838 23.79200628 126.41015625 24.6328125 C129 26 129 26 130 28 C130.99 28.33 131.98 28.66 133 29 C133 29.66 133 30.32 133 31 C133.680625 31.20625 134.36125 31.4125 135.0625 31.625 C138.37547866 33.17575597 140.6578015 35.12470724 143.3515625 37.5625 C145.14959934 39.19274687 145.14959934 39.19274687 148 41 C148 41.66 148 42.32 148 43 C148.99 43.33 149.98 43.66 151 44 C151 44.66 151 45.32 151 46 C151.99 46.33 152.98 46.66 154 47 C154 47.66 154 48.32 154 49 C154.99 49.33 155.98 49.66 157 50 C157 50.66 157 51.32 157 52 C157.99 52.33 158.98 52.66 160 53 C160 53.66 160 54.32 160 55 C160.66 55 161.32 55 162 55 C163.35386936 56.65002828 164.68678142 58.3174387 166 60 C166.66 60.33 167.32 60.66 168 61 C168.33 61.99 168.66 62.98 169 64 C169.515625 64.515625 170.03125 65.03125 170.5625 65.5625 C171.036875 66.036875 171.51125 66.51125 172 67 C172 67.66 172 68.32 172 69 C172.66 69 173.32 69 174 69 C174.33 69.99 174.66 70.98 175 72 C175.66 72.33 176.32 72.66 177 73 C177.625 75.5625 177.625 75.5625 178 78 C178.66 78 179.32 78 180 78 C180.33 79.32 180.66 80.64 181 82 C181.66 82 182.32 82 183 82 C183.33 83.98 183.66 85.96 184 88 C184.66 88 185.32 88 186 88 C186.33 89.65 186.66 91.3 187 93 C187.66 93 188.32 93 189 93 C189.33 94.98 189.66 96.96 190 99 C190.66 99 191.32 99 192 99 C192.33 101.31 192.66 103.62 193 106 C193.66 106 194.32 106 195 106 C195.33 108.64 195.66 111.28 196 114 C196.66 114 197.32 114 198 114 C198.33 116.97 198.66 119.94 199 123 C199.66 123 200.32 123 201 123 C201.66 126.63 202.32 130.26 203 134 C203.33 134 203.66 134 204 134 C205.68693616 146.44163449 206.31704421 158.67079863 206.26074219 171.22290039 C206.2499961 174.06353009 206.26072455 176.90352955 206.2734375 179.74414062 C206.28073189 190.97202934 205.61625016 201.88781994 204 213 C203.34 213 202.68 213 202 213 C201.95101562 213.81984375 201.90203125 214.6396875 201.8515625 215.484375 C201.73941406 217.10085938 201.73941406 217.10085938 201.625 218.75 C201.55539062 219.81734375 201.48578125 220.8846875 201.4140625 221.984375 C201.02188098 224.84064044 200.38959508 226.52478377 199 229 C198.62331656 230.65740715 198.27942455 232.32345271 198 234 C197.34 234 196.68 234 196 234 C195.67 236.31 195.34 238.62 195 241 C194.34 241 193.68 241 193 241 C192.67 243.31 192.34 245.62 192 248 C191.34 248 190.68 248 190 248 C189.67 249.98 189.34 251.96 189 254 C188.34 254 187.68 254 187 254 C186.67 255.98 186.34 257.96 186 260 C185.34 260 184.68 260 184 260 C183.67 261.65 183.34 263.3 183 265 C182.34 265 181.68 265 181 265 C180.67 266.65 180.34 268.3 180 270 C179.34 270 178.68 270 178 270 C177.67 271.32 177.34 272.64 177 274 C176.34 274 175.68 274 175 274 C174.67 275.32 174.34 276.64 174 278 C173.34 278 172.68 278 172 278 C171.67 279.32 171.34 280.64 171 282 C170.34 282 169.68 282 169 282 C168.67 283.32 168.34 284.64 168 286 C167.34 286 166.68 286 166 286 C165.938125 286.5775 165.87625 287.155 165.8125 287.75 C164.67561467 290.89829784 162.63092771 291.98091594 160 294 C159.34 294.825 158.68 295.65 158 296.5 C155.89680365 299.12899543 153.62100457 300.90319635 151 303 C150.360625 303.825 149.72125 304.65 149.0625 305.5 C146.67919679 308.38885237 144.21882715 310.11068841 141 312 C140.34 312 139.68 312 139 312 C139 312.66 139 313.32 139 314 C138.01 314.33 137.02 314.66 136 315 C134.64567325 316.31200404 133.31266518 317.64631404 132 319 C129 321 129 321 126 321 C126 321.66 126 322.32 126 323 C123.23456804 324.51012131 120.46183193 326.00630148 117.6875 327.5 C116.90181641 327.92925781 116.11613281 328.35851562 115.30664062 328.80078125 C114.1706543 329.40986328 114.1706543 329.40986328 113.01171875 330.03125 C112.31522217 330.40830078 111.61872559 330.78535156 110.90112305 331.17382812 C109 332 109 332 106 332 C106 332.66 106 333.32 106 334 C105.11957031 334.33773438 104.23914062 334.67546875 103.33203125 335.0234375 C102.17058594 335.46945312 101.00914062 335.91546875 99.8125 336.375 C98.66394531 336.81585938 97.51539063 337.25671875 96.33203125 337.7109375 C94.40621423 338.45597808 92.48715946 339.22026376 90.58984375 340.03515625 C87.04583062 341.35547487 83.42664153 342.1929346 79.75 343.0625 C74.99643377 343.82432348 74.99643377 343.82432348 71 346 C59.04285516 348.50214542 46.85711663 348.3082966 34.70239258 348.26074219 C31.44007839 348.25000848 28.17831331 348.26069893 24.91601562 348.2734375 C11.66674257 348.28302133 -1.27727238 348.14341704 -14 344 C-15.14339844 343.68160156 -16.28679687 343.36320312 -17.46484375 343.03515625 C-23.7636743 341.27091687 -29.92532841 339.42986864 -36 337 C-36 336.34 -36 335.68 -36 335 C-37.0725 334.896875 -38.145 334.79375 -39.25 334.6875 C-42.92375834 334.01397764 -44.25157596 333.34125011 -47 331 C-47.66 331 -48.32 331 -49 331 C-49 330.34 -49 329.68 -49 329 C-52.62197194 327.50859979 -56.27566618 326.2125738 -60 325 C-60 324.34 -60 323.68 -60 323 C-60.99 322.6596875 -60.99 322.6596875 -62 322.3125 C-65.88658628 320.6121185 -69.63679817 318.60376916 -73 316 C-73 315.34 -73 314.68 -73 314 C-73.5671875 313.73832031 -74.134375 313.47664063 -74.71875 313.20703125 C-80.81741541 309.9801689 -85.85741252 305.47413346 -90 300 C-90.763125 299.401875 -91.52625 298.80375 -92.3125 298.1875 C-96.01197163 295.17630216 -98.93052416 291.63582559 -102 288 C-102.51433594 287.4121875 -103.02867188 286.824375 -103.55859375 286.21875 C-107 282.24114731 -107 282.24114731 -107 280 C-107.66 280 -108.32 280 -109 280 C-120 266.35483871 -120 266.35483871 -120 260 C-120.66 260 -121.32 260 -122 260 C-128.10431116 247.43017585 -133.56372513 234.69036077 -137.359375 221.2109375 C-137.84254989 219.54339489 -138.39131333 217.89465794 -138.97070312 216.25805664 C-142.97026842 203.59814229 -142.31206357 189.81994051 -142.26074219 176.70239258 C-142.25000848 173.44007839 -142.26069893 170.17831331 -142.2734375 166.91601562 C-142.28550232 149.06127018 -140.8820424 132.3568975 -134.07910156 115.65820312 C-133.03724854 113.09175613 -132.0311371 110.51423279 -131.03515625 107.9296875 C-130.37760417 106.24479167 -129.72005208 104.55989583 -129.0625 102.875 C-128.74087891 102.03324219 -128.41925781 101.19148438 -128.08789062 100.32421875 C-125.91579277 94.79757925 -123.32590937 89.91530033 -120 85 C-119.41734375 84.12730469 -118.8346875 83.25460938 -118.234375 82.35546875 C-117.23539702 80.89643513 -116.2353775 79.43811415 -115.234375 77.98046875 C-113.84421568 75.92170206 -113.84421568 75.92170206 -113 73 C-112.34 73 -111.68 73 -111 73 C-110.7525 72.28457031 -110.505 71.56914063 -110.25 70.83203125 C-108.86136405 67.68590294 -107.15536054 65.36189037 -105 62.6875 C-104.29875 61.80449219 -103.5975 60.92148438 -102.875 60.01171875 C-102.25625 59.34785156 -101.6375 58.68398437 -101 58 C-100.34 58 -99.68 58 -99 58 C-98.67 57.01 -98.34 56.02 -98 55 C-97.34 55 -96.68 55 -96 55 C-95.773125 54.443125 -95.54625 53.88625 -95.3125 53.3125 C-93.62449964 50.33840412 -91.53323483 48.27991135 -89 46 C-88.34 46 -87.68 46 -87 46 C-86.814375 45.443125 -86.62875 44.88625 -86.4375 44.3125 C-84.65087135 41.43835826 -82.56952363 40.15536537 -79.79296875 38.2890625 C-77.77255789 36.91513746 -77.77255789 36.91513746 -75.5 34.4375 C-73.37317785 32.3638484 -71.79575149 31.20955874 -69.25 29.8125 C-65.95188165 28.37321065 -65.95188165 28.37321065 -65 26 C-62.7661502 24.76027184 -60.54641883 23.61102044 -58.25 22.5 C-57.62867188 22.19191406 -57.00734375 21.88382813 -56.3671875 21.56640625 C-53.64728482 20.22940767 -50.94496791 18.97917705 -48.109375 17.90625 C-45.82870591 17.19512831 -45.82870591 17.19512831 -45 15 C-43 14.66666667 -41 14.33333333 -39 14 C-38.67 13.34 -38.34 12.68 -38 12 C-35.77872122 11.09288092 -33.52147941 10.27286851 -31.25 9.5 C-26.2827192 7.80813661 -26.2827192 7.80813661 -21.37890625 5.9453125 C-14.32538772 3.1424365 -7.58570785 1.57062031 0 2 C0 1.34 0 0.68 0 0 Z " fill="#31689F" transform="translate(1900,54)"/>
<path d="M0 0 C0.33 0 0.66 0 1 0 C1.17030957 10.93361056 0.64344947 21.83086301 0.16015625 32.75 C0.07261603 34.77326373 -0.01466409 36.79653873 -0.10169983 38.81982422 C-0.33092149 44.13555459 -0.56303139 49.45115453 -0.79595947 54.76672363 C-1.2097589 64.21933728 -1.61881749 73.67215722 -2.02734375 83.125 C-2.07094402 84.1315564 -2.1145443 85.13811279 -2.15946579 86.1751709 C-2.84889542 102.11442736 -3.47922869 118.05425416 -4 134 C-4.33 134 -4.66 134 -5 134 C-5.04655865 121.10758248 -5.08198792 108.21518531 -5.10362434 95.3227005 C-5.11401428 89.33473213 -5.12808494 83.34682174 -5.15087891 77.35888672 C-5.17277942 71.56872496 -5.18460455 65.7786186 -5.18975449 59.98841858 C-5.1934196 57.79109324 -5.20057559 55.59377056 -5.21146011 53.39646912 C-5.27003105 41.07038031 -4.89847102 29.18985136 -3 17 C-2.63661035 14.39702548 -2.28777584 11.79228911 -1.9375 9.1875 C-1.48647199 5.9482988 -1.03441783 3.10325349 0 0 Z " fill="#995099" transform="translate(4863,1210)"/>
<path d="M0 0 C0.33 0 0.66 0 1 0 C1.0984536 10.46798763 0.79421876 20.88036089 0.34375 31.3359375 C0.27623571 32.95259563 0.2089798 34.56926457 0.14196777 36.1859436 C-0.03302164 40.39118336 -0.21146314 44.59626939 -0.39068604 48.80133057 C-0.57378817 53.11225609 -0.75353943 57.42332129 -0.93359375 61.734375 C-1.28582942 70.15638824 -1.64172126 78.57824168 -2 87 C-2.33 87 -2.66 87 -3 87 C-3.07018095 78.31443121 -3.12315089 69.62896324 -3.15543652 60.94317055 C-3.17094888 56.90797379 -3.19191524 52.87297405 -3.22631836 48.83789062 C-3.51160219 14.51356667 -3.51160219 14.51356667 0 0 Z " fill="#AA75AB" transform="translate(4862,1229)"/>
<path d="M0 0 C0.33 0 0.66 0 1 0 C1.33772739 2.70784994 1.67030687 5.41616996 2 8.125 C2.09539062 8.88554688 2.19078125 9.64609375 2.2890625 10.4296875 C2.79830188 14.64909952 3.10888068 18.74004344 3 23 C2.67 23 2.34 23 2 23 C-0.48492447 14.95558349 -1.36186463 8.33526785 0 0 Z " fill="#A44997" transform="translate(5667,1127)"/>
<path d="M0 0 C11.52164009 0.96355353 11.52164009 0.96355353 17 2 C17 2.33 17 2.66 17 3 C14.54159395 3.02691685 12.08348118 3.04679802 9.625 3.0625 C8.92632812 3.07087891 8.22765625 3.07925781 7.5078125 3.08789062 C2.2265625 3.11328125 2.2265625 3.11328125 0 2 C0 1.34 0 0.68 0 0 Z " fill="#9F5D9D" transform="translate(5200,590)"/>
<path d="M0 0 C5.50808397 0.59015185 10.64878069 1.56663769 16 3 C16 3.33 16 3.66 16 4 C6.00437637 4.63019694 6.00437637 4.63019694 1.8125 2 C1.214375 1.34 0.61625 0.68 0 0 Z " fill="#9F5A9C" transform="translate(5241,598)"/>
<path d="M0 0 C0 3 0 3 -1.75 5.04296875 C-2.4925 5.75066406 -3.235 6.45835938 -4 7.1875 C-4.7425 7.90292969 -5.485 8.61835937 -6.25 9.35546875 C-7.11625 10.16951172 -7.11625 10.16951172 -8 11 C-8.66 10.67 -9.32 10.34 -10 10 C-8.90033225 8.70450101 -7.79508199 7.41373929 -6.6875 6.125 C-6.07261719 5.40570312 -5.45773437 4.68640625 -4.82421875 3.9453125 C-3 2 -3 2 0 0 Z " fill="#9C509A" transform="translate(4824,1757)"/>
<path d="" fill="#31689F" transform="translate(0,0)"/>
</svg>
