<svg width="28" height="28" viewBox="0 0 28 28" fill="none" xmlns="http://www.w3.org/2000/svg">
<path d="M14 28C10.287 28 6.72601 26.525 4.1005 23.8995C1.475 21.274 0 17.713 0 14C0 10.287 1.475 6.72601 4.1005 4.1005C6.72601 1.475 10.287 0 14 0C17.713 0 21.274 1.475 23.8995 4.1005C26.525 6.72601 28 10.287 28 14C28 17.713 26.525 21.274 23.8995 23.8995C21.274 26.525 17.713 28 14 28ZM21 12.6H7V15.4H21V12.6Z" fill="url(#paint0_linear_571_5918)"/>
<defs>
<linearGradient id="paint0_linear_571_5918" x1="14" y1="0" x2="14" y2="28" gradientUnits="userSpaceOnUse">
<stop stop-color="#2270A2"/>
<stop offset="1" stop-color="#883C82"/>
</linearGradient>
</defs>
</svg>
