<svg width="580" height="366" viewBox="0 0 580 366" fill="none" xmlns="http://www.w3.org/2000/svg">
<path d="M575.893 131.971C561.714 46.5269 471.029 3.64721 409.363 16.1294C351.57 27.8278 366.482 53.618 289.924 61.551C222.2 68.5685 147.273 16.3332 69.2875 53.88C-10.6199 92.3521 -32.7806 252.496 64.0674 337.396C76.6346 348.413 92.3597 357.547 110.32 365H466.351C467.968 364.361 469.542 363.715 471.067 363.061C552.253 328.249 593.774 239.717 575.893 131.971Z" fill="#F4F8F9"/>
<path d="M383.533 363.707C371.377 352.79 365.518 336.99 364.169 321.974C364.06 320.758 369.349 319.463 369.298 318.26C369.249 317.098 363.857 316.029 363.86 314.885C363.888 304.715 365.961 295.361 369.475 288.729C398.652 300.224 415.098 321.797 401.482 363.352L383.533 363.707Z" fill="white"/>
<path d="M383.533 364.555C383.331 364.555 383.129 364.483 382.967 364.338C371.854 354.358 364.878 339.339 363.325 322.05C363.217 320.852 364.681 320.148 366.377 319.333C366.963 319.051 367.871 318.615 368.289 318.302C367.837 318.006 366.867 317.608 366.241 317.351C364.435 316.61 363.009 316.025 363.012 314.882C363.041 304.659 365.07 295.23 368.726 288.332L369.081 287.663L369.786 287.941C377.432 290.953 383.973 294.583 389.225 298.729C394.922 303.226 399.315 308.494 402.283 314.386C405.448 320.67 407.094 327.864 407.175 335.768C407.261 344.086 405.616 353.455 402.287 363.616C402.141 364.061 401.663 364.303 401.218 364.157C400.773 364.012 400.53 363.533 400.676 363.088C412.532 326.903 402.457 302.922 369.876 289.801C366.63 296.288 364.754 305.311 364.708 314.731C365.033 315.023 366.18 315.494 366.884 315.783C368.679 316.519 370.097 317.101 370.145 318.224C370.194 319.378 368.833 320.032 367.111 320.86C366.429 321.188 365.316 321.723 365.025 322.037C366.565 338.84 373.336 353.41 384.099 363.076C384.448 363.389 384.476 363.924 384.164 364.273C383.996 364.46 383.765 364.555 383.533 364.555Z" fill="#2E2E2E"/>
<path d="M396.378 356.349C394.981 330.096 411.721 309.791 438.941 303.643C441.917 324.214 437.26 344.432 413.102 363.353C409.238 366.379 403.237 362.147 397.532 363.765L396.378 356.349Z" fill="url(#paint0_linear_3081_818)"/>
<path d="M451.467 363.396L451.524 363.765C452.111 363.598 452.701 363.496 453.292 363.439C452.686 363.389 452.077 363.371 451.467 363.396Z" fill="url(#paint1_linear_3081_818)"/>
<path d="M438.352 303.643C437.544 303.825 436.747 304.021 435.958 304.228C438.76 324.597 433.966 344.611 410.037 363.353C409.269 363.954 408.416 364.266 407.498 364.397C409.378 364.596 411.09 364.467 412.513 363.353C436.671 344.432 441.327 324.214 438.352 303.643Z" fill="white"/>
<path d="M413.389 364.555C413.126 364.555 412.867 364.433 412.701 364.204C412.427 363.825 412.512 363.296 412.891 363.021C431.568 349.492 441.682 326.144 438.256 304.671C417.538 309.548 406.187 319.401 400.388 337.485C399.457 340.386 396.626 349.215 398.491 363.241C398.552 363.705 398.226 364.131 397.762 364.193C397.298 364.254 396.872 363.928 396.81 363.464C394.896 349.06 397.815 339.958 398.774 336.967C401.837 327.413 406.461 320.1 412.91 314.61C419.317 309.154 427.771 305.297 438.755 302.816L439.621 302.62L439.776 303.495C440.72 308.819 440.861 314.366 440.196 319.982C439.533 325.576 438.084 331.116 435.889 336.45C431.287 347.637 423.678 357.3 413.885 364.394C413.735 364.503 413.561 364.555 413.389 364.555Z" fill="#2E2E2E"/>
<path d="M403.671 362.108C403.611 362.108 403.55 362.102 403.489 362.088C403.032 361.988 402.742 361.537 402.842 361.079C405.353 349.588 410.597 339.195 414.555 332.5C419.495 324.143 425.406 316.532 430.773 311.619C431.119 311.303 431.655 311.327 431.971 311.672C432.287 312.017 432.263 312.553 431.918 312.869C421.733 322.192 408.662 342.384 404.498 361.441C404.411 361.838 404.061 362.108 403.671 362.108Z" fill="#2E2E2E"/>
<path d="M392.58 345.279C392.146 345.279 391.777 344.948 391.737 344.508C390.791 334.103 384.122 316.546 377.746 307.673C377.473 307.293 377.559 306.764 377.94 306.49C378.32 306.217 378.849 306.304 379.122 306.684C382.196 310.961 385.529 317.501 388.266 324.628C391.109 332.031 392.941 339.036 393.425 344.354C393.467 344.821 393.124 345.233 392.657 345.275C392.631 345.278 392.605 345.279 392.58 345.279Z" fill="#2E2E2E"/>
<path d="M199.496 351.753C199.322 351.753 199.146 351.699 198.995 351.589C198.618 351.312 198.536 350.782 198.813 350.404C201.218 347.125 203.019 343.6 204.167 339.927C204.307 339.48 204.782 339.231 205.229 339.371C205.676 339.51 205.925 339.986 205.785 340.432C204.581 344.285 202.695 347.977 200.18 351.407C200.014 351.633 199.757 351.753 199.496 351.753ZM173.648 335.069C173.554 335.069 173.458 335.053 173.364 335.019C164.481 331.859 159.386 325.761 159.386 318.288C159.386 316.789 159.597 315.271 160.014 313.774C160.14 313.323 160.608 313.061 161.058 313.185C161.509 313.311 161.773 313.778 161.647 314.229C161.271 315.578 161.081 316.943 161.081 318.288C161.081 325.001 165.765 330.517 173.932 333.422C174.373 333.579 174.603 334.064 174.446 334.505C174.323 334.852 173.996 335.069 173.648 335.069ZM199.301 332.722C199.003 332.722 198.714 332.565 198.559 332.286C198.332 331.876 198.48 331.361 198.889 331.134C205.71 327.35 212.173 321.095 217.579 313.045C217.84 312.656 218.367 312.553 218.755 312.814C219.144 313.075 219.247 313.601 218.986 313.99C213.431 322.261 206.766 328.702 199.711 332.616C199.581 332.688 199.44 332.722 199.301 332.722ZM202.422 315.231C202.125 315.231 201.836 315.074 201.681 314.796C197.156 306.672 189.483 301.524 181.155 301.024C180.688 300.996 180.332 300.594 180.36 300.127C180.388 299.66 180.788 299.304 181.257 299.332C190.165 299.867 198.354 305.34 203.162 313.971C203.389 314.38 203.243 314.896 202.834 315.124C202.703 315.197 202.562 315.231 202.422 315.231ZM229.388 290.248C229.31 290.248 229.231 290.237 229.152 290.215C228.703 290.085 228.444 289.615 228.574 289.165C230.906 281.093 232.089 272.858 232.089 264.689C232.089 264.162 232.083 263.627 232.073 263.099C232.065 262.631 232.437 262.245 232.905 262.235C233.373 262.228 233.759 262.599 233.768 263.067C233.779 263.605 233.784 264.151 233.784 264.689C233.784 273.017 232.579 281.41 230.202 289.635C230.095 290.007 229.756 290.248 229.388 290.248Z" fill="#2E2E2E"/>
<path d="M89.512 259.325L92.1201 290.83C92.1201 290.83 148.724 292.922 160.917 292.571C173.11 292.22 182.112 292.014 187.743 290.757C193.374 289.501 202.978 282.148 206.992 280.649C211.006 279.15 223.813 267.57 223.813 267.57L225.261 363.362L352.149 363.187L353.377 268.565L354.558 268.078C354.558 268.078 371.276 282.496 378.252 285.924C385.228 289.353 389.614 291.753 399.086 292.331C408.558 292.909 445.413 292.888 451.106 292.692C456.798 292.496 484.845 291.168 484.845 291.168L487.062 258.973L424.344 250.991L405.09 247.114L377.513 213.939C377.513 213.939 362.368 196.983 356.557 193.942C350.746 190.902 337.7 183.892 334.701 182.979C331.703 182.067 313.456 178.634 313.62 178.559C313.783 178.484 304.867 192.13 290.306 192.305C275.744 192.481 262.674 178.029 262.674 178.029C262.674 178.029 246.723 181.563 243.772 182.514C240.821 183.465 233.687 185.924 228.064 189.055C219.076 194.06 206.452 206.175 203.464 209.487C200.477 212.799 179.689 237.863 179.689 237.863L171.561 247.185C171.561 247.185 124.772 254.649 122.867 254.915C120.962 255.18 89.512 259.325 89.512 259.325Z" fill="url(#paint2_linear_3081_818)"/>
<path d="M353.553 196.078C359.08 199.609 369.919 211.099 374.753 216.692C381.739 224.777 394.27 239.972 403.057 249.88C435.148 256.376 486.999 262.597 486.999 262.597L487.326 259.434L424.608 250.097L405.09 247.114L377.777 213.045C377.777 213.045 360.739 196.282 354.928 193.241C349.117 190.201 337.4 184.27 334.401 183.358C331.402 182.446 313.72 177.74 313.884 177.665C313.94 177.639 314.405 179.594 312.399 181.752C336.886 185.376 345.754 191.094 353.553 196.078Z" fill="white"/>
<path d="M352.357 232.61C352.357 232.61 350.089 251.21 349.752 271.603C349.377 294.353 348.571 362.604 348.571 362.604L352.15 362.6L353.311 273.135C351.837 271.897 352.357 232.61 352.357 232.61Z" fill="white"/>
<path d="M90.0124 261.43C90.0124 261.43 88.057 260.996 84.3315 259.718C80.6059 258.44 74.5472 256.059 72.0554 255.932C69.5636 255.806 66.46 255.275 63.3418 255.757C60.2237 256.239 55.2436 257.429 52.4067 258.362C49.5697 259.295 44.4203 259.821 43.3692 260.64C42.318 261.459 40.9321 262.745 41.587 264.5C42.2418 266.254 42.6397 267.131 48.6339 266.868C54.6281 266.605 57.9316 265.064 58.7287 265.82C59.5257 266.576 59.5467 267.057 58.5641 268.513C57.5815 269.968 49.9498 276.225 47.2303 276.752C44.5109 277.278 37.7564 278.623 34.5985 278.243C31.4406 277.863 29.7739 277.161 28.692 277.716C27.6101 278.272 25.534 279.646 27.6978 281.722C24.5984 282.132 23.396 283.852 24.1305 285.407C24.865 286.961 26.8482 287.388 26.8482 287.388C26.2055 290.086 24.6567 291.109 29.3937 292.074C34.1306 293.038 36.3772 293.396 36.3772 293.396C36.3772 293.396 39.4541 296.12 45.5357 296.302C51.6173 296.483 64.2415 295.497 67.3621 294.628C70.4827 293.758 76.1811 291.585 79.2792 289.286C82.3774 286.986 84.5646 285.719 86.6526 285.083C88.7407 284.446 91.2419 283.857 91.2419 283.857L90.0124 261.43Z" fill="white"/>
<path d="M487.326 261.43C487.326 261.43 489.282 260.996 493.007 259.718C496.733 258.44 502.791 256.059 505.283 255.932C507.775 255.806 510.879 255.275 513.997 255.757C517.115 256.239 522.095 257.429 524.932 258.362C527.769 259.295 532.918 259.821 533.97 260.64C535.021 261.459 536.407 262.745 535.752 264.5C535.097 266.254 534.699 267.131 528.705 266.868C522.711 266.605 519.407 265.064 518.61 265.82C517.813 266.576 517.792 267.057 518.775 268.513C519.757 269.968 527.389 276.225 530.108 276.752C532.828 277.278 539.582 278.623 542.74 278.243C545.898 277.863 547.565 277.161 548.647 277.716C549.729 278.272 551.805 279.646 549.641 281.722C552.74 282.132 553.943 283.852 553.208 285.407C552.474 286.961 550.491 287.388 550.491 287.388C551.133 290.086 552.682 291.109 547.945 292.074C543.208 293.038 540.962 293.396 540.962 293.396C540.962 293.396 537.885 296.12 531.803 296.302C525.721 296.483 513.097 295.497 509.977 294.628C506.856 293.758 501.158 291.585 498.06 289.286C494.961 286.986 492.774 285.719 490.686 285.083C488.598 284.446 486.097 283.857 486.097 283.857L487.326 261.43Z" fill="white"/>
<path d="M285.048 191.259C284.868 191.418 270.708 205.813 270.708 205.813L280.136 241.955L299.277 234.587L305.745 206.107L292.447 192.92L285.048 191.259Z" fill="white"/>
<path d="M288.534 188.7C288.534 188.7 279.63 198.153 279.684 198.256C279.738 198.359 283.332 206.341 283.332 206.341L277.724 234.838L287.791 275.875C287.791 275.875 289.283 271.602 289.516 271.65C289.75 271.697 299.276 232.248 299.276 232.248C299.276 232.248 293.815 204.59 293.873 204.413C293.932 204.236 297.002 197.832 297.002 197.832L288.534 188.7Z" fill="url(#paint3_linear_3081_818)"/>
<path d="M295.336 197.068C293.748 200.278 291.384 205.062 291.346 205.18C291.3 205.317 295.526 229.342 297.509 239.546C298.109 237.067 299.03 233.015 299.03 233.015C299.03 233.015 293.568 205.356 293.626 205.18C293.685 205.003 296.755 198.599 296.755 198.599L295.336 197.068Z" fill="white"/>
<path d="M352.357 364.615C352.356 364.615 352.355 364.615 352.354 364.615C351.887 364.613 351.509 364.238 351.509 363.771C351.543 359.394 352.328 256.614 352.328 232.61C352.328 232.142 352.708 231.763 353.176 231.763C353.643 231.763 354.023 232.142 354.023 232.61C354.023 256.621 353.238 359.406 353.204 363.77C353.201 364.236 352.822 364.615 352.357 364.615Z" fill="#2E2E2E"/>
<path d="M423.988 294.026C406.822 294.026 395.28 293.257 389.566 291.727C382.666 289.879 374.361 285.234 364.881 277.921C357.847 272.495 352.752 267.537 352.701 267.488C352.366 267.161 352.36 266.624 352.687 266.289C353.014 265.955 353.55 265.948 353.885 266.275C354.085 266.47 374.034 285.812 390.004 290.089C407.148 294.681 476.103 290.829 484.052 290.366L486.161 260.067C478.938 259.139 424.686 252.115 404.915 247.943L404.635 247.884L404.448 247.668C399.291 241.694 394.579 235.9 390.022 230.296C377.912 215.404 367.454 202.544 354.507 193.518C343.034 185.519 328.364 180.729 309.659 178.873C309.194 178.826 308.854 178.411 308.9 177.945C308.946 177.48 309.359 177.139 309.827 177.186C328.828 179.071 343.76 183.959 355.477 192.128C368.619 201.29 379.147 214.236 391.337 229.227C395.831 234.753 400.477 240.465 405.545 246.344C426.821 250.789 486.566 258.411 487.169 258.488L487.964 258.589L485.64 291.968L484.897 292.013C484.706 292.025 465.485 293.192 444.257 293.738C436.806 293.931 430.046 294.026 423.988 294.026Z" fill="#2E2E2E"/>
<path d="M549.53 283.078C549.284 283.078 549.041 282.971 548.873 282.766C548.577 282.404 548.631 281.87 548.993 281.574C549.161 281.431 549.61 280.934 549.602 280.396C549.597 279.965 549.305 279.515 548.735 279.059C548.189 278.622 546.265 278.831 544.405 279.033C542.333 279.258 539.754 279.538 537.177 279.25C525.532 277.949 517.993 270.376 516.811 267.438C516.525 266.725 516.551 266.159 516.889 265.753C517.869 264.577 519.128 264.862 521.034 265.293C521.836 265.475 522.835 265.701 524.095 265.907C527.138 266.404 534.267 267.569 535.079 264.32C535.369 263.159 535.205 262.703 535.057 262.46C534.549 261.631 532.707 261.204 529.918 260.557C529.091 260.365 528.153 260.148 527.133 259.892C523.906 259.084 521.865 258.509 520.225 258.047C518.415 257.537 516.985 257.133 514.821 256.658C511.12 255.844 504.478 256.731 497.487 258.973C495.461 259.623 493.948 260.16 492.733 260.591C489.979 261.568 488.722 262.014 486.876 261.793C486.411 261.737 486.079 261.315 486.135 260.851C486.19 260.386 486.614 260.054 487.077 260.11C488.531 260.284 489.52 259.932 492.166 258.993C493.392 258.558 494.918 258.017 496.969 257.359C504.339 254.995 511.149 254.114 515.186 255.002C517.397 255.489 518.848 255.897 520.685 256.415C522.314 256.874 524.342 257.445 527.545 258.248C528.551 258.5 529.48 258.716 530.301 258.906C533.62 259.676 535.624 260.14 536.502 261.576C536.991 262.375 537.061 263.377 536.723 264.731C535.533 269.494 527.623 268.201 523.821 267.579C522.511 267.365 521.484 267.133 520.659 266.946C519.102 266.594 518.617 266.525 518.34 266.702C518.573 267.438 520.117 269.68 523.301 272.051C526.143 274.167 530.89 276.842 537.365 277.566C539.756 277.832 542.129 277.575 544.222 277.348C546.823 277.065 548.702 276.862 549.794 277.735C550.786 278.53 551.292 279.425 551.297 280.396C551.305 281.832 550.192 282.783 550.065 282.887C549.908 283.015 549.718 283.078 549.53 283.078Z" fill="#2E2E2E"/>
<path d="M527.285 297.373C522.692 297.373 517.73 296.676 511.956 295.864L511.033 295.734C504.757 294.853 499.686 291.578 495.611 288.946C493.829 287.795 492.29 286.801 491.031 286.272C487.927 284.969 486.935 285.059 485.961 285.313C485.508 285.431 485.045 285.159 484.927 284.706C484.809 284.253 485.081 283.79 485.534 283.672C487.009 283.289 488.426 283.341 491.687 284.71C493.084 285.296 494.681 286.328 496.531 287.523C500.466 290.064 505.362 293.227 511.269 294.056L512.192 294.185C520.677 295.378 527.379 296.321 533.59 295.121C537.35 294.395 540.353 293.045 540.893 291.839C541.017 291.563 540.993 291.316 540.814 291.016C540.193 289.976 538.37 290.266 535.447 290.826C533.873 291.127 532.09 291.469 530.238 291.55C530.011 291.56 529.782 291.564 529.555 291.564C524.469 291.565 519.664 289.178 519.453 289.072C519.035 288.861 518.866 288.352 519.077 287.934C519.287 287.516 519.796 287.347 520.215 287.557C520.264 287.583 525.286 290.069 530.164 289.856C531.892 289.781 533.611 289.452 535.128 289.161C538.284 288.557 541.009 288.035 542.269 290.147C542.732 290.923 542.791 291.748 542.44 292.532C541.287 295.107 536.091 296.364 533.911 296.786C531.758 297.201 529.567 297.373 527.285 297.373Z" fill="#2E2E2E"/>
<path d="M513.178 278.397C513.163 278.397 513.149 278.396 513.134 278.396C507.722 278.117 504.317 275.275 501.025 272.527C500.742 272.292 500.46 272.057 500.178 271.824C499.817 271.526 499.766 270.992 500.064 270.631C500.361 270.27 500.895 270.218 501.257 270.516C501.541 270.751 501.826 270.988 502.111 271.226C505.331 273.914 508.373 276.454 513.221 276.703C513.688 276.727 514.048 277.125 514.024 277.593C514 278.045 513.626 278.397 513.178 278.397Z" fill="#2E2E2E"/>
<path d="M541.957 294.073C541.577 294.073 541.195 294.062 540.812 294.04C540.344 294.014 539.987 293.613 540.014 293.146C540.041 292.678 540.439 292.321 540.909 292.348C544.579 292.558 548.372 291.597 549.734 290.113C550.213 289.591 550.16 289.221 550.143 289.1C549.896 287.391 548.086 287.318 542.889 287.353C540.507 287.37 537.541 287.391 533.967 287.171C529.929 286.923 524.755 284.407 524.537 284.3C524.117 284.094 523.943 283.587 524.149 283.166C524.355 282.746 524.863 282.572 525.283 282.778C525.333 282.803 530.373 285.252 534.071 285.48C537.587 285.696 540.521 285.675 542.877 285.658C548.161 285.621 551.35 285.598 551.82 288.858C551.942 289.699 551.652 290.53 550.983 291.259C549.412 292.971 545.805 294.073 541.957 294.073Z" fill="#2E2E2E"/>
<path d="M550.843 288.786C550.516 288.786 550.204 288.596 550.066 288.276C549.879 287.846 550.077 287.348 550.506 287.161C551.12 286.895 551.527 286.488 551.715 285.952C551.976 285.208 551.78 284.396 551.51 283.884C551.372 283.623 550.589 282.814 546.297 283.345C542.283 283.843 536.367 283.991 532.907 282.774C532.466 282.619 532.234 282.135 532.389 281.693C532.545 281.252 533.028 281.02 533.47 281.175C536.873 282.373 543.003 282.045 546.089 281.663C550.037 281.174 552.236 281.628 553.009 283.092C553.576 284.166 553.69 285.445 553.314 286.514C552.968 287.5 552.23 288.261 551.18 288.716C551.07 288.764 550.956 288.786 550.843 288.786Z" fill="#2E2E2E"/>
<path d="M270.232 167.667C269.879 170.173 272.153 169.258 268.727 173.62C273.247 179.187 282.981 183.533 288.535 188.051C296.723 182.885 304.305 179.46 307.952 174.664C306.905 173.998 307.083 171.677 306.664 169.531C306.195 167.133 305.255 157.302 305.255 157.302C305.255 157.302 314.119 150.047 317.063 139.329C318.175 135.281 318.744 132.701 318.744 132.701C318.744 132.701 326.125 133.959 328.288 130.984C330.451 128.009 333.378 124.661 331.703 121.395C330.027 118.129 331.54 117.047 323.874 115.28C318.817 115.945 311.337 113.047 302.762 110.085C293.445 103.61 290.014 89.7296 272.074 84.8291C251.722 91.2328 254.426 114.437 254.426 114.437C254.426 114.437 247.616 112.569 244.133 122.139C242.804 125.789 245.334 131.002 248.761 132.701C252.187 134.399 257.3 132.701 257.3 132.701C257.3 132.701 259.812 144.419 262.001 147.655C264.191 150.891 270.901 156.787 271.49 157.365C272.079 157.944 270.625 164.883 270.232 167.667Z" fill="white"/>
<path d="M287.218 162.374C279.074 162.374 271.848 159.429 266.258 153.817C260.815 148.351 257.419 140.747 256.697 132.405C256.657 131.939 257.002 131.528 257.468 131.488C257.934 131.447 258.345 131.793 258.386 132.259C259.648 146.841 270.346 161.281 288.337 160.659C304.536 160.102 316.14 148.948 317.901 132.243C317.95 131.778 318.368 131.439 318.832 131.489C319.298 131.538 319.635 131.955 319.586 132.421C318.698 140.854 315.341 148.146 309.88 153.508C304.283 159.004 296.853 162.062 288.396 162.353C288.001 162.367 287.608 162.374 287.218 162.374Z" fill="#2E2E2E"/>
<path d="M253.517 133.689C247.88 133.689 243.294 129.102 243.294 123.465C243.294 117.828 247.88 113.241 253.517 113.241C253.847 113.241 254.181 113.257 254.507 113.289C254.973 113.333 255.314 113.747 255.27 114.213C255.225 114.679 254.811 115.021 254.345 114.976C254.072 114.95 253.793 114.936 253.517 114.936C248.815 114.936 244.989 118.762 244.989 123.465C244.989 128.167 248.815 131.993 253.517 131.993C254.799 131.993 256.03 131.717 257.177 131.171C257.6 130.97 258.105 131.149 258.306 131.572C258.507 131.995 258.328 132.5 257.905 132.701C256.529 133.356 255.053 133.689 253.517 133.689Z" fill="#2E2E2E"/>
<path d="M248.507 123.847C248.043 123.847 247.665 123.474 247.66 123.01C247.639 121.232 248.203 119.764 249.29 118.765C250.454 117.696 252.154 117.235 254.207 117.432C254.673 117.477 255.014 117.891 254.969 118.357C254.924 118.823 254.511 119.165 254.044 119.119C252.484 118.969 251.236 119.278 250.437 120.013C249.714 120.677 249.34 121.707 249.355 122.99C249.36 123.458 248.985 123.842 248.517 123.847C248.514 123.847 248.51 123.847 248.507 123.847Z" fill="#2E2E2E"/>
<path d="M322.767 133.688C321.232 133.688 319.756 133.356 318.379 132.701C317.956 132.5 317.777 131.995 317.978 131.572C318.179 131.149 318.685 130.97 319.107 131.171C320.255 131.717 321.486 131.993 322.767 131.993C327.47 131.993 331.296 128.167 331.296 123.465C331.296 118.762 327.47 114.936 322.767 114.936C322.464 114.936 322.158 114.952 321.858 114.984C321.394 115.032 320.976 114.696 320.927 114.23C320.877 113.765 321.215 113.347 321.68 113.298C322.039 113.26 322.405 113.241 322.767 113.241C328.404 113.241 332.991 117.828 332.991 123.465C332.991 129.102 328.404 133.688 322.767 133.688Z" fill="#2E2E2E"/>
<path d="M327.778 123.847C327.774 123.847 327.771 123.847 327.768 123.847C327.3 123.841 326.925 123.458 326.93 122.99C326.945 121.707 326.571 120.677 325.847 120.012C325.048 119.278 323.801 118.969 322.24 119.119C321.774 119.164 321.36 118.823 321.315 118.357C321.271 117.891 321.612 117.477 322.078 117.432C324.131 117.235 325.831 117.695 326.994 118.765C328.082 119.764 328.646 121.232 328.625 123.009C328.62 123.474 328.241 123.847 327.778 123.847Z" fill="#2E2E2E"/>
<path d="M272.804 119.09C273.96 119.09 274.898 117.492 274.898 115.521C274.898 113.549 273.96 111.951 272.804 111.951C271.647 111.951 270.71 113.549 270.71 115.521C270.71 117.492 271.647 119.09 272.804 119.09Z" fill="#2E2E2E"/>
<path d="M304.214 119.09C305.37 119.09 306.308 117.492 306.308 115.521C306.308 113.549 305.37 111.951 304.214 111.951C303.057 111.951 302.12 113.549 302.12 115.521C302.12 117.492 303.057 119.09 304.214 119.09Z" fill="#2E2E2E"/>
<path d="M286.726 132.454C286.685 132.454 286.643 132.451 286.602 132.445C285.011 132.212 281.702 131.727 281.56 128.38C281.455 125.892 283.428 124.339 285.335 122.837L285.439 122.755C286.635 121.813 287.995 119.504 287.687 113.854C287.661 113.386 288.02 112.987 288.487 112.961C288.954 112.935 289.354 113.294 289.379 113.761C289.659 118.881 288.686 122.355 286.488 124.087L286.384 124.169C284.667 125.52 283.185 126.687 283.254 128.308C283.323 129.935 284.624 130.442 286.848 130.768C287.311 130.836 287.631 131.266 287.563 131.729C287.501 132.151 287.139 132.454 286.726 132.454Z" fill="#2E2E2E"/>
<path d="M263.382 108.559C263.201 108.559 263.018 108.501 262.863 108.381C262.494 108.094 262.426 107.562 262.713 107.192C265.751 103.276 273.105 101.588 278.143 103.651C278.576 103.829 278.784 104.324 278.606 104.757C278.429 105.19 277.934 105.397 277.501 105.22C273.166 103.444 266.63 104.908 264.052 108.231C263.885 108.446 263.635 108.559 263.382 108.559Z" fill="#2E2E2E"/>
<path d="M311.434 108.559C311.181 108.559 310.931 108.446 310.764 108.231C308.187 104.908 301.651 103.444 297.315 105.22C296.882 105.397 296.387 105.19 296.21 104.757C296.033 104.323 296.24 103.829 296.673 103.651C301.711 101.588 309.066 103.276 312.103 107.192C312.39 107.562 312.323 108.094 311.953 108.381C311.799 108.501 311.616 108.559 311.434 108.559Z" fill="#2E2E2E"/>
<path d="M309.183 179.407C308.851 179.407 308.536 179.211 308.4 178.885C305.832 172.726 305.051 160.862 304.966 156.811C304.957 156.343 305.328 155.955 305.796 155.946C306.26 155.933 306.651 156.307 306.661 156.775C306.775 162.283 307.774 172.979 309.964 178.233C310.144 178.665 309.94 179.161 309.508 179.341C309.402 179.386 309.291 179.407 309.183 179.407Z" fill="#2E2E2E"/>
<path d="M267.667 179.41C267.551 179.41 267.433 179.386 267.321 179.335C266.893 179.144 266.702 178.643 266.894 178.216C269.241 172.975 270.038 162.703 270.139 157.46C270.148 156.992 270.534 156.622 271.002 156.629C271.47 156.638 271.842 157.025 271.833 157.493C271.805 158.973 271.468 172.149 268.44 178.909C268.3 179.223 267.99 179.41 267.667 179.41Z" fill="#2E2E2E"/>
<path d="M223.785 363.777C223.751 359.406 222.966 256.621 222.966 232.61C222.966 232.142 223.345 231.763 223.813 231.763C224.281 231.763 224.661 232.142 224.661 232.61C224.661 256.614 225.446 359.394 225.48 363.757L224.632 363.771L223.785 363.777Z" fill="#2E2E2E"/>
<path d="M153.001 294.026C146.942 294.026 140.185 293.93 132.733 293.738C111.505 293.191 92.2837 292.025 92.0921 292.014L91.3501 291.968L89.0261 258.589L89.8202 258.488C90.4239 258.411 150.169 250.788 171.445 246.344C176.513 240.465 181.158 234.753 185.653 229.226C197.843 214.236 208.371 201.29 221.513 192.128C233.229 183.959 248.162 179.071 267.163 177.186C267.628 177.139 268.043 177.48 268.09 177.945C268.136 178.411 267.796 178.826 267.33 178.873C248.625 180.729 233.955 185.519 222.482 193.518C209.535 202.544 199.077 215.404 186.968 230.296C182.41 235.9 177.698 241.694 172.541 247.668L172.354 247.884L172.074 247.943C152.303 252.115 98.0518 259.139 90.8282 260.067L92.9378 290.366C100.886 290.829 169.842 294.682 186.986 290.089C202.961 285.81 222.905 266.47 223.104 266.275C223.439 265.948 223.976 265.954 224.303 266.289C224.63 266.624 224.623 267.161 224.288 267.488C224.238 267.537 219.142 272.495 212.109 277.921C202.629 285.234 194.324 289.878 187.424 291.727C181.71 293.257 170.165 294.026 153.001 294.026Z" fill="#2E2E2E"/>
<path d="M287.947 188.7C287.947 188.7 272.529 202.243 270.697 204.412C268.658 201.283 263.439 177.995 263.439 177.995L268.183 174.255L287.947 188.7Z" fill="white"/>
<path d="M271.064 206.023C270.818 206.023 270.574 205.916 270.406 205.71C270.111 205.347 270.166 204.813 270.529 204.518C273.463 202.133 284.293 191.641 287.214 188.802L268.21 175.314L263.963 178.661C263.596 178.95 263.063 178.888 262.773 178.52C262.483 178.152 262.547 177.62 262.914 177.33L268.156 173.197L289.854 188.598L289.126 189.307C288.553 189.866 275.041 203.034 271.599 205.833C271.441 205.961 271.252 206.023 271.064 206.023Z" fill="#2E2E2E"/>
<path d="M289.112 188.7C289.112 188.7 303.913 202.244 305.745 204.413C307.785 201.284 313.211 178.405 313.211 178.405L308.466 174.665L289.112 188.7Z" fill="white"/>
<path d="M305.781 206.66C305.588 206.66 305.395 206.595 305.236 206.461C302.046 203.781 288.502 189.882 287.927 189.292L287.237 188.583L308.902 173.197L314.144 177.33C314.512 177.62 314.575 178.153 314.285 178.52C313.996 178.888 313.462 178.951 313.095 178.661L308.849 175.314L289.833 188.818C292.699 191.75 303.605 202.877 306.327 205.164C306.685 205.465 306.731 205.999 306.43 206.358C306.262 206.557 306.022 206.66 305.781 206.66Z" fill="#2E2E2E"/>
<path d="M288.293 364.619C287.825 364.619 287.446 364.239 287.446 363.771V276.995L262.617 179.202C262.503 178.748 262.778 178.287 263.232 178.173C263.686 178.059 264.147 178.335 264.261 178.789L289.141 276.785V363.771C289.141 364.239 288.761 364.619 288.293 364.619Z" fill="white"/>
<path d="M27.4595 283.078C27.2709 283.078 27.081 283.015 26.9236 282.886C26.7967 282.783 25.6844 281.832 25.6917 280.395C25.6967 279.425 26.2025 278.53 27.1953 277.735C28.2872 276.861 30.1666 277.065 32.7675 277.348C34.8606 277.575 37.2329 277.832 39.6239 277.565C46.0989 276.842 50.8464 274.167 53.6886 272.051C56.8722 269.68 58.4164 267.439 58.6491 266.702C58.3718 266.525 57.8872 266.594 56.3296 266.946C55.5046 267.133 54.4779 267.365 53.1677 267.579C49.3662 268.201 41.4561 269.494 40.266 264.731C39.9278 263.377 39.9979 262.375 40.4867 261.576C41.3649 260.14 43.3688 259.676 46.6884 258.906C47.5086 258.715 48.4383 258.5 49.4441 258.248C52.6471 257.445 54.6749 256.874 56.3043 256.415C58.1412 255.897 59.5921 255.489 61.8036 255.002C65.8401 254.114 72.6499 254.995 80.02 257.359C82.071 258.017 83.5969 258.558 84.823 258.993C87.4689 259.932 88.4588 260.283 89.9125 260.11C90.3774 260.053 90.799 260.386 90.8546 260.851C90.91 261.315 90.5783 261.737 90.1137 261.793C88.2663 262.014 87.0098 261.568 84.2563 260.591C83.0411 260.159 81.5288 259.623 79.5024 258.973C72.511 256.731 65.8687 255.843 62.1679 256.657C60.0046 257.133 58.5747 257.536 56.7642 258.046C55.1243 258.508 53.0833 259.084 49.8562 259.892C48.8361 260.148 47.8987 260.365 47.0716 260.557C44.2827 261.204 42.4402 261.631 41.9328 262.46C41.7844 262.703 41.6208 263.159 41.9108 264.32C42.7226 267.569 49.8509 266.404 52.8945 265.907C54.154 265.7 55.153 265.474 55.9558 265.293C57.8613 264.862 59.12 264.577 60.1007 265.753C60.4385 266.158 60.4647 266.725 60.1782 267.438C58.9965 270.376 51.458 277.949 39.8122 279.25C37.2358 279.538 34.6569 279.258 32.5846 279.033C30.7239 278.831 28.8003 278.622 28.2546 279.059C27.681 279.518 27.3891 279.97 27.3869 280.404C27.3837 281.044 27.9903 281.569 27.9964 281.574C28.3589 281.87 28.4126 282.404 28.1164 282.766C27.9487 282.972 27.7051 283.078 27.4595 283.078Z" fill="#2E2E2E"/>
<path d="M49.704 297.373C47.4222 297.373 45.2322 297.201 43.0785 296.785C40.8981 296.364 35.7024 295.107 34.5496 292.532C34.1983 291.748 34.2574 290.923 34.7202 290.147C35.9805 288.035 38.7056 288.557 41.8612 289.161C43.3781 289.452 45.0974 289.781 46.8252 289.856C51.7075 290.07 56.7252 287.582 56.7752 287.557C57.1933 287.347 57.7026 287.516 57.9128 287.934C58.1227 288.352 57.9545 288.861 57.5365 289.072C57.3163 289.182 52.0823 291.783 46.7512 291.55C44.8999 291.469 43.116 291.127 41.5423 290.826C38.6191 290.266 36.7961 289.976 36.1757 291.016C35.9963 291.316 35.9725 291.563 36.0965 291.839C36.6364 293.045 39.6396 294.395 43.3999 295.121C49.6109 296.321 56.3126 295.378 64.797 294.185L65.7208 294.055C71.627 293.227 76.5237 290.064 80.4583 287.523C82.3081 286.328 83.9055 285.296 85.3025 284.71C88.5632 283.341 89.9807 283.289 91.4552 283.672C91.9082 283.79 92.1799 284.253 92.0622 284.706C91.9444 285.159 91.4815 285.43 91.0288 285.313C90.0544 285.06 89.0626 284.969 85.9586 286.272C84.6995 286.801 83.1603 287.795 81.378 288.946C77.3035 291.578 72.2328 294.853 65.9563 295.734L65.0331 295.864C59.2603 296.676 54.2972 297.373 49.704 297.373Z" fill="#2E2E2E"/>
<path d="M63.8111 278.397C63.363 278.397 62.9888 278.045 62.9655 277.593C62.9415 277.125 63.3008 276.727 63.7684 276.703C68.6158 276.453 71.6579 273.914 74.8785 271.226C75.1634 270.988 75.4478 270.751 75.7326 270.516C76.0937 270.218 76.6278 270.269 76.9256 270.63C77.2234 270.992 77.1722 271.526 76.8112 271.823C76.5289 272.056 76.2471 272.292 75.9647 272.527C72.6722 275.275 69.2677 278.117 63.8554 278.395C63.8406 278.396 63.8258 278.397 63.8111 278.397Z" fill="#2E2E2E"/>
<path d="M35.0322 294.073C31.1836 294.073 27.5778 292.972 26.006 291.259C25.3371 290.53 25.0477 289.699 25.169 288.858C25.6389 285.598 28.828 285.621 34.1118 285.658C36.469 285.675 39.4024 285.696 42.9184 285.48C46.6165 285.252 51.656 282.803 51.7066 282.778C52.1268 282.572 52.6344 282.746 52.8404 283.166C53.0463 283.587 52.8726 284.094 52.4524 284.3C52.2342 284.407 47.0609 286.923 43.0224 287.171C39.4485 287.391 36.4829 287.37 34.0998 287.353C28.9031 287.318 27.093 287.391 26.8466 289.1C26.8292 289.221 26.7758 289.591 27.2548 290.113C28.6172 291.597 32.4116 292.559 36.0805 292.348C36.5478 292.32 36.9482 292.678 36.9751 293.146C37.0019 293.613 36.6447 294.014 36.1774 294.04C35.7945 294.062 35.4121 294.073 35.0322 294.073Z" fill="#2E2E2E"/>
<path d="M26.1459 288.787C26.0334 288.787 25.919 288.764 25.8092 288.716C24.7593 288.261 24.0214 287.5 23.6752 286.514C23.2996 285.445 23.4138 284.166 23.9806 283.092C24.7537 281.628 26.9522 281.174 30.9002 281.663C33.9859 282.046 40.1163 282.373 43.5195 281.175C43.9611 281.02 44.4448 281.252 44.6002 281.693C44.7556 282.135 44.5236 282.619 44.0821 282.774C40.6226 283.991 34.7068 283.843 30.692 283.345C26.4 282.814 25.6173 283.623 25.4797 283.884C25.2091 284.396 25.0131 285.209 25.2744 285.952C25.4628 286.488 25.8696 286.895 26.4838 287.161C26.9132 287.348 27.1104 287.846 26.9241 288.276C26.7852 288.596 26.4733 288.787 26.1459 288.787Z" fill="#2E2E2E"/>
<path d="M293.9 206.66H283.157L278.575 197.969C278.357 197.555 278.515 197.043 278.929 196.825C279.344 196.606 279.856 196.765 280.074 197.179L284.18 204.965H292.911L296.765 198.146C296.996 197.738 297.513 197.594 297.92 197.825C298.328 198.055 298.471 198.572 298.241 198.98L293.9 206.66Z" fill="#2E2E2E"/>
<path d="M277.725 235.686C277.669 235.686 277.612 235.68 277.554 235.668C277.096 235.574 276.8 235.127 276.894 234.668L282.838 205.642C282.932 205.184 283.379 204.888 283.838 204.982C284.297 205.076 284.592 205.524 284.498 205.983L278.555 235.008C278.472 235.409 278.119 235.686 277.725 235.686Z" fill="#2E2E2E"/>
<path d="M299.276 235.033C298.879 235.033 298.524 234.752 298.445 234.348L292.885 205.975C292.795 205.516 293.094 205.071 293.553 204.981C294.011 204.891 294.458 205.19 294.548 205.65L300.109 234.022C300.199 234.481 299.899 234.927 299.44 235.017C299.385 235.027 299.33 235.033 299.276 235.033Z" fill="#2E2E2E"/>
<path d="M288.287 278.305C288.218 278.305 288.148 278.297 288.078 278.279C287.624 278.163 287.35 277.702 287.465 277.249L312.729 177.786C312.844 177.333 313.306 177.059 313.759 177.174C314.213 177.289 314.487 177.75 314.372 178.204L289.108 277.666C289.011 278.05 288.666 278.305 288.287 278.305Z" fill="#2E2E2E"/>
<path d="M288.294 278.304C288.028 278.304 287.767 278.18 287.601 277.947L269.337 252.18L271.307 236.696L260.12 232.865L259.98 232.49C259.956 232.427 257.56 226.009 255.072 216.485C252.775 207.693 249.923 196.368 249.383 182.817C249.364 182.349 249.728 181.955 250.196 181.936C250.662 181.921 251.058 182.281 251.077 182.749C252.031 206.692 260.265 228.291 261.43 231.522L273.163 235.54L271.102 251.738L288.984 276.966C289.255 277.348 289.165 277.877 288.783 278.148C288.634 278.254 288.463 278.304 288.294 278.304Z" fill="white"/>
<path d="M288.43 278.305C288.261 278.305 288.089 278.255 287.941 278.149C287.559 277.878 287.469 277.349 287.739 276.967L305.622 251.739L303.56 235.541L315.293 231.523C316.459 228.292 324.692 207.693 325.647 183.75C325.665 183.283 326.056 182.92 326.528 182.937C326.995 182.956 327.359 183.35 327.341 183.818C326.8 197.369 323.949 207.694 321.652 216.486C319.164 226.01 316.768 232.428 316.744 232.491L316.604 232.866L305.416 236.697L307.387 252.181L289.122 277.948C288.957 278.181 288.696 278.305 288.43 278.305Z" fill="white"/>
<path d="M288.937 145.729C287.176 145.729 285.402 145.427 283.753 144.793C283.317 144.625 283.098 144.135 283.266 143.698C283.434 143.261 283.924 143.043 284.361 143.211C288.84 144.932 294.574 143.833 297.416 140.711C297.731 140.366 298.267 140.34 298.613 140.655C298.96 140.97 298.985 141.506 298.67 141.853C296.399 144.347 292.699 145.729 288.937 145.729Z" fill="#2E2E2E"/>
<path d="M305.611 59.0106C291.227 53.7501 275.438 57.7794 270.289 69.4788C270.306 69.665 270.325 69.8567 270.344 70.0484C265.989 70.0265 259.378 70.0239 257.387 70.1913C254.337 70.448 249.56 72.9173 246.325 76.302C243.09 79.6866 241.003 86.0398 240.329 89.4378C239.655 92.8359 240.634 99.9908 241.278 102.993C241.922 105.995 246.813 115.195 246.813 115.195C246.813 115.195 249.236 115.123 251.139 114.629C253.041 114.134 254.24 113.444 254.24 113.444C254.24 113.444 254.033 110.287 254.24 106.69C254.446 103.093 257.63 96.8213 260.653 93.5664C263.675 90.3114 271.457 85.1316 271.457 85.1316L271.873 82.9623C271.941 83.5763 272.008 84.1974 272.074 84.83C291.534 88.9703 294.286 108.425 307.967 112.713C315.687 115.133 342.997 122.957 344.098 90.023C322.811 93.9994 327.011 66.8368 305.611 59.0106Z" fill="url(#paint4_linear_3081_818)"/>
<path d="M304.487 62.0975C325.234 70.1267 318.201 93.1801 343.427 93.0047C343.262 97.9326 342.507 101.942 341.322 105.199C343.063 101.589 344.186 96.8552 344.392 90.6947C323.105 94.6713 327.304 67.5087 305.905 59.6825C291.521 54.422 275.732 58.4512 270.583 70.1506C270.593 70.2694 270.606 70.392 270.617 70.5139C276.589 60.3298 291.029 56.8888 304.487 62.0975Z" fill="white"/>
<path d="M246.063 78.6112C249.298 75.2265 254.124 73.0983 257.125 72.5006C261.204 71.6884 265.503 71.2061 269.954 72.0613C269.936 71.8698 270.044 71.9744 270.027 71.7881C270.292 71.1857 270.592 70.6087 270.912 70.047C266.557 70.0258 260.061 70.0248 258.09 70.1905C255.041 70.4471 250.263 72.9165 247.028 76.3011C245.162 78.2528 243.681 81.1904 242.63 83.9806C243.562 81.9611 244.711 80.026 246.063 78.6112Z" fill="white"/>
<path d="M323.053 116.708C316.756 116.708 310.768 114.73 307.656 113.501C301.575 111.099 297.294 106.163 292.76 100.938C287.201 94.5303 281.453 87.9042 271.88 85.6546L271.292 85.5167L271.23 84.9167C270.918 81.886 270.56 79.0206 270.244 76.4923C269.915 73.8551 269.63 71.5776 269.445 69.5558L269.425 69.3376L269.513 69.137C272.071 63.326 277.306 59.0401 284.256 57.069C290.98 55.1618 298.668 55.5686 305.902 58.2144C315.994 61.9051 320.539 69.7454 324.549 76.6629C329.268 84.8041 332.996 91.2343 343.942 89.1895L344.98 88.9956L344.945 90.0509C344.562 101.511 341.2 109.401 334.951 113.5C331.317 115.883 327.12 116.708 323.053 116.708ZM272.854 84.1486C282.605 86.6464 288.417 93.3451 294.041 99.8274C298.434 104.892 302.584 109.675 308.279 111.925C313.154 113.851 325.423 117.722 334.021 112.082C339.597 108.425 342.685 101.344 343.207 91.0303C338.169 91.7691 334.223 90.8139 330.855 88.0568C327.694 85.4689 325.454 81.6044 323.082 77.513C319.217 70.8445 314.835 63.2863 305.32 59.8063C290.991 54.5662 276.04 58.8793 271.153 69.6215C271.336 71.5615 271.61 73.756 271.926 76.2822C272.222 78.6534 272.555 81.3206 272.854 84.1486Z" fill="#2E2E2E"/>
<path d="M254.425 114.979C253.998 114.979 253.631 114.658 253.584 114.224C252.78 106.846 254.515 100.241 258.741 94.5925C261.809 90.4917 266.118 86.9688 271.55 84.1214C271.965 83.9042 272.477 84.0642 272.694 84.4785C272.911 84.893 272.751 85.4053 272.337 85.6227C263.635 90.1843 253.61 98.8175 255.269 114.04C255.319 114.505 254.983 114.924 254.518 114.974C254.487 114.978 254.456 114.979 254.425 114.979Z" fill="#2E2E2E"/>
<path d="M247.638 117.009C247.41 117.009 247.183 116.918 247.016 116.737C242.037 111.358 238.569 99.8938 239.285 91.1813C239.887 83.8598 242.612 78.1338 247.385 74.1627C252.89 69.5819 260.839 67.6705 270.374 68.6353C270.84 68.6825 271.179 69.0982 271.132 69.5638C271.085 70.0294 270.667 70.3681 270.203 70.3217C261.132 69.4042 253.616 71.1827 248.469 75.4657C244.059 79.1349 241.537 84.4691 240.974 91.3203C240.292 99.6231 243.56 110.509 248.26 115.586C248.578 115.93 248.557 116.466 248.213 116.784C248.05 116.935 247.844 117.009 247.638 117.009Z" fill="#2E2E2E"/>
<path d="M127.248 126.258C147.791 126.258 164.444 109.605 164.444 89.0622C164.444 68.5194 147.791 51.8662 127.248 51.8662C106.705 51.8662 90.0518 68.5194 90.0518 89.0622C90.0518 109.605 106.705 126.258 127.248 126.258Z" fill="url(#paint5_linear_3081_818)"/>
<path d="M114.843 66.3809H107.122V103.569H114.843V66.3809Z" fill="url(#paint6_linear_3081_818)"/>
<path d="M106.577 66.9268V67.6751H113.435V104.115H114.298V66.9268H106.577Z" fill="white"/>
<path d="M131.481 80.0801H123.76V103.569H131.481V80.0801Z" fill="white"/>
<path d="M123.76 80.3672L123.388 81.3251H129.991V104.295H131.109V80.3672H123.76Z" fill="white"/>
<path d="M148.125 73.5557H140.404V103.569H148.125V73.5557Z" fill="url(#paint7_linear_3081_818)"/>
<path d="M140.442 73.8369L139.765 74.9523H146.648V104.287H147.486V73.8369H140.442Z" fill="white"/>
<path d="M115.575 104.301H106.39V65.6484H115.575V104.301ZM107.854 102.837H114.111V67.1126H107.854V102.837Z" fill="white"/>
<path d="M132.213 104.301H123.029V79.3477H132.213V104.301ZM124.493 102.837H130.749V80.8118H124.493V102.837Z" fill="white"/>
<path d="M148.857 104.301H139.672V72.8232H148.857V104.301ZM141.136 102.837H147.393V74.2872H141.136V102.837Z" fill="white"/>
<path d="M151.491 110.364H103.425C103.021 110.364 102.693 110.037 102.693 109.632C102.693 109.228 103.021 108.9 103.425 108.9H151.491C151.895 108.9 152.223 109.228 152.223 109.632C152.223 110.037 151.895 110.364 151.491 110.364Z" fill="white"/>
<path d="M467.606 123.777C488.762 123.777 505.913 106.626 505.913 85.4695C505.913 64.3129 488.762 47.1621 467.606 47.1621C446.449 47.1621 429.298 64.3129 429.298 85.4695C429.298 106.626 446.449 123.777 467.606 123.777Z" fill="url(#paint8_linear_3081_818)"/>
<path d="M461.651 98.4404H451.897V108.193H461.651V98.4404Z" fill="#C1C7D6"/>
<path d="M486.954 112.777H448.744C447.784 112.777 447.006 111.999 447.006 111.039V60.477C447.006 59.5173 447.784 58.7393 448.744 58.7393H486.954C487.913 58.7393 488.692 59.5173 488.692 60.477V111.039C488.692 111.999 487.913 112.777 486.954 112.777Z" fill="white"/>
<path d="M449.598 62.5844C449.598 61.6247 450.376 60.8466 451.336 60.8466H488.205V59.8998C488.205 58.94 487.427 58.1621 486.467 58.1621L448.827 58.8041C447.867 58.8041 447.216 59.3028 447.216 60.2623L446.52 110.462C446.52 111.422 447.298 112.2 448.258 112.2H449.599L449.598 62.5844Z" fill="white"/>
<path d="M486.954 113.885H448.744C447.175 113.885 445.898 112.609 445.898 111.04V60.4772C445.898 58.9082 447.175 57.6318 448.744 57.6318H486.954C488.522 57.6318 489.799 58.9082 489.799 60.4772V111.04C489.799 112.609 488.522 113.885 486.954 113.885ZM448.744 59.847C448.396 59.847 448.114 60.1297 448.114 60.4772V111.04C448.114 111.387 448.396 111.67 448.744 111.67H486.954C487.301 111.67 487.584 111.387 487.584 111.04V60.4772C487.584 60.1297 487.301 59.847 486.954 59.847H448.744Z" fill="white"/>
<path d="M461.088 73.0763H452.46C452.149 73.0763 451.897 72.8243 451.897 72.5135V63.886C451.897 63.5752 452.149 63.3232 452.46 63.3232H461.088C461.399 63.3232 461.651 63.5752 461.651 63.886V72.5135C461.651 72.8243 461.399 73.0763 461.088 73.0763Z" fill="url(#paint9_linear_3081_818)"/>
<path d="M461.088 90.6348H452.46C452.149 90.6348 451.897 90.3828 451.897 90.0721V81.4446C451.897 81.1338 452.149 80.8818 452.46 80.8818H461.088C461.399 80.8818 461.651 81.1338 461.651 81.4446V90.0721C461.651 90.383 461.399 90.6348 461.088 90.6348Z" fill="url(#paint10_linear_3081_818)"/>
<path d="M461.088 108.193H452.46C452.149 108.193 451.897 107.941 451.897 107.631V99.0032C451.897 98.6924 452.149 98.4404 452.46 98.4404H461.088C461.399 98.4404 461.651 98.6924 461.651 99.0032V107.631C461.651 107.941 461.399 108.193 461.088 108.193Z" fill="url(#paint11_linear_3081_818)"/>
<path d="M461.088 74.184H452.46C451.539 74.184 450.79 73.4346 450.79 72.5136V63.8862C450.79 62.9651 451.539 62.2158 452.46 62.2158H461.088C462.009 62.2158 462.758 62.9651 462.758 63.8862V72.5136C462.758 73.4346 462.009 74.184 461.088 74.184ZM453.006 71.9688H460.543V64.4311H453.006V71.9688Z" fill="#2E2E2E"/>
<path d="M461.088 91.7426H452.46C451.539 91.7426 450.79 90.9932 450.79 90.0722V81.4448C450.79 80.5237 451.539 79.7744 452.46 79.7744H461.088C462.009 79.7744 462.758 80.5237 462.758 81.4448V90.0722C462.758 90.9934 462.009 91.7426 461.088 91.7426ZM453.006 89.5274H460.543V81.9897H453.006V89.5274Z" fill="#2E2E2E"/>
<path d="M461.088 109.3H452.46C451.539 109.3 450.79 108.551 450.79 107.63V99.0024C450.79 98.0813 451.539 97.332 452.46 97.332H461.088C462.009 97.332 462.758 98.0813 462.758 99.0024V107.63C462.758 108.551 462.009 109.3 461.088 109.3ZM453.006 107.085H460.543V99.5472H453.006V107.085Z" fill="#2E2E2E"/>
<path d="M456.17 72.5709L452.666 69.2105C452.225 68.7871 452.21 68.0859 452.634 67.6445C453.057 67.2029 453.758 67.1884 454.2 67.6118L455.854 69.1985L459.102 64.6424C459.458 64.1444 460.149 64.0285 460.647 64.3835C461.145 64.7386 461.261 65.4303 460.906 65.9283L456.17 72.5709Z" fill="white"/>
<path d="M456.17 90.1294L452.666 86.769C452.225 86.3455 452.21 85.6444 452.634 85.2029C453.057 84.7613 453.758 84.7468 454.2 85.1703L455.854 86.757L459.102 82.201C459.458 81.703 460.149 81.5871 460.647 81.9421C461.145 82.2972 461.261 82.9889 460.906 83.4869L456.17 90.1294Z" fill="white"/>
<path d="M483.101 64.4309H466.909C466.297 64.4309 465.801 63.935 465.801 63.3234C465.801 62.7117 466.297 62.2158 466.909 62.2158H483.101C483.713 62.2158 484.209 62.7117 484.209 63.3234C484.209 63.9352 483.713 64.4309 483.101 64.4309Z" fill="#2E2E2E"/>
<path d="M483.101 69.1927H466.909C466.297 69.1927 465.801 68.6967 465.801 68.0851C465.801 67.4734 466.297 66.9775 466.909 66.9775H483.101C483.713 66.9775 484.209 67.4734 484.209 68.0851C484.209 68.6967 483.713 69.1927 483.101 69.1927Z" fill="#2E2E2E"/>
<path d="M478.988 73.9544H466.909C466.297 73.9544 465.801 73.4585 465.801 72.8468C465.801 72.2352 466.297 71.7393 466.909 71.7393H478.988C479.6 71.7393 480.096 72.2352 480.096 72.8468C480.096 73.4585 479.6 73.9544 478.988 73.9544Z" fill="#2E2E2E"/>
<path d="M483.101 82.1038H466.909C466.297 82.1038 465.801 81.6079 465.801 80.9962C465.801 80.3846 466.297 79.8887 466.909 79.8887H483.101C483.713 79.8887 484.209 80.3846 484.209 80.9962C484.209 81.6079 483.713 82.1038 483.101 82.1038Z" fill="#2E2E2E"/>
<path d="M483.101 86.8655H466.909C466.297 86.8655 465.801 86.3696 465.801 85.7579C465.801 85.1463 466.297 84.6504 466.909 84.6504H483.101C483.713 84.6504 484.209 85.1463 484.209 85.7579C484.209 86.3696 483.713 86.8655 483.101 86.8655Z" fill="#2E2E2E"/>
<path d="M481.329 91.6272H466.909C466.297 91.6272 465.801 91.1313 465.801 90.5197C465.801 89.908 466.297 89.4121 466.909 89.4121H481.329C481.94 89.4121 482.436 89.908 482.436 90.5197C482.436 91.1313 481.94 91.6272 481.329 91.6272Z" fill="#2E2E2E"/>
<path d="M483.101 99.6634H466.909C466.297 99.6634 465.801 99.1675 465.801 98.5558C465.801 97.9442 466.297 97.4482 466.909 97.4482H483.101C483.713 97.4482 484.209 97.9442 484.209 98.5558C484.209 99.1675 483.713 99.6634 483.101 99.6634Z" fill="#2E2E2E"/>
<path d="M483.101 104.424H466.909C466.297 104.424 465.801 103.928 465.801 103.317C465.801 102.705 466.297 102.209 466.909 102.209H483.101C483.713 102.209 484.209 102.705 484.209 103.317C484.209 103.928 483.713 104.424 483.101 104.424Z" fill="#2E2E2E"/>
<path d="M483.101 109.186H466.909C466.297 109.186 465.801 108.69 465.801 108.078C465.801 107.467 466.297 106.971 466.909 106.971H483.101C483.713 106.971 484.209 107.467 484.209 108.078C484.209 108.69 483.713 109.186 483.101 109.186Z" fill="#2E2E2E"/>
<path d="M520.715 235.792C545.959 235.792 566.424 215.327 566.424 190.082C566.424 164.838 545.959 144.373 520.715 144.373C495.47 144.373 475.005 164.838 475.005 190.082C475.005 215.327 495.47 235.792 520.715 235.792Z" fill="url(#paint12_linear_3081_818)"/>
<path d="M520.715 225.889C511.15 225.889 502.158 222.165 495.395 215.402C488.632 208.639 484.908 199.647 484.908 190.082C484.908 180.518 488.632 171.526 495.395 164.763C502.158 158 511.15 154.275 520.715 154.275C530.279 154.275 539.271 158 546.034 164.763C552.797 171.526 556.522 180.518 556.522 190.082C556.522 199.647 552.797 208.639 546.034 215.402C539.271 222.165 530.279 225.889 520.715 225.889ZM520.715 155.612C501.708 155.612 486.245 171.076 486.245 190.082C486.245 209.089 501.708 224.552 520.715 224.552C539.722 224.552 555.185 209.089 555.185 190.082C555.185 171.076 539.722 155.612 520.715 155.612Z" fill="white"/>
<path d="M539.732 191.732V206.465C539.732 206.825 539.44 207.116 539.081 207.116H503.798C503.439 207.116 503.147 206.825 503.147 206.465V191.732H539.732Z" fill="url(#paint13_linear_3081_818)"/>
<path d="M539.081 207.785H503.798C503.07 207.785 502.479 207.193 502.479 206.466V191.733C502.479 191.364 502.778 191.064 503.147 191.064C503.516 191.064 503.816 191.364 503.816 191.733V206.448H539.063V191.733C539.063 191.364 539.363 191.064 539.732 191.064C540.101 191.064 540.4 191.364 540.4 191.733V206.466C540.4 207.193 539.808 207.785 539.081 207.785Z" fill="white"/>
<path d="M528.363 180.346C527.993 180.346 527.694 180.047 527.694 179.678V175.184C527.694 173.968 526.705 172.979 525.488 172.979H517.39C516.174 172.979 515.185 173.968 515.185 175.184V179.678C515.185 180.047 514.885 180.346 514.516 180.346C514.147 180.346 513.848 180.047 513.848 179.678V175.184C513.848 173.231 515.437 171.642 517.39 171.642H525.488C527.442 171.642 529.031 173.231 529.031 175.184V179.678C529.031 180.047 528.732 180.346 528.363 180.346Z" fill="white"/>
<path d="M518.792 196.904L502.466 191.507C502.323 191.46 502.226 191.326 502.226 191.176V180.027C502.226 179.834 502.382 179.678 502.575 179.678H540.303C540.496 179.678 540.653 179.834 540.653 180.027V191.176C540.653 191.326 540.556 191.46 540.413 191.507L523.964 196.945L518.792 196.904Z" fill="url(#paint14_linear_3081_818)"/>
<path d="M503.752 181.615C503.752 181.422 503.909 181.265 504.102 181.265H541.417V180.471C541.417 180.278 541.26 180.122 541.067 180.122H503.339C503.146 180.122 502.99 180.278 502.99 180.471V191.62C502.99 191.771 503.087 191.904 503.23 191.952L503.752 192.124V181.615Z" fill="#F6F6F6"/>
<path d="M523.964 197.614C523.684 197.614 523.423 197.436 523.33 197.155C523.214 196.805 523.404 196.427 523.755 196.311L539.984 190.946V180.347H502.895V190.946L519.002 196.27C519.353 196.386 519.543 196.764 519.427 197.115C519.311 197.465 518.933 197.656 518.582 197.54L502.256 192.143C501.839 192.005 501.558 191.616 501.558 191.176V180.028C501.558 179.466 502.015 179.01 502.576 179.01H540.304C540.865 179.01 541.321 179.466 541.321 180.028V191.176C541.321 191.616 541.041 192.005 540.623 192.143L524.174 197.58C524.104 197.603 524.034 197.614 523.964 197.614Z" fill="white"/>
<path d="M523.721 200.606H519.158C519.023 200.606 518.915 200.497 518.915 200.363V194.529C518.915 194.395 519.023 194.286 519.158 194.286H523.721C523.855 194.286 523.964 194.395 523.964 194.529V200.363C523.964 200.497 523.855 200.606 523.721 200.606Z" fill="url(#paint15_linear_3081_818)"/>
<path d="M520.227 201.152V195.765C520.227 195.598 520.363 195.462 520.53 195.462H524.647C524.674 195.462 524.699 195.466 524.725 195.469C524.634 195.233 524.407 195.064 524.139 195.064H520.01C519.849 195.064 519.718 195.195 519.718 195.356V200.755C519.718 201.076 519.959 201.337 520.27 201.376C520.243 201.307 520.227 201.231 520.227 201.152Z" fill="#F6F6F6"/>
<path d="M523.721 201.275H519.158C518.655 201.275 518.246 200.866 518.246 200.363V194.53C518.246 194.027 518.655 193.618 519.158 193.618H523.721C524.224 193.618 524.633 194.027 524.633 194.53V200.363C524.633 200.866 524.224 201.275 523.721 201.275ZM519.583 199.938H523.296V194.955H519.583V199.938Z" fill="white"/>
<path d="M63.2067 237.559C91.13 237.559 113.766 214.922 113.766 186.999C113.766 159.076 91.13 136.439 63.2067 136.439C35.2833 136.439 12.647 159.076 12.647 186.999C12.647 214.922 35.2833 237.559 63.2067 237.559Z" fill="url(#paint16_linear_3081_818)"/>
<path d="M61.8905 212.542C61.6603 212.587 53.6064 211.798 52.1318 213.408C50.6573 215.018 52.1318 216.721 52.1318 216.721L52.9871 217.746C52.9871 217.746 51.1905 218.833 51.4931 220.02C51.7956 221.207 53.0974 222.498 53.0974 222.498C53.0974 222.498 51.2254 223.833 51.54 225.457C51.8544 227.08 53.9709 227.453 53.9709 227.453L56.766 227.999C56.766 227.999 59.6809 231.519 61.8907 232.016C64.1005 232.512 65.2325 232.678 66.5771 231.283C67.9217 229.888 69.0575 229.034 69.0575 229.034L70.4077 227.453C70.4077 227.453 72.8737 227.5 73.9426 226.945C75.0115 226.389 75.388 225.106 74.9195 224.318C74.4509 223.529 73.4922 222.382 73.4922 222.382C73.4922 222.382 75.1036 221.913 74.9195 220.497C74.7352 219.081 74.1664 217.608 73.5843 217.542C73.0023 217.476 74.6296 216.931 74.7699 215.906C74.9103 214.88 74.5446 213.441 73.8623 213.036C73.18 212.632 61.8905 212.542 61.8905 212.542Z" fill="url(#paint17_linear_3081_818)"/>
<path d="M64.319 232.015C60.2666 231.422 59.2035 227.453 59.2035 227.453L56.3254 226.7C56.3254 226.7 54.3212 226.599 54.0068 224.975C53.6924 223.352 55.5258 222.497 55.5258 222.497C55.5258 222.497 53.9952 221.901 53.9215 220.02C53.8735 218.796 55.4155 217.746 55.4155 217.746L54.5882 216.998C54.5882 216.998 52.482 215.202 54.5603 213.408C55.2677 212.797 57.0286 212.469 58.9413 212.406C56.4143 212.336 53.0661 212.425 52.1663 213.408C50.6918 215.018 52.1663 216.721 52.1663 216.721L53.0216 217.746C53.0216 217.746 51.225 218.833 51.5276 220.02C51.8301 221.207 53.1319 222.497 53.1319 222.497C53.1319 222.497 51.2599 223.833 51.5745 225.456C51.8889 227.08 54.0054 227.453 54.0054 227.453L56.8005 227.998C56.8005 227.998 59.7154 231.519 61.9252 232.015C63.3786 232.342 64.3651 232.523 65.2532 232.213C64.9626 232.157 64.6592 232.065 64.319 232.015Z" fill="white"/>
<path d="M72.4419 218.516H61.3229C60.7856 218.516 60.3501 218.08 60.3501 217.543C60.3501 217.005 60.7857 216.57 61.3229 216.57H72.4419C73.2718 216.57 73.9468 215.895 73.9468 215.065C73.9468 214.235 73.2718 213.56 72.4419 213.56H53.9713C53.1414 213.56 52.4664 214.235 52.4664 215.065C52.4664 215.895 53.1414 216.57 53.9713 216.57H56.9981C57.5355 216.57 57.9709 217.005 57.9709 217.543C57.9709 218.08 57.5353 218.516 56.9981 218.516H53.9713C52.0686 218.516 50.5206 216.968 50.5206 215.065C50.5206 213.162 52.0685 211.614 53.9713 211.614H72.4419C74.3446 211.614 75.8926 213.162 75.8926 215.065C75.8926 216.968 74.3447 218.516 72.4419 218.516Z" fill="white"/>
<path d="M61.1578 223.471H53.9713C52.0686 223.471 50.5206 221.923 50.5206 220.02C50.5206 218.117 52.0685 216.569 53.9713 216.569H56.9981C57.5355 216.569 57.9709 217.005 57.9709 217.542C57.9709 218.08 57.5353 218.515 56.9981 218.515H53.9713C53.1414 218.515 52.4664 219.19 52.4664 220.02C52.4664 220.85 53.1414 221.525 53.9713 221.525H61.1578C61.6951 221.525 62.1306 221.961 62.1306 222.498C62.1306 223.035 61.6951 223.471 61.1578 223.471Z" fill="white"/>
<path d="M72.4421 223.471H66.4438C65.9065 223.471 65.471 223.035 65.471 222.498C65.471 221.961 65.9066 221.525 66.4438 221.525H72.4421C73.2719 221.525 73.947 220.85 73.947 220.02C73.947 219.19 73.2719 218.515 72.4421 218.515H61.5934C61.056 218.515 60.6205 218.08 60.6205 217.542C60.6205 217.005 61.0561 216.569 61.5934 216.569H72.4421C74.3447 216.569 75.8928 218.117 75.8928 220.02C75.8928 221.923 74.3449 223.471 72.4421 223.471Z" fill="white"/>
<path d="M72.4419 228.427H53.9713C52.0686 228.427 50.5206 226.879 50.5206 224.976C50.5206 223.073 52.0685 221.525 53.9713 221.525H60.9175C61.4549 221.525 61.8903 221.961 61.8903 222.498C61.8903 223.036 61.4547 223.471 60.9175 223.471H53.9713C53.1414 223.471 52.4664 224.146 52.4664 224.976C52.4664 225.806 53.1414 226.481 53.9713 226.481H72.4419C73.2718 226.481 73.9468 225.806 73.9468 224.976C73.9468 224.146 73.2718 223.471 72.4419 223.471H66.1734C65.636 223.471 65.2006 223.036 65.2006 222.498C65.2006 221.961 65.6362 221.525 66.1734 221.525H72.4419C74.3446 221.525 75.8926 223.073 75.8926 224.976C75.8926 226.879 74.3447 228.427 72.4419 228.427Z" fill="white"/>
<path d="M53.2312 213.605C52.7596 213.605 52.3455 213.262 52.2711 212.781C51.7978 209.726 50.1023 206.659 48.3073 203.412C45.2299 197.844 41.7421 191.534 42.9049 183.006C43.7392 176.888 46.566 171.947 51.0795 168.72C54.5431 166.243 58.9632 164.822 63.2062 164.822C65.4999 164.822 67.9211 165.251 70.2076 166.062C70.7139 166.241 70.9789 166.798 70.7992 167.304C70.6196 167.81 70.0633 168.075 69.5572 167.896C66.9291 166.964 64.6529 166.768 63.2062 166.768C57.2177 166.768 46.609 170.243 44.8327 183.269C43.757 191.158 47.0791 197.168 50.0102 202.47C51.8912 205.873 53.6678 209.087 54.1938 212.483C54.2761 213.014 53.9122 213.511 53.3814 213.594C53.331 213.602 53.2807 213.605 53.2312 213.605Z" fill="white"/>
<path d="M73.1813 213.605C73.1318 213.605 73.0816 213.601 73.0311 213.593C72.5002 213.511 72.1365 213.014 72.2187 212.483C72.7448 209.087 74.5215 205.873 76.4024 202.47C79.3334 197.167 82.6555 191.158 81.5797 183.269C81.1794 180.333 80.2969 177.707 78.9569 175.463C78.6813 175.002 78.8321 174.405 79.2934 174.129C79.7546 173.853 80.3519 174.004 80.6274 174.465C82.1025 176.936 83.0716 179.809 83.5075 183.006C84.6705 191.534 81.1825 197.844 78.1051 203.411C76.3101 206.659 74.6146 209.726 74.1413 212.781C74.067 213.261 73.6528 213.605 73.1813 213.605Z" fill="white"/>
<path d="M63.2041 233.113C59.8362 233.113 56.798 230.988 55.6439 227.825C55.4597 227.32 55.7195 226.762 56.2242 226.578C56.7288 226.393 57.2874 226.653 57.4717 227.158C58.3468 229.556 60.6504 231.167 63.2041 231.167C65.7636 231.167 68.0692 229.551 68.941 227.146C69.1242 226.641 69.682 226.379 70.1872 226.563C70.6923 226.746 70.9534 227.304 70.7703 227.809C69.6203 230.981 66.5797 233.113 63.2041 233.113Z" fill="white"/>
<path d="M68.3595 213.516C68.2829 213.516 68.2051 213.507 68.1274 213.488C67.6055 213.36 67.286 212.833 67.4138 212.312C68.605 207.447 69.9055 201.888 70.521 197.535C71.357 191.624 70.5939 190.267 70.227 189.958C70.1659 189.907 70.0229 189.786 69.5323 190.141C69.1728 190.401 68.826 190.77 68.5063 191.197C68.9706 192.229 69.181 193.35 69.1366 194.317C69.048 196.248 67.9903 197.455 66.4384 197.402C65.6715 197.373 65.0888 196.898 64.8797 196.129C64.5588 194.95 65.2045 192.88 66.2353 191.127C65.7027 190.41 64.9514 189.885 63.9886 189.833C63.2557 189.791 62.661 190.362 62.239 190.971C63.2135 192.861 63.9018 195.123 63.2361 196.671C62.8311 197.613 61.9757 198.191 60.8275 198.299C60.2364 198.354 59.7039 198.083 59.3655 197.552C58.4979 196.193 58.9886 193.089 60.0087 190.958C59.7646 190.561 59.4985 190.175 59.2152 189.814C58.7453 189.214 58.0951 189.253 57.7497 189.329C57.1424 189.462 56.3455 189.99 56.0989 191.036C55.3927 194.032 57.2031 201.758 58.8004 208.573C59.1072 209.883 59.397 211.119 59.6702 212.325C59.789 212.849 59.4604 213.37 58.9366 213.489C58.4122 213.607 57.8914 213.279 57.7727 212.755C57.5009 211.556 57.2121 210.323 56.906 209.017C55.1794 201.65 53.394 194.031 54.205 190.59C54.5785 189.005 55.8057 187.764 57.3316 187.428C58.6597 187.136 59.9362 187.579 60.7468 188.614C60.8861 188.792 61.0301 188.987 61.1753 189.196C62.0204 188.288 63.0253 187.831 64.095 187.89C65.4829 187.966 66.5855 188.597 67.4016 189.491C67.787 189.052 68.1906 188.684 68.5948 188.426C69.6191 187.772 70.6707 187.788 71.4803 188.47C72.8942 189.66 73.1926 192.54 72.4476 197.808C71.82 202.245 70.5061 207.864 69.3037 212.774C69.195 213.218 68.7974 213.516 68.3595 213.516ZM61.1788 193.387C60.8472 194.641 60.8039 195.809 60.9304 196.313C61.3153 196.212 61.4026 196.009 61.4488 195.902C61.6731 195.38 61.5485 194.447 61.1788 193.387ZM67.1752 193.62C66.8791 194.365 66.7101 195.031 66.7237 195.416C67.1016 195.24 67.1781 194.551 67.1931 194.227C67.2019 194.034 67.1958 193.83 67.1752 193.62Z" fill="white"/>
<path d="M63.2062 158.87C62.6688 158.87 62.2333 158.434 62.2333 157.897V146.008C62.2333 145.471 62.6689 145.035 63.2062 145.035C63.7435 145.035 64.179 145.471 64.179 146.008V157.897C64.1791 158.434 63.7435 158.87 63.2062 158.87Z" fill="white"/>
<path d="M85.5194 169.527C85.2662 169.527 85.0134 169.429 84.8228 169.233C84.4477 168.849 84.4554 168.233 84.8401 167.858L93.3731 159.536C93.7577 159.161 94.3737 159.169 94.7488 159.553C95.124 159.938 95.1163 160.554 94.7315 160.929L86.1986 169.251C86.0093 169.435 85.7643 169.527 85.5194 169.527Z" fill="white"/>
<path d="M42.4473 169.527C42.2025 169.527 41.9573 169.435 41.7681 169.251L33.2352 160.929C32.8505 160.554 32.8427 159.938 33.2179 159.553C33.593 159.169 34.2091 159.161 34.5936 159.536L43.1266 167.858C43.5112 168.233 43.5189 168.849 43.1437 169.233C42.9533 169.429 42.7005 169.527 42.4473 169.527Z" fill="white"/>
<path d="M36.5504 187.414H23.6438C23.1064 187.414 22.671 186.978 22.671 186.441C22.671 185.903 23.1066 185.468 23.6438 185.468H36.5504C37.0878 185.468 37.5232 185.903 37.5232 186.441C37.5232 186.978 37.0878 187.414 36.5504 187.414Z" fill="white"/>
<path d="M103.689 187.414H90.7828C90.2454 187.414 89.81 186.978 89.81 186.441C89.81 185.903 90.2456 185.468 90.7828 185.468H103.689C104.227 185.468 104.662 185.903 104.662 186.441C104.662 186.978 104.227 187.414 103.689 187.414Z" fill="white"/>
<path d="M359.311 65.3362C376.718 65.3362 390.829 51.2248 390.829 33.8175C390.829 16.4102 376.718 2.29883 359.311 2.29883C341.903 2.29883 327.792 16.4102 327.792 33.8175C327.792 51.2248 341.903 65.3362 359.311 65.3362Z" fill="url(#paint18_linear_3081_818)"/>
<path d="M357.089 31.3277L356.358 7.92871C352.121 8.25722 347.914 9.68771 344.186 12.3083C336.941 17.3997 333.297 25.7031 333.821 33.9371L357.089 31.3277Z" fill="#C1C7D6"/>
<path d="M346.574 12.3091C349.609 10.1761 352.961 8.83188 356.388 8.22833L356.378 7.92969C352.142 8.2582 347.935 9.68869 344.206 12.3091C336.962 17.4007 333.317 25.704 333.842 33.938L336.197 33.6738C335.766 25.5268 339.407 17.3462 346.574 12.3091Z" fill="white"/>
<path d="M362.236 36.1275L381.207 50.7228C386.927 42.5149 387.233 31.2794 381.147 22.6199C376.462 15.9533 369.056 12.3392 361.488 12.2129L362.236 36.1275Z" fill="url(#paint19_linear_3081_818)"/>
<path d="M364.416 36.1275L363.675 12.407C362.783 12.294 361.885 12.228 360.985 12.2129L361.732 36.1274L380.704 50.7226C381.018 50.272 380.897 50.4553 381.178 49.9874L364.416 36.1275Z" fill="white"/>
<path d="M333.032 34.8788L332.975 33.9914C332.704 29.7354 333.516 25.4455 335.323 21.5855C337.186 17.6047 340.082 14.157 343.699 11.6154C347.418 9.0015 351.773 7.43461 356.292 7.08418L357.177 7.01562L357.96 32.0832L333.032 34.8788ZM355.539 8.85965C351.64 9.31088 347.9 10.7341 344.673 13.0021C338.122 17.6065 334.409 25.0284 334.627 32.9945L356.217 30.5731L355.539 8.85965Z" fill="white"/>
<path d="M381.197 51.5492C381.001 51.5492 380.808 51.4847 380.651 51.3644L361.401 36.5547L360.613 11.3506L361.502 11.3654C365.418 11.4307 369.321 12.4149 372.788 14.2111C376.374 16.0684 379.504 18.8077 381.84 22.1324C384.885 26.4642 386.479 31.5432 386.451 36.8202C386.424 41.9814 384.862 46.9416 381.932 51.1643C381.791 51.3662 381.573 51.5018 381.333 51.5389C381.288 51.5459 381.243 51.5492 381.197 51.5492ZM363.07 35.7003L381.007 49.4991C386.165 41.4655 385.976 30.9644 380.454 23.1071C376.291 17.1848 369.58 13.4857 362.364 13.0919L363.07 35.7003Z" fill="white"/>
<path d="M362.534 60.2516C361.674 60.2516 360.813 60.207 359.952 60.117C357.459 59.8563 354.9 59.2123 352.747 58.3037C348.283 56.4196 344.476 53.3645 341.738 49.4689C339.499 46.2825 338.054 42.7265 337.444 38.8998L337.305 38.0232L362.05 35.2485C362.515 35.1964 362.935 35.5309 362.987 35.9963C363.039 36.4613 362.704 36.8807 362.239 36.9328L339.274 39.5079C339.914 42.7458 341.207 45.7648 343.125 48.4943C345.68 52.1297 349.235 54.9817 353.406 56.7421C355.409 57.5875 357.796 58.1874 360.129 58.4313C365.74 59.0178 371.406 57.5317 376.081 54.2462C377.735 53.0841 379.232 51.7179 380.532 50.1855C380.835 49.8285 381.369 49.7847 381.727 50.0875C382.084 50.3903 382.127 50.9251 381.825 51.2821C380.431 52.9242 378.827 54.3881 377.056 55.633C372.762 58.6505 367.687 60.2514 362.534 60.2516Z" fill="white"/>
<path d="M229.172 56.7372C244.84 56.7372 257.541 44.0361 257.541 28.3686C257.541 12.7011 244.84 0 229.172 0C213.505 0 200.804 12.7011 200.804 28.3686C200.804 44.0361 213.505 56.7372 229.172 56.7372Z" fill="url(#paint20_linear_3081_818)"/>
<path d="M246.461 15.3078C246.33 15.0688 246.03 14.9808 245.792 15.1114L242.844 16.7211C242.643 16.8308 242.396 16.7848 242.243 16.6144C240.972 15.1996 239.497 14.0259 237.89 13.1112C237.691 12.9979 237.594 12.7661 237.658 12.5464L238.605 9.32086C238.682 9.0595 238.532 8.78558 238.271 8.70879L232.169 6.91754C231.907 6.84089 231.633 6.99042 231.557 7.25178L230.61 10.4773C230.545 10.697 230.338 10.8396 230.109 10.8273C228.263 10.7282 226.388 10.9186 224.553 11.4218C224.333 11.4824 224.099 11.3874 223.99 11.1865L222.38 8.23899C222.249 7.99997 221.95 7.91201 221.711 8.04255L216.129 11.0907C215.89 11.2213 215.803 11.5209 215.933 11.7599L217.543 14.7074C217.653 14.9083 217.606 15.1556 217.436 15.3088C216.021 16.5802 214.848 18.0548 213.933 19.6619C213.819 19.861 213.588 19.9582 213.368 19.8937L210.142 18.9468C209.881 18.8702 209.607 19.0197 209.53 19.2811L207.897 25.4362C207.82 25.6976 207.812 25.9185 208.073 25.9952L211.299 26.9421C211.519 27.0066 211.661 27.2137 211.649 27.4425C211.55 29.289 211.74 31.164 212.243 32.9984C212.304 33.2193 212.209 33.4522 212.008 33.5619L209.061 35.1715C208.822 35.3021 208.734 35.6017 208.864 35.8405L211.913 41.422C212.043 41.6611 212.343 41.749 212.582 41.6185L215.529 40.0089C215.73 39.8991 215.977 39.9452 216.13 40.1155C217.402 41.5305 218.876 42.7041 220.483 43.6187C220.683 43.7321 220.78 43.9639 220.715 44.1836L219.768 47.4091C219.692 47.6705 219.841 47.9444 220.103 48.0212L226.205 49.8124C226.466 49.8891 226.74 49.7395 226.817 49.4782L227.764 46.2527C227.828 46.0328 228.035 45.8904 228.264 45.9027C230.111 46.0018 231.986 45.8114 233.82 45.3082C234.041 45.2477 234.274 45.3425 234.384 45.5434L235.993 48.4908C236.124 48.7299 236.424 48.8178 236.662 48.6873L242.244 45.6391C242.483 45.5085 242.571 45.2089 242.44 44.9699L240.831 42.0225C240.721 41.8216 240.767 41.5742 240.937 41.4212C242.352 40.1497 243.526 38.6751 244.441 37.068C244.554 36.8689 244.786 36.7718 245.005 36.8363L248.231 37.7831C248.492 37.8598 248.766 37.7101 248.843 37.4489L250.634 31.3468C250.711 31.0854 250.561 30.8115 250.3 30.7347L247.075 29.7879C246.855 29.7234 246.712 29.5163 246.724 29.2875C246.824 27.4409 246.633 25.5659 246.13 23.7314C246.069 23.5107 246.164 23.2777 246.365 23.1679L249.313 21.5582C249.552 21.4276 249.64 21.128 249.509 20.8891L246.461 15.3078ZM234.936 37.6893C228.679 41.0218 221.987 38.5675 219.71 33.8594C216.985 28.2268 219.346 21.2577 223.936 18.751C228.526 16.2442 235.138 17.222 238.491 22.5835C241.264 27.0176 239.552 35.2308 234.936 37.6893Z" fill="white"/>
<path d="M217.408 15.3177C215.993 16.5892 214.819 18.0638 213.904 19.6709C213.885 19.7054 213.858 19.7323 213.832 19.7604L215.569 20.2702C215.789 20.3347 216.02 20.2376 216.134 20.0385C217.048 18.4314 218.222 16.9568 219.637 15.6853C219.807 15.5323 219.853 15.285 219.744 15.0841L218.134 12.1366C218.003 11.8976 218.091 11.5981 218.33 11.4674L222.782 9.0362L222.352 8.24807C222.221 8.00905 221.922 7.9211 221.682 8.05164L216.101 11.0998C215.862 11.2304 215.774 11.53 215.905 11.769L217.514 14.7165C217.624 14.9173 217.578 15.1647 217.408 15.3177Z" fill="white"/>
<path d="M222.304 48.3979C222.042 48.3213 221.893 48.0472 221.969 47.7858L222.916 44.5603C222.981 44.3404 222.884 44.1087 222.685 43.9955C221.078 43.0808 219.603 41.9071 218.331 40.4923C218.178 40.3219 217.931 40.2759 217.73 40.3856L216.834 40.8751C217.93 41.9556 219.145 42.8822 220.456 43.628C220.655 43.7414 220.752 43.9731 220.687 44.1929L219.74 47.4184C219.664 47.6797 219.813 47.9537 220.075 48.0304L226.177 49.8217C226.362 49.876 226.55 49.8128 226.673 49.6807L222.304 48.3979Z" fill="white"/>
<path d="M211.065 36.2171C210.935 35.9781 211.023 35.6786 211.262 35.5481L214.209 33.9383C214.41 33.8286 214.505 33.5956 214.444 33.3748C213.941 31.5403 213.751 29.6653 213.85 27.8189C213.862 27.5901 213.72 27.383 213.5 27.3185L210.274 26.3716C210.013 26.295 209.864 26.0209 209.94 25.7596L211.731 19.6575C211.754 19.5814 211.796 19.5185 211.847 19.4642L210.114 18.9556C209.853 18.879 209.579 19.0285 209.502 19.2899L208.931 21.2336L207.995 24.4244L207.711 25.392C207.634 25.6533 207.784 25.9272 208.045 26.004L211.271 26.9509C211.49 27.0154 211.633 27.2225 211.621 27.4513C211.521 29.2978 211.712 31.1728 212.215 33.0074C212.276 33.2281 212.181 33.4611 211.98 33.5708L209.032 35.1806C208.793 35.3111 208.705 35.6107 208.836 35.8496L211.884 41.4311C212.015 41.6701 212.314 41.7581 212.553 41.6276L213.683 41.0106L211.065 36.2171Z" fill="white"/>
<path d="M226.343 50.6797C226.219 50.6797 226.092 50.6622 225.966 50.6254L219.864 48.8341C219.521 48.7333 219.237 48.5046 219.065 48.1903C218.894 47.876 218.855 47.5137 218.955 47.1701L219.823 44.2151C218.285 43.3087 216.896 42.1911 215.688 40.8875L212.988 42.3621C212.339 42.7162 211.523 42.4767 211.169 41.8281L208.121 36.2467C207.766 35.5978 208.006 34.7819 208.655 34.4277L211.355 32.9531C210.911 31.2322 210.721 29.4598 210.79 27.6757L207.982 26.8513C207.249 26.6363 206.819 25.8628 207.024 25.127L208.714 19.0537C208.926 18.333 209.672 17.9255 210.381 18.1335L213.336 19.0009C214.243 17.4626 215.36 16.0739 216.664 14.866L215.189 12.166C215.018 11.8517 214.979 11.4894 215.08 11.1458C215.181 10.8022 215.409 10.5185 215.723 10.3469L221.305 7.29859C221.954 6.94453 222.77 7.18383 223.124 7.83261L224.599 10.5326C226.319 10.0886 228.092 9.8989 229.876 9.96801L230.743 7.0128C230.952 6.30356 231.699 5.89631 232.407 6.10405L238.509 7.89544C238.853 7.99638 239.137 8.22493 239.308 8.5392C239.48 8.85361 239.519 9.21591 239.418 9.5595L238.551 12.5144C240.089 13.4207 241.478 14.5384 242.686 15.842L245.385 14.3674C245.7 14.1958 246.062 14.157 246.406 14.2577C246.749 14.3586 247.033 14.5871 247.205 14.9014L250.253 20.4828C250.607 21.1317 250.367 21.9476 249.719 22.3019L247.019 23.7765C247.463 25.4974 247.653 27.2698 247.584 29.0541L250.539 29.9215C250.882 30.0223 251.166 30.251 251.338 30.5653C251.509 30.8795 251.548 31.2418 251.447 31.5854L249.656 37.6875C249.555 38.031 249.327 38.3148 249.012 38.4864C248.698 38.658 248.336 38.697 247.992 38.5963L245.037 37.7289C244.131 39.2671 243.013 40.6559 241.709 41.8637L243.184 44.5637C243.538 45.2125 243.299 46.0285 242.65 46.3827L237.069 49.431C236.42 49.7854 235.604 49.5457 235.25 48.897L233.775 46.1972C232.054 46.641 230.282 46.8309 228.497 46.7618L227.63 49.717C227.459 50.3003 226.923 50.6797 226.343 50.6797ZM220.682 47.3075L226.104 48.8991L226.951 46.0137C227.126 45.416 227.682 45.0205 228.301 45.0557C230.097 45.153 231.881 44.962 233.605 44.4881C234.203 44.3235 234.829 44.5905 235.127 45.1369L236.567 47.7734L241.527 45.0649L240.087 42.4286C239.789 41.8823 239.902 41.2114 240.364 40.797C241.694 39.6028 242.82 38.2045 243.708 36.6414C244.015 36.1017 244.647 35.8479 245.244 36.0229L248.13 36.8698L249.721 31.4478L246.836 30.6007C246.238 30.4254 245.844 29.87 245.878 29.2501C245.975 27.4547 245.784 25.6701 245.311 23.9462C245.146 23.3485 245.413 22.7225 245.959 22.424L248.596 20.9841L245.887 16.0246L243.251 17.4646C242.704 17.7627 242.034 17.649 241.619 17.1877C240.425 15.8571 239.027 14.7319 237.464 13.8434C236.924 13.5365 236.67 12.9049 236.845 12.3074L237.692 9.42184L232.27 7.83024L231.423 10.7156C231.248 11.3133 230.692 11.7084 230.072 11.6737C228.277 11.5762 226.493 11.7675 224.769 12.2413C224.17 12.4058 223.545 12.1387 223.246 11.5924L221.806 8.95609L216.847 11.6646L218.287 14.3011C218.585 14.8472 218.471 15.5181 218.01 15.9325C216.679 17.1267 215.554 18.525 214.666 20.0881C214.359 20.6275 213.727 20.8819 213.129 20.7067L210.249 19.8611L208.734 25.3056L211.538 26.1286C212.135 26.304 212.529 26.8592 212.496 27.4791C212.399 29.2747 212.589 31.0592 213.063 32.7832C213.228 33.3811 212.961 34.007 212.415 34.3054L209.778 35.7452L212.487 40.7046L215.123 39.2648C215.669 38.9663 216.34 39.0802 216.754 39.5416C217.949 40.8723 219.347 41.9974 220.91 42.8861C221.45 43.1929 221.704 43.8246 221.529 44.4221L220.682 47.3075ZM211.059 27.7546C211.06 27.7547 211.06 27.7548 211.061 27.755L211.059 27.7546Z" fill="#2E2E2E"/>
<path d="M229.203 40.1724C228.086 40.1724 226.963 40.0124 225.862 39.689C222.837 38.8011 220.339 36.7884 218.828 34.0218C217.317 31.2551 216.974 28.0656 217.862 25.0409C218.75 22.0161 220.763 19.5182 223.529 18.0071C226.296 16.4961 229.486 16.153 232.51 17.041C235.535 17.9288 238.033 19.9415 239.544 22.7082C241.055 25.4749 241.398 28.6644 240.51 31.6892C239.622 34.7139 237.609 37.2119 234.843 38.7229C233.084 39.6837 231.153 40.1724 229.203 40.1724ZM229.172 18.2534C227.502 18.2534 225.849 18.6718 224.342 19.4949C221.972 20.7888 220.249 22.928 219.488 25.5184C218.728 28.1088 219.022 30.8402 220.316 33.2094C221.61 35.5788 223.749 37.3023 226.339 38.0628C228.93 38.8233 231.661 38.5294 234.03 37.2353C236.4 35.9414 238.123 33.8022 238.884 31.2118C239.644 28.6214 239.35 25.89 238.056 23.5208C236.762 21.1514 234.623 19.4278 232.033 18.6675C231.09 18.3905 230.128 18.2534 229.172 18.2534Z" fill="#2E2E2E"/>
<path d="M488.006 366H87.8882C87.0456 366 86.3628 365.317 86.3628 364.475C86.3628 363.632 87.0458 362.949 87.8882 362.949H488.006C488.848 362.949 489.532 363.632 489.532 364.475C489.532 365.317 488.848 366 488.006 366Z" fill="#2E2E2E"/>
<path d="M395.14 162.631L397.928 161.183L388.594 156.228L387.284 166.713L390.071 165.265L422.644 227.952L427.713 225.318L395.14 162.631Z" fill="white"/>
<path d="M422.283 229.095L389.71 166.408L386.243 168.209L387.906 154.902L399.751 161.191L396.283 162.992L428.856 225.679L422.283 229.095ZM390.433 164.122L423.006 226.809L426.57 224.957L393.998 162.27L396.106 161.175L389.283 157.552L388.325 165.217L390.433 164.122Z" fill="#2E2E2E"/>
<path d="M405.87 149.871C405.564 149.871 405.268 149.705 405.117 149.415L394.131 128.271C393.915 127.855 394.077 127.344 394.492 127.128C394.908 126.912 395.419 127.074 395.635 127.489L406.621 148.633C406.837 149.048 406.675 149.56 406.26 149.776C406.135 149.841 406.002 149.871 405.87 149.871Z" fill="#2E2E2E"/>
<path d="M393.824 135.192C393.801 135.192 393.778 135.192 393.754 135.19C393.288 135.152 392.94 134.743 392.978 134.277C393.109 132.65 393.626 127.511 393.649 127.293L393.775 126.033L401.353 130.088C401.766 130.309 401.921 130.822 401.7 131.235C401.479 131.648 400.965 131.803 400.553 131.582L395.209 128.723C395.042 130.403 394.758 133.295 394.667 134.413C394.632 134.857 394.261 135.192 393.824 135.192Z" fill="#2E2E2E"/>
<path d="M154.074 199.924C153.949 199.924 153.823 199.896 153.703 199.838C153.283 199.633 153.108 199.125 153.313 198.705L172.344 159.674L173.163 160.283C173.284 160.373 184.349 168.59 188.089 171.392C191.265 165.775 206.096 140.11 206.768 138.948C207.002 138.543 207.521 138.404 207.926 138.638C208.331 138.873 208.47 139.391 208.235 139.796C208.06 140.1 190.664 170.202 189.098 173.059L188.627 173.919L187.845 173.328C185.648 171.67 175.882 164.414 172.972 162.252L154.837 199.447C154.69 199.748 154.388 199.924 154.074 199.924Z" fill="#2E2E2E"/>
<path d="M211.076 151.562C210.702 151.562 210.36 151.313 210.258 150.934L207.284 139.859L196.34 144.454C195.908 144.635 195.411 144.432 195.23 144.001C195.049 143.569 195.252 143.072 195.684 142.891L208.418 137.545L211.895 150.495C212.017 150.947 211.749 151.412 211.297 151.533C211.223 151.553 211.149 151.562 211.076 151.562Z" fill="#2E2E2E"/>
<defs>
<linearGradient id="paint0_linear_3081_818" x1="445.846" y1="327.665" x2="400.105" y2="341.34" gradientUnits="userSpaceOnUse">
<stop offset="0.0056" stop-color="#CAEDEF"/>
<stop offset="1" stop-color="#B0D4D6"/>
</linearGradient>
<linearGradient id="paint1_linear_3081_818" x1="453.203" y1="363.171" x2="451.767" y2="363.601" gradientUnits="userSpaceOnUse">
<stop offset="0.0056" stop-color="#CAEDEF"/>
<stop offset="1" stop-color="#B0D4D6"/>
</linearGradient>
<linearGradient id="paint2_linear_3081_818" x1="307.698" y1="164.694" x2="273.311" y2="349.961" gradientUnits="userSpaceOnUse">
<stop offset="0.0056" stop-color="#097BA9"/>
<stop offset="1" stop-color="#9E3783"/>
</linearGradient>
<linearGradient id="paint3_linear_3081_818" x1="298.899" y1="231.235" x2="274.263" y2="233.65" gradientUnits="userSpaceOnUse">
<stop stop-color="#484857"/>
<stop offset="1" stop-color="#2E2E2E"/>
</linearGradient>
<linearGradient id="paint4_linear_3081_818" x1="323.874" y1="65.672" x2="258.961" y2="121.112" gradientUnits="userSpaceOnUse">
<stop stop-color="#0D79A8"/>
<stop offset="1" stop-color="#933C86"/>
</linearGradient>
<linearGradient id="paint5_linear_3081_818" x1="90.0518" y1="89.0621" x2="164.444" y2="89.0621" gradientUnits="userSpaceOnUse">
<stop stop-color="#097BA9"/>
<stop offset="1" stop-color="#9E3783"/>
</linearGradient>
<linearGradient id="paint6_linear_3081_818" x1="113.919" y1="85.0151" x2="105.179" y2="84.8954" gradientUnits="userSpaceOnUse">
<stop stop-color="#C1C7D6"/>
<stop offset="1" stop-color="#A5A9B8"/>
</linearGradient>
<linearGradient id="paint7_linear_3081_818" x1="147.931" y1="88.1958" x2="140.747" y2="88.9142" gradientUnits="userSpaceOnUse">
<stop stop-color="#C1C7D6"/>
<stop offset="1" stop-color="#A5A9B8"/>
</linearGradient>
<linearGradient id="paint8_linear_3081_818" x1="429.298" y1="85.4695" x2="505.913" y2="85.4695" gradientUnits="userSpaceOnUse">
<stop offset="0.0056" stop-color="#8469FF"/>
<stop offset="1" stop-color="#6A46BA"/>
</linearGradient>
<linearGradient id="paint9_linear_3081_818" x1="451.898" y1="68.1997" x2="461.651" y2="68.1997" gradientUnits="userSpaceOnUse">
<stop stop-color="#546DFF"/>
<stop offset="0.9944" stop-color="#5850F2"/>
</linearGradient>
<linearGradient id="paint10_linear_3081_818" x1="451.898" y1="85.7584" x2="461.651" y2="85.7584" gradientUnits="userSpaceOnUse">
<stop stop-color="#546DFF"/>
<stop offset="0.9944" stop-color="#5850F2"/>
</linearGradient>
<linearGradient id="paint11_linear_3081_818" x1="451.898" y1="103.317" x2="461.651" y2="103.317" gradientUnits="userSpaceOnUse">
<stop stop-color="#546DFF"/>
<stop offset="0.9944" stop-color="#5850F2"/>
</linearGradient>
<linearGradient id="paint12_linear_3081_818" x1="475.005" y1="190.082" x2="566.424" y2="190.082" gradientUnits="userSpaceOnUse">
<stop stop-color="#1874A5"/>
<stop offset="1" stop-color="#8C3F88"/>
</linearGradient>
<linearGradient id="paint13_linear_3081_818" x1="503.147" y1="199.424" x2="539.732" y2="199.424" gradientUnits="userSpaceOnUse">
<stop stop-color="#C1C7D6"/>
<stop offset="1" stop-color="#A5A9B8"/>
</linearGradient>
<linearGradient id="paint14_linear_3081_818" x1="502.226" y1="188.311" x2="540.653" y2="188.311" gradientUnits="userSpaceOnUse">
<stop stop-color="#C1C7D6"/>
<stop offset="1" stop-color="#A5A9B8"/>
</linearGradient>
<linearGradient id="paint15_linear_3081_818" x1="518.942" y1="194.854" x2="524.173" y2="200.283" gradientUnits="userSpaceOnUse">
<stop stop-color="#484857"/>
<stop offset="1" stop-color="#2E2E2E"/>
</linearGradient>
<linearGradient id="paint16_linear_3081_818" x1="12.647" y1="186.999" x2="113.766" y2="186.999" gradientUnits="userSpaceOnUse">
<stop offset="0.0056" stop-color="#8469FF"/>
<stop offset="1" stop-color="#6A46BA"/>
</linearGradient>
<linearGradient id="paint17_linear_3081_818" x1="50.0017" y1="221.415" x2="72.8044" y2="222.902" gradientUnits="userSpaceOnUse">
<stop stop-color="#7250CF"/>
<stop offset="1" stop-color="#9973FF"/>
</linearGradient>
<linearGradient id="paint18_linear_3081_818" x1="327.792" y1="33.8176" x2="390.829" y2="33.8176" gradientUnits="userSpaceOnUse">
<stop stop-color="#1675A6"/>
<stop offset="1" stop-color="#913D86"/>
</linearGradient>
<linearGradient id="paint19_linear_3081_818" x1="361.488" y1="31.4679" x2="385.605" y2="31.4679" gradientUnits="userSpaceOnUse">
<stop offset="0.0056" stop-color="#8469FF"/>
<stop offset="1" stop-color="#6A46BA"/>
</linearGradient>
<linearGradient id="paint20_linear_3081_818" x1="200.804" y1="28.3687" x2="257.541" y2="28.3687" gradientUnits="userSpaceOnUse">
<stop offset="0.0056" stop-color="#8469FF"/>
<stop offset="1" stop-color="#6A46BA"/>
</linearGradient>
</defs>
</svg>
