<svg width="413" height="415" viewBox="0 0 413 415" fill="none" xmlns="http://www.w3.org/2000/svg">
<g filter="url(#filter0_d_1797_8949)">
<path d="M289.312 250.95C338.293 169.115 339.584 79.7759 292.194 51.4054C244.805 23.0349 166.681 66.3765 117.7 148.211C68.7183 230.046 67.428 319.386 114.817 347.756C162.207 376.126 240.331 332.785 289.312 250.95Z" stroke="url(#paint0_linear_1797_8949)" stroke-miterlimit="10"/>
<path d="M292.183 347.72C339.572 319.349 338.282 230.01 289.301 148.175C240.32 66.3403 162.196 22.9988 114.806 51.3693C67.4168 79.7398 68.7071 169.079 117.688 250.914C166.669 332.749 244.793 376.09 292.183 347.72Z" stroke="url(#paint1_linear_1797_8949)" stroke-miterlimit="10"/>
<path d="M102.967 101.02C27.8116 122.21 11.867 183.533 67.3622 237.943C122.914 292.404 228.836 319.295 303.992 298.104C379.148 276.912 395.147 215.643 339.595 161.181C284.1 106.772 178.124 79.829 102.967 101.02Z" stroke="url(#paint2_linear_1797_8949)" stroke-miterlimit="10"/>
<path d="M229.873 295.623C229.873 295.623 223.076 375 211.68 375C200.202 375 171.757 306.448 171.757 306.448L229.873 295.623Z" fill="url(#paint3_linear_1797_8949)"/>
<path d="M229.873 295.623C229.873 295.623 220.163 350.115 209.155 350.469C195.886 350.895 173.73 306.356 173.73 306.356L229.873 295.623Z" fill="url(#paint4_linear_1797_8949)"/>
<path d="M144.488 287.373L144.942 288.702C150.571 302.525 194.057 320.584 208.236 316.769C222.164 313.023 231.222 298.162 235.421 283.558C239.103 270.76 237.986 254.356 233.323 249.693C228.661 245.03 214.512 233.865 190.817 235.311C167.471 236.733 160.117 246.267 152.903 253.482C144.605 261.778 142.18 279.226 144.488 287.373Z" fill="url(#paint5_linear_1797_8949)"/>
<path d="M144.488 287.373L144.942 288.702C144.942 288.702 180.56 306.074 208.925 290.865C234.909 276.933 233.325 249.692 233.325 249.692C228.662 245.029 214.514 233.863 190.819 235.309C167.473 236.731 160.119 246.266 152.904 253.48C144.605 261.778 142.18 279.226 144.488 287.373Z" fill="#DEFCFF"/>
<path d="M101.168 291.398C101.168 291.398 100.887 300.917 106.662 313.267C106.662 313.267 98.3759 316.482 95.6295 315.485C92.8831 314.49 88.7262 297.217 88.7262 297.217L96.3234 286.695L101.168 291.398Z" fill="#385BBD"/>
<path d="M174.063 242.971C174.063 245.766 182.946 248.033 193.906 248.033C204.864 248.033 213.749 245.766 213.749 242.971C213.749 240.176 204.864 237.91 193.906 237.91C182.948 237.91 174.063 240.176 174.063 242.971Z" fill="#1B4FDB"/>
<path d="M178.521 243.998C178.521 246.227 185.604 248.033 194.341 248.033C203.078 248.033 210.161 246.225 210.161 243.998C210.161 241.77 203.078 239.962 194.341 239.962C185.604 239.962 178.521 241.768 178.521 243.998Z" fill="#6DFFE5"/>
<path d="M137.939 206.27C137.939 206.27 136.421 196.082 132.548 194.676C128.675 193.27 122.438 202.975 122.438 202.975L137.939 206.27Z" fill="#DEFCFF"/>
<path d="M244.426 206.691L256.24 202.059L258.307 201.245C258.294 201.245 258.294 201.232 258.294 201.232C258.046 200.846 253.455 194.175 248.299 195.663C242.991 197.194 244.426 206.691 244.426 206.691Z" fill="#DEFCFF"/>
<path d="M154.114 91.4019C162.031 91.4019 174.2 77.4283 174.2 60.992C174.2 49.5329 165.776 43.1971 159.223 43.1971C152.669 43.1971 146.118 57.6879 146.118 72.5191C146.116 87.352 151.064 91.4019 154.114 91.4019Z" fill="#5A77E5"/>
<path d="M131.167 102.816C131.167 102.816 131.402 116.937 133.493 122.381C133.779 123.123 134.1 123.717 134.458 124.077C137.452 127.06 155.297 140.164 183.96 140.164C212.633 140.164 234.698 129.026 236.976 124.274C237.62 122.926 238.202 121.552 238.709 120.142C247.929 95.0562 237.174 61.8043 225.01 52.9182C217.374 47.3362 181.176 38.0431 159.568 54.0936C136.672 71.1216 134.879 101.381 134.879 101.381L131.167 102.816Z" fill="url(#paint6_linear_1797_8949)"/>
<path d="M208.419 221.908C208.419 221.908 206.19 246.305 195.633 246.305C184.999 246.305 170.26 226.159 170.26 226.159L208.419 221.908Z" fill="url(#paint7_linear_1797_8949)"/>
<path d="M136.721 182.512C136.721 185.655 137.205 199.619 150.038 212.453C161.053 223.468 177.029 230.843 190.884 230.843C202.243 230.843 215.725 216.796 222.342 201.756L222.369 201.714C222.976 200.336 223.527 198.943 224.01 197.55C229.759 181.036 230.351 164.135 226.353 159.034C225.223 157.586 223.982 156.263 222.658 155.064C220.631 153.203 218.384 151.604 215.999 150.253C193.902 137.695 158.735 145.193 153.745 149.675C153.193 150.171 152.655 150.709 152.119 151.273C143.917 159.971 137.809 176.5 136.858 181.477C136.764 181.92 136.721 182.264 136.721 182.512Z" fill="url(#paint8_linear_1797_8949)"/>
<path d="M133.493 122.382C133.779 123.125 134.1 123.718 134.458 124.078C137.452 127.061 155.298 140.166 183.96 140.166C212.633 140.166 234.698 129.028 236.976 124.276C237.62 122.927 238.202 121.554 238.709 120.144C238.709 120.144 230.43 125.576 219.441 124.487C208.452 123.397 164.655 111.157 133.493 122.382Z" fill="#878BC4"/>
<path d="M182.139 137.685C169.209 137.685 158.728 135.331 158.728 132.426C158.728 129.521 169.209 127.167 182.139 127.167C195.068 127.167 205.55 129.521 205.55 132.426C205.55 135.331 195.068 137.685 182.139 137.685Z" fill="#1B4FDB"/>
<path d="M164.223 131.864C164.223 134.229 172.759 136.147 183.289 136.147C193.819 136.147 202.355 134.229 202.355 131.864C202.355 129.498 193.819 127.58 183.289 127.58C172.759 127.58 164.223 129.498 164.223 131.864Z" fill="#85DEDA"/>
<path d="M202.353 131.864C202.353 131.864 195.387 148.927 183.287 148.927C171.1 148.927 164.221 131.864 164.221 131.864C168.438 126.312 198.897 126.029 202.353 131.864Z" fill="url(#paint9_linear_1797_8949)"/>
<path d="M136.723 182.518C142.705 188.5 175.597 192.15 189.636 184.592C203.674 177.033 215.994 150.253 215.994 150.253C193.901 137.695 158.73 145.2 153.753 149.681C144.735 157.779 137.867 176.181 136.853 181.472L136.723 182.518Z" fill="#DEFCFF"/>
<path d="M234.969 88.1091C226.247 88.1091 212.841 72.7153 212.841 54.6058C212.841 41.9828 222.122 35 229.342 35C236.561 35 243.781 50.9645 243.781 67.3051C243.779 83.6474 238.328 88.1091 234.969 88.1091Z" fill="#5A77E5"/>
<path d="M220.989 60.901C221.521 68.2518 224.12 75.4924 227.387 80.2556C229.812 83.8191 232.622 86.0094 235.221 85.8116C241.284 85.3545 242.844 68.4983 242.176 59.5133C241.409 49.2296 235.939 36.0002 229.652 36.0002C226.199 36.0002 223.279 40.8023 221.831 47.5841C220.989 51.5448 220.643 56.1735 220.989 60.901Z" fill="#1BBDDB"/>
<path d="M220.989 60.9011C221.521 68.2519 224.12 75.4924 227.387 80.2556C231.051 77.0634 231.991 68.3264 231.446 63.2389C230.803 57.2371 226.818 49.7874 221.831 47.5841C220.989 51.5448 220.642 56.1735 220.989 60.9011Z" fill="#7CFFBF"/>
<path d="M250.188 279.216L295.817 275.301C295.306 270.683 294.494 266.092 293.404 261.585V261.557C286.636 233.284 269.776 208.333 258.308 201.247C258.295 201.247 258.295 201.234 258.295 201.234C255.276 199.373 252.628 198.739 250.644 199.621C247.846 200.861 245.819 203.343 244.426 206.693C235.934 226.997 250.188 279.216 250.188 279.216Z" fill="url(#paint10_linear_1797_8949)"/>
<path d="M295.817 275.299C299.007 282.82 290.013 287.835 275.974 289.261C261.936 290.688 251.505 284.378 250.193 279.211C248.881 274.043 258.941 265.852 273.059 265.852C287.177 265.852 293.926 270.846 295.817 275.299Z" fill="#385BBD"/>
<path d="M90.7278 267.285L134.275 279.701C149.996 236.389 140.084 199.799 131.212 198.332C130.869 198.28 130.53 198.27 130.201 198.317C105.65 201.822 91.2093 265.157 90.7489 267.229L90.7278 267.285Z" fill="url(#paint11_linear_1797_8949)"/>
<path d="M90.7216 267.284C93.515 256.532 134.118 270.86 134.28 279.707C134.442 288.553 88.1762 277.076 90.7216 267.284Z" fill="#385BBD"/>
<path d="M222.341 201.756L222.368 201.714L228.062 192.009C228.062 192.009 237.146 172.006 227.248 156.388V156.375C227.248 156.375 222.92 152.364 216 150.255C216 150.255 215.572 151.165 214.993 152.805C212.333 160.193 206.473 182.319 222.341 201.756Z" fill="#5A77E5"/>
<path d="M222.808 189.408C222.82 189.408 222.82 189.408 222.82 189.408C224.31 191.514 226.103 192.226 227.247 191.795C229.861 190.801 236.696 167.045 227.247 156.387C227.247 156.387 226.589 156.883 225.66 158.189C224.05 160.458 221.643 165.175 220.498 173.977C219.481 181.753 220.907 186.719 222.808 189.408Z" fill="#1B4FDB"/>
<path d="M222.808 189.408C222.819 189.408 222.819 189.408 222.819 189.408C223.97 188.257 226.339 185.55 227.333 179.104C228.952 168.575 225.66 158.191 225.66 158.191C224.05 160.459 221.642 165.177 220.498 173.979C219.481 181.753 220.906 186.719 222.808 189.408Z" fill="#85DEDA"/>
<path d="M223.97 161.103C223.97 161.103 245.734 183.546 244.249 191.915C242.764 200.284 221.558 187.087 221.558 187.087C221.558 187.087 218.669 179.323 223.97 161.103Z" fill="url(#paint12_linear_1797_8949)"/>
<path d="M289.336 274.354C289.336 274.354 272.193 267.065 261.935 272.329L257.346 281.643L261.396 297.246C261.396 297.246 279.753 304.861 295.815 298.921L296.458 290.283C296.458 290.283 293.988 281.432 289.336 274.354Z" fill="#3872E0"/>
<path d="M258.921 308.099C258.921 308.099 253.837 311.473 247.627 309.044C247.627 309.044 245.975 289.33 258.545 279.21C258.545 279.21 262.746 281.685 262.071 289.466C261.395 297.246 258.921 301.935 258.921 308.099Z" fill="#4D81E3"/>
<path d="M295.817 292.846C295.817 292.846 298.184 307.83 296.46 312.554C294.737 317.278 280.794 319.2 280.794 319.2L287.988 291.903C287.988 291.903 291.496 290.283 295.817 292.846Z" fill="#427AE3"/>
<path d="M288.932 290.687C288.932 290.687 292.577 302.705 288.932 309.924C285.288 317.144 279.181 321.328 279.181 321.328C279.181 321.328 272.06 319.709 271.115 315.659C270.17 311.609 278.117 290.688 278.117 290.688H288.932V290.687Z" fill="#4D81E3"/>
<path d="M264.5 287.627C265.42 285.177 275.029 284.748 277.548 289.247C280.068 293.746 279.079 312.374 278.448 313.003C277.817 313.634 270.53 317.953 265.669 315.702C260.81 313.452 260.091 307.244 260.9 304.723C261.712 302.206 263.691 289.787 264.5 287.627Z" fill="#69A7FF"/>
<path d="M278.448 313.003C278.813 310.975 269.841 302.99 260.736 305.432C260.736 305.432 258.38 313.751 266.569 316.346C274.759 318.943 278.448 313.003 278.448 313.003Z" fill="#385BBD"/>
<path d="M123.114 275.374C123.114 275.374 109.324 263.941 95.9563 270.192C95.9563 270.192 90.0906 277.405 87.6749 288.172C87.6749 288.172 92.9084 292.034 99.1891 294.312C105.47 296.59 119.625 294.889 119.625 294.889C119.625 294.889 123.414 283.876 123.114 275.374Z" fill="#3872E0"/>
<path d="M117.044 274.288C122.277 273.876 125.161 289.416 114.907 305.088C114.907 305.088 108.195 308.897 103.344 303.305C103.344 303.305 103.247 275.376 117.044 274.288Z" fill="#4D81E3"/>
<path d="M96.042 293.01C96.042 293.01 92.9324 307.17 92.8011 316.768C92.8011 316.768 84.1533 321.855 79.0026 315.62C79.0026 315.62 80.4893 298.832 87.6731 288.17L96.042 293.01Z" fill="#4D81E3"/>
<path d="M146.116 68.5698C146.116 68.5698 168.495 54.6059 200.414 68.5698C200.414 68.5698 212.841 76.7409 212.841 92.647C212.841 92.647 196.336 95.0983 186.101 90.7388C186.101 90.7388 177.12 77.6569 161.894 77.6569C146.669 77.6569 141.475 92.647 141.475 92.647L135.291 95.5069C135.291 95.5069 139.5 75.1861 146.116 68.5698Z" fill="#0B1E7D"/>
<path d="M134.879 101.381C170.36 87.2482 231.581 111.021 231.581 111.021C240.17 106.071 238.349 85.8247 238.349 85.8247C238.349 100.23 230.267 108.088 230.267 108.088C167.316 82.2612 134.879 101.381 134.879 101.381Z" fill="#DEFCFF"/>
<path d="M134.879 101.381C170.36 87.2482 231.581 111.021 231.581 111.021L230.269 108.088C167.316 82.2612 134.879 101.381 134.879 101.381Z" fill="#DEFCFF"/>
<path d="M248.3 195.663L250.644 199.619C252.505 200.047 254.379 200.874 256.241 202.059C275.415 214.094 293.406 261.583 293.406 261.583V261.556C286.638 233.283 269.778 208.332 258.309 201.245C258.296 201.245 258.296 201.232 258.296 201.232C258.045 200.846 253.455 194.175 248.3 195.663Z" fill="#DEFCFF"/>
<path d="M152.12 151.275C180.187 138.068 212.927 148.904 216.001 150.255C216.166 150.323 215.229 151.844 215.229 151.844L220.414 152.82L227.249 156.388V156.375C227.249 156.375 222.92 152.364 216.001 150.255C193.903 137.697 158.736 145.195 153.746 149.676C153.195 150.172 152.657 150.709 152.12 151.275Z" fill="white"/>
<path d="M90.7477 267.23C106.651 210.079 127.962 200.887 131.211 198.333C130.867 198.281 130.528 198.272 130.199 198.319C105.649 201.826 91.2097 265.158 90.7477 267.23Z" fill="#DEFCFF"/>
<path d="M213.744 48.1159L213.017 51.7021C213.017 51.7021 180.591 40.8997 159.569 54.0935C159.569 54.0935 175.728 38.5927 213.744 48.1159Z" fill="white"/>
<path d="M201.453 76.1102L176.663 73.5713C176.663 73.5713 182.39 83.4772 191.562 83.4772C200.733 83.4772 201.453 76.1102 201.453 76.1102Z" fill="#85DEDA"/>
<path d="M150.906 74.1144C150.906 74.1144 143.213 75.6076 140.677 77.7476C140.677 77.7476 137.8 83.5209 141.379 83.3118C145.603 83.0653 150.906 74.1144 150.906 74.1144Z" fill="#85DEDA"/>
<path d="M87.6734 288.17C87.6734 288.17 80.2578 307.079 81.0214 314.756C81.0214 314.756 84.7114 319.506 92.7998 316.766C92.7998 316.766 85.1313 324.023 79.0013 315.618C79.0013 315.618 78.6981 301.348 87.6734 288.17Z" fill="#4D81E3"/>
<path d="M103.362 302.27C103.362 302.27 109.385 305.419 114.907 305.09C114.907 305.09 108.218 308.819 103.061 304.621L103.362 302.27Z" fill="#385BBD"/>
</g>
<defs>
<filter id="filter0_d_1797_8949" x="0.774902" y="3" width="411.433" height="412" filterUnits="userSpaceOnUse" color-interpolation-filters="sRGB">
<feFlood flood-opacity="0" result="BackgroundImageFix"/>
<feColorMatrix in="SourceAlpha" type="matrix" values="0 0 0 0 0 0 0 0 0 0 0 0 0 0 0 0 0 0 127 0" result="hardAlpha"/>
<feOffset dx="3" dy="4"/>
<feGaussianBlur stdDeviation="18"/>
<feComposite in2="hardAlpha" operator="out"/>
<feColorMatrix type="matrix" values="0 0 0 0 1 0 0 0 0 1 0 0 0 0 1 0 0 0 0.4 0"/>
<feBlend mode="normal" in2="BackgroundImageFix" result="effect1_dropShadow_1797_8949"/>
<feBlend mode="normal" in="SourceGraphic" in2="effect1_dropShadow_1797_8949" result="shape"/>
</filter>
<linearGradient id="paint0_linear_1797_8949" x1="139.869" y1="305.915" x2="267.175" y2="93.2653" gradientUnits="userSpaceOnUse">
<stop offset="0.2151" stop-color="#E4FFFB" stop-opacity="0.1921"/>
<stop offset="0.3206" stop-color="#D5FFF8" stop-opacity="0.3007"/>
<stop offset="0.6151" stop-color="#AFFFF2" stop-opacity="0.6038"/>
<stop offset="0.8519" stop-color="#98FFEE" stop-opacity="0.8476"/>
<stop offset="1" stop-color="#8FFFEC"/>
</linearGradient>
<linearGradient id="paint1_linear_1797_8949" x1="97.193" y1="263.192" x2="309.815" y2="135.929" gradientUnits="userSpaceOnUse">
<stop offset="0.2151" stop-color="#E4FFFB" stop-opacity="0.1921"/>
<stop offset="0.3206" stop-color="#D5FFF8" stop-opacity="0.3007"/>
<stop offset="0.6151" stop-color="#AFFFF2" stop-opacity="0.6038"/>
<stop offset="0.8519" stop-color="#98FFEE" stop-opacity="0.8476"/>
<stop offset="1" stop-color="#8FFFEC"/>
</linearGradient>
<linearGradient id="paint2_linear_1797_8949" x1="33.7717" y1="199.565" x2="373.211" y2="199.565" gradientUnits="userSpaceOnUse">
<stop stop-color="#8FFFEC"/>
<stop offset="0.1481" stop-color="#98FFEE" stop-opacity="0.8476"/>
<stop offset="0.3849" stop-color="#AFFFF2" stop-opacity="0.6038"/>
<stop offset="0.6794" stop-color="#D5FFF8" stop-opacity="0.3007"/>
<stop offset="0.7849" stop-color="#E4FFFB" stop-opacity="0.1921"/>
</linearGradient>
<linearGradient id="paint3_linear_1797_8949" x1="200.815" y1="375" x2="200.815" y2="295.623" gradientUnits="userSpaceOnUse">
<stop stop-color="#871573"/>
<stop offset="1" stop-color="#0045A4"/>
</linearGradient>
<linearGradient id="paint4_linear_1797_8949" x1="201.802" y1="350.471" x2="201.802" y2="295.623" gradientUnits="userSpaceOnUse">
<stop stop-color="#152480"/>
<stop offset="1" stop-color="#2F3E6B"/>
</linearGradient>
<linearGradient id="paint5_linear_1797_8949" x1="191.404" y1="317.504" x2="189.968" y2="235.259" gradientUnits="userSpaceOnUse">
<stop stop-color="#9AB5D8"/>
<stop offset="1" stop-color="#E3FFFF"/>
</linearGradient>
<linearGradient id="paint6_linear_1797_8949" x1="187.36" y1="140.123" x2="185.703" y2="45.2093" gradientUnits="userSpaceOnUse">
<stop stop-color="#9AB5D8"/>
<stop offset="1" stop-color="#E3FFFF"/>
</linearGradient>
<linearGradient id="paint7_linear_1797_8949" x1="189.341" y1="246.305" x2="189.341" y2="221.909" gradientUnits="userSpaceOnUse">
<stop stop-color="#0B0F27"/>
<stop offset="1" stop-color="#85DEDA"/>
</linearGradient>
<linearGradient id="paint8_linear_1797_8949" x1="183.769" y1="230.97" x2="182.24" y2="143.371" gradientUnits="userSpaceOnUse">
<stop stop-color="#9AB5D8"/>
<stop offset="1" stop-color="#E3FFFF"/>
</linearGradient>
<linearGradient id="paint9_linear_1797_8949" x1="183.288" y1="148.927" x2="183.288" y2="127.593" gradientUnits="userSpaceOnUse">
<stop stop-color="#0B0F27"/>
<stop offset="1" stop-color="#85DEDA"/>
</linearGradient>
<linearGradient id="paint10_linear_1797_8949" x1="269.268" y1="278.883" x2="267.873" y2="198.96" gradientUnits="userSpaceOnUse">
<stop stop-color="#9AB5D8"/>
<stop offset="1" stop-color="#E3FFFF"/>
</linearGradient>
<linearGradient id="paint11_linear_1797_8949" x1="135.148" y1="279.275" x2="101.898" y2="211.286" gradientUnits="userSpaceOnUse">
<stop stop-color="#9AB5D8"/>
<stop offset="1" stop-color="#E3FFFF"/>
</linearGradient>
<linearGradient id="paint12_linear_1797_8949" x1="245.605" y1="190.691" x2="217.375" y2="170.18" gradientUnits="userSpaceOnUse">
<stop stop-color="#0B0F27"/>
<stop offset="1" stop-color="#85DEDA"/>
</linearGradient>
</defs>
</svg>
