<svg width="222" height="218" viewBox="0 0 222 218" fill="none" xmlns="http://www.w3.org/2000/svg">
<g style="mix-blend-mode:exclusion" opacity="0.14">
<path d="M287.525 91.7251H317.925L335.925 73.7251H362.125L376.925 88.625H454.625L463.725 79.5251H487.825V78.5251H463.325L454.225 87.625H377.325L362.525 72.8251H335.525L317.525 90.8251H287.825L261.225 64.125H192.525L173.225 44.8251H165.425L152.125 31.425H127.925L97.9252 1.42505L97.2252 2.12505L127.525 32.425H151.725L165.025 45.7251H172.825L192.225 65.125H260.825L287.525 91.7251Z" fill="url(#paint0_radial_2085_365)"/>
<path d="M96.4252 3.025C95.7252 2.325 95.7252 1.225 96.4252 0.525C97.1252 -0.175 98.2252 -0.175 98.9252 0.525C99.6252 1.225 99.6252 2.325 98.9252 3.025C98.2252 3.725 97.0252 3.725 96.4252 3.025Z" fill="url(#paint1_radial_2085_365)"/>
<path d="M87.7253 215.925L108.125 195.525H122.525L147.625 170.425H159.725L176.725 187.325H198.125L219.325 166.225H252.325L268.525 182.425H304.825L323.525 163.725H358.625L362.625 167.725H385.425L395.125 157.925H445.725L453.325 165.525H490.925V164.525H453.625L446.125 157.025H394.825L385.025 166.725H363.025L359.025 162.725H323.125L304.425 181.425H268.925L252.625 165.225H218.925L197.725 186.425H177.025L160.125 169.425H147.225L122.125 194.525H107.725L87.1253 215.225L87.7253 215.925Z" fill="url(#paint2_radial_2085_365)"/>
<path d="M88.725 216.725C88.025 217.425 86.925 217.425 86.225 216.725C85.525 216.025 85.525 214.925 86.225 214.225C86.925 213.525 88.025 213.525 88.725 214.225C89.425 214.925 89.425 216.025 88.725 216.725Z" fill="url(#paint3_radial_2085_365)"/>
<path d="M17.4253 180.825L34.0253 164.225H103.025L122.825 144.425H150.625L165.825 129.225H187.725L199.125 140.625H219.925L230.525 130.025H256.325L263.025 136.825H292.525L310.325 119.025H350.625L366.725 135.125H394.425L415.025 114.425H485.925V113.525H414.625L394.025 134.125H367.125L351.025 118.025H309.925L292.125 135.925H263.425L256.725 129.125H230.125L219.625 139.625H199.525L188.125 128.325H165.425L150.225 143.525H122.425L102.625 163.325H33.6253L16.7253 180.225L17.4253 180.825Z" fill="url(#paint4_radial_2085_365)"/>
<path d="M18.4252 181.725C17.7252 182.425 16.6252 182.425 15.9252 181.725C15.2252 181.025 15.2252 179.925 15.9252 179.225C16.6252 178.525 17.7252 178.525 18.4252 179.225C19.1252 179.925 19.1252 181.025 18.4252 181.725Z" fill="url(#paint5_radial_2085_365)"/>
<path d="M266.525 123.125H289.625L305.325 107.425H357.525L371.525 121.525H389.125L411.425 99.2249H454.425L464.925 88.825H485.525V87.825H464.525L454.025 98.325H411.025L388.825 120.625H371.925L357.925 106.525H304.925L289.225 122.225H266.925L254.425 109.625H214.625L203.125 121.225H156.125L128.425 93.5249H73.2249L61.5249 81.825L60.9249 82.4249L72.8249 94.4249H128.025L155.725 122.125H203.425L215.025 110.625H254.025L266.525 123.125Z" fill="url(#paint6_radial_2085_365)"/>
<path d="M60.0253 83.425C59.3253 82.725 59.3253 81.625 60.0253 80.925C60.7253 80.225 61.8253 80.225 62.5253 80.925C63.2253 81.625 63.2253 82.725 62.5253 83.425C61.8253 84.125 60.7253 84.125 60.0253 83.425Z" fill="url(#paint7_radial_2085_365)"/>
<path d="M270.225 114.125H291.125L307.125 98.125H358.925L372.825 112.125H384.425L397.725 98.825L397.025 98.125L384.025 111.125H373.225L359.325 97.225H306.725L290.825 113.225H270.625L255.225 97.725H211.225V98.625H254.825L270.225 114.125Z" fill="url(#paint8_radial_2085_365)"/>
<path d="M211.325 99.9249C210.325 99.9249 209.525 99.1249 209.525 98.1249C209.525 97.1249 210.325 96.325 211.325 96.325C212.325 96.325 213.125 97.1249 213.125 98.1249C213.025 99.1249 212.225 99.9249 211.325 99.9249Z" fill="url(#paint9_radial_2085_365)"/>
<path d="M281.425 102.725L282.125 102.025L256.625 76.525H176.925L154.525 54.125H109.225L90.925 35.925H67.525L50.325 18.725H18.525V19.625H49.925L67.125 36.825H90.625L108.825 55.025H154.125L176.525 77.425H256.225L281.425 102.725Z" fill="url(#paint10_radial_2085_365)"/>
<path d="M18.6253 20.9249C17.6253 20.9249 16.8253 20.125 16.8253 19.125C16.8253 18.125 17.6253 17.325 18.6253 17.325C19.6253 17.325 20.4253 18.125 20.4253 19.125C20.3253 20.125 19.5253 20.9249 18.6253 20.9249Z" fill="url(#paint11_radial_2085_365)"/>
<path d="M271.025 105.825L271.725 105.125L249.025 82.525H205.125L192.025 95.625H166.525L147.025 76.225H96.1251V77.125H146.625L166.125 96.625H192.425L205.525 83.425H248.625L271.025 105.825Z" fill="url(#paint12_radial_2085_365)"/>
<path d="M96.2249 78.4249C95.2249 78.4249 94.4249 77.6249 94.4249 76.6249C94.4249 75.6249 95.2249 74.825 96.2249 74.825C97.2249 74.825 98.0249 75.6249 98.0249 76.6249C97.9249 77.6249 97.1249 78.4249 96.2249 78.4249Z" fill="url(#paint13_radial_2085_365)"/>
<path d="M172.825 87.925H188.025V86.925H173.225L152.925 66.625H93.0249L78.2249 51.8251H57.1249L45.3249 39.925L44.6249 40.6251L56.7249 52.7251H77.8249L92.6249 67.5251H152.525L172.825 87.925Z" fill="url(#paint14_radial_2085_365)"/>
<path d="M187.925 89.225C188.925 89.225 189.725 88.425 189.725 87.425C189.725 86.425 188.925 85.625 187.925 85.625C186.925 85.625 186.125 86.425 186.125 87.425C186.225 88.425 187.025 89.225 187.925 89.225Z" fill="url(#paint15_radial_2085_365)"/>
<path d="M43.725 41.625C43.025 40.925 43.025 39.825 43.725 39.125C44.425 38.425 45.525 38.425 46.225 39.125C46.925 39.825 46.925 40.925 46.225 41.625C45.525 42.325 44.425 42.325 43.725 41.625Z" fill="url(#paint16_radial_2085_365)"/>
<path d="M158.025 114.225H196.425L206.825 103.725H236.225V102.825H206.425L196.025 113.225H158.425L133.425 88.225H89.0251V89.225H133.025L158.025 114.225Z" fill="url(#paint17_radial_2085_365)"/>
<path d="M89.1253 90.5251C88.1253 90.5251 87.3253 89.7251 87.3253 88.7251C87.3253 87.7251 88.1253 86.925 89.1253 86.925C90.1253 86.925 90.9253 87.7251 90.9253 88.7251C90.9253 89.7251 90.1253 90.5251 89.1253 90.5251Z" fill="url(#paint18_radial_2085_365)"/>
<path d="M162.425 106.125H193.525L207.125 92.525H244.325V91.625H206.725L193.225 105.125H162.825L140.225 82.525H84.7252L62.9252 60.725H44.0252V61.725H62.6252L84.3252 83.425H139.825L162.425 106.125Z" fill="url(#paint19_radial_2085_365)"/>
<path d="M44.1253 63.0251C43.1253 63.0251 42.3253 62.2251 42.3253 61.2251C42.3253 60.2251 43.1253 59.425 44.1253 59.425C45.1253 59.425 45.9253 60.2251 45.9253 61.2251C45.8253 62.2251 45.1253 63.0251 44.1253 63.0251Z" fill="url(#paint20_radial_2085_365)"/>
<path d="M181.225 71.225H254.725V70.325H181.625L153.225 41.925H123.825L104.925 23.025H74.8251L55.0251 3.22498L54.3251 3.82497L74.4251 23.925H104.525L123.425 42.825H152.825L181.225 71.225Z" fill="url(#paint21_radial_2085_365)"/>
<path d="M53.4252 4.82505C52.7252 4.12505 52.7252 3.02505 53.4252 2.32505C54.1252 1.62505 55.2252 1.62505 55.9252 2.32505C56.6252 3.02505 56.6252 4.12505 55.9252 4.82505C55.3252 5.52505 54.1252 5.52505 53.4252 4.82505Z" fill="url(#paint22_radial_2085_365)"/>
<path d="M35.7251 176.925H124.825L141.525 160.225H160.425L173.425 173.225H192.525L210.225 155.525H253.625L273.425 175.225H303.325L319.125 159.525H380.825L388.925 151.425H430.225V150.525H388.525L380.425 158.525H318.725L302.925 174.325H273.825L254.025 154.625H209.825L192.125 172.325H173.825L160.825 159.325H141.125L124.425 176.025H35.7251V176.925Z" fill="url(#paint23_radial_2085_365)"/>
<path d="M35.7249 178.225C34.7249 178.225 33.9249 177.425 33.9249 176.425C33.9249 175.425 34.7249 174.625 35.7249 174.625C36.7249 174.625 37.5249 175.425 37.5249 176.425C37.5249 177.425 36.7249 178.225 35.7249 178.225Z" fill="url(#paint24_radial_2085_365)"/>
<path d="M38.3253 171.725H105.525L127.425 149.925H156.125L165.425 140.625H183.225L191.125 148.525H224.025L232.625 139.825H240.725L247.825 147.025H292.825L310.725 129.025H342.125L355.125 142.025H385.925V141.125H355.525L342.525 128.125H310.325L292.425 146.025H248.225L241.125 138.925H232.225L223.625 147.525H191.525L183.625 139.625H165.025L155.725 148.925H127.025L105.225 170.825H38.3253V171.725Z" fill="url(#paint25_radial_2085_365)"/>
<path d="M38.325 173.025C37.325 173.025 36.525 172.225 36.525 171.225C36.525 170.225 37.325 169.425 38.325 169.425C39.325 169.425 40.125 170.225 40.125 171.225C40.125 172.225 39.325 173.025 38.325 173.025Z" fill="url(#paint26_radial_2085_365)"/>
<path d="M151.725 130.325L152.425 129.625L129.725 107.025H68.5253L49.9253 88.425L49.3253 89.0251L68.2253 107.925H129.425L151.725 130.325Z" fill="url(#paint27_radial_2085_365)"/>
<path d="M150.725 131.125C151.425 131.825 152.525 131.825 153.225 131.125C153.925 130.425 153.925 129.325 153.225 128.625C152.525 127.925 151.425 127.925 150.725 128.625C150.125 129.325 150.125 130.525 150.725 131.125Z" fill="url(#paint28_radial_2085_365)"/>
<path d="M48.4252 90.025C47.7252 89.325 47.7252 88.225 48.4252 87.525C49.1252 86.825 50.2252 86.825 50.9252 87.525C51.6252 88.225 51.6252 89.325 50.9252 90.025C50.2252 90.725 49.1252 90.725 48.4252 90.025Z" fill="url(#paint29_radial_2085_365)"/>
<path d="M2.02521 169.725L19.6252 152.225H38.1252L46.7252 143.625H65.6252L75.4252 153.525H100.825L118.025 136.325H145.825V135.425H117.625L100.425 152.525H75.8252L65.9252 142.625H46.3252L37.7252 151.225H19.2252L1.4252 169.125L2.02521 169.725Z" fill="url(#paint30_radial_2085_365)"/>
<path d="M145.825 137.625C146.825 137.625 147.625 136.825 147.625 135.825C147.625 134.825 146.825 134.025 145.825 134.025C144.825 134.025 144.025 134.825 144.025 135.825C144.025 136.825 144.825 137.625 145.825 137.625Z" fill="url(#paint31_radial_2085_365)"/>
<path d="M3.02529 170.625C2.32529 171.325 1.22529 171.325 0.525293 170.625C-0.174707 169.925 -0.174707 168.825 0.525293 168.125C1.22529 167.425 2.32529 167.425 3.02529 168.125C3.72529 168.825 3.72529 169.925 3.02529 170.625Z" fill="url(#paint32_radial_2085_365)"/>
<path d="M74.9252 131.025H90.3252L102.925 118.325H125.725L136.125 128.725L136.825 128.125L126.125 117.425H102.525L89.9252 130.025H75.3252L63.4252 118.125H46.2252L36.3252 108.325L35.6252 108.925L45.8252 119.025H63.0252L74.9252 131.025Z" fill="url(#paint33_radial_2085_365)"/>
<path d="M135.125 129.625C135.825 130.325 136.925 130.325 137.625 129.625C138.325 128.925 138.325 127.825 137.625 127.125C136.925 126.425 135.825 126.425 135.125 127.125C134.425 127.825 134.425 128.925 135.125 129.625Z" fill="url(#paint34_radial_2085_365)"/>
<path d="M34.8251 109.925C34.1251 109.225 34.1251 108.125 34.8251 107.425C35.5251 106.725 36.6251 106.725 37.3251 107.425C38.0251 108.125 38.0251 109.225 37.3251 109.925C36.6251 110.625 35.5251 110.625 34.8251 109.925Z" fill="url(#paint35_radial_2085_365)"/>
<path d="M53.1251 113.425H80.7251V112.425H53.4251L32.9251 91.925L32.2251 92.625L53.1251 113.425Z" fill="url(#paint36_radial_2085_365)"/>
<path d="M80.6253 114.725C81.6253 114.725 82.4253 113.925 82.4253 112.925C82.4253 111.925 81.6253 111.125 80.6253 111.125C79.6253 111.125 78.8253 111.925 78.8253 112.925C78.9253 113.925 79.7253 114.725 80.6253 114.725Z" fill="url(#paint37_radial_2085_365)"/>
<path d="M31.4252 93.525C30.7252 92.825 30.7252 91.725 31.4252 91.025C32.1252 90.325 33.2252 90.325 33.9252 91.025C34.6252 91.725 34.6252 92.825 33.9252 93.525C33.2252 94.225 32.1252 94.225 31.4252 93.525Z" fill="url(#paint38_radial_2085_365)"/>
<path d="M66.125 136.625H103.225L110.725 129.025H126.625V128.125H110.325L102.825 135.625H66.525L57.525 126.625H38.925L11.725 99.525L11.125 100.225L38.525 127.625H57.125L66.125 136.625Z" fill="url(#paint39_radial_2085_365)"/>
<path d="M126.525 130.325C127.525 130.325 128.325 129.525 128.325 128.525C128.325 127.525 127.525 126.725 126.525 126.725C125.525 126.725 124.725 127.525 124.725 128.525C124.725 129.525 125.525 130.325 126.525 130.325Z" fill="url(#paint40_radial_2085_365)"/>
<path d="M10.225 101.225C9.525 100.525 9.525 99.425 10.225 98.725C10.925 98.025 12.025 98.025 12.725 98.725C13.425 99.425 13.425 100.525 12.725 101.225C12.025 101.825 10.925 101.825 10.225 101.225Z" fill="url(#paint41_radial_2085_365)"/>
<path d="M79.9251 145.925H101.625L110.225 137.325L109.525 136.725L101.225 145.025H79.9251V145.925Z" fill="url(#paint42_radial_2085_365)"/>
<path d="M111.125 138.325C111.825 137.625 111.825 136.525 111.125 135.825C110.425 135.125 109.325 135.125 108.625 135.825C107.925 136.525 107.925 137.625 108.625 138.325C109.325 139.025 110.425 139.025 111.125 138.325Z" fill="url(#paint43_radial_2085_365)"/>
<path d="M80.0252 147.225C79.0252 147.225 78.2252 146.425 78.2252 145.425C78.2252 144.425 79.0252 143.625 80.0252 143.625C81.0252 143.625 81.8252 144.425 81.8252 145.425C81.8252 146.425 81.0252 147.225 80.0252 147.225Z" fill="url(#paint44_radial_2085_365)"/>
<path d="M18.5253 214.225H44.8253L49.8253 209.225H78.4253L99.8253 187.925H122.425V186.925H99.4253L78.1253 208.325H49.4253L44.5253 213.225H18.5253V214.225Z" fill="url(#paint45_radial_2085_365)"/>
<path d="M122.325 189.225C123.325 189.225 124.125 188.425 124.125 187.425C124.125 186.425 123.325 185.625 122.325 185.625C121.325 185.625 120.525 186.425 120.525 187.425C120.525 188.425 121.325 189.225 122.325 189.225Z" fill="url(#paint46_radial_2085_365)"/>
<path d="M18.6253 215.525C17.6253 215.525 16.8253 214.725 16.8253 213.725C16.8253 212.725 17.6253 211.925 18.6253 211.925C19.6253 211.925 20.4253 212.725 20.4253 213.725C20.3253 214.725 19.5253 215.525 18.6253 215.525Z" fill="url(#paint47_radial_2085_365)"/>
<path d="M2.3251 204.425H43.9251L48.2251 200.125H71.9251L90.4251 181.625H116.725V180.725H90.0251L71.5251 199.225H47.8251L43.5251 203.525H2.3251V204.425Z" fill="url(#paint48_radial_2085_365)"/>
<path d="M116.625 182.925C117.625 182.925 118.425 182.125 118.425 181.125C118.425 180.125 117.625 179.325 116.625 179.325C115.625 179.325 114.825 180.125 114.825 181.125C114.825 182.125 115.625 182.925 116.625 182.925Z" fill="url(#paint49_radial_2085_365)"/>
<path d="M2.42511 205.725C1.42511 205.725 0.625122 204.925 0.625122 203.925C0.625122 202.925 1.42511 202.125 2.42511 202.125C3.42511 202.125 4.2251 202.925 4.2251 203.925C4.2251 204.925 3.42511 205.725 2.42511 205.725Z" fill="url(#paint50_radial_2085_365)"/>
<path d="M29.2252 198.025L41.5252 185.825H70.8252V184.825H41.1252L28.6252 197.325L29.2252 198.025Z" fill="url(#paint51_radial_2085_365)"/>
<path d="M70.825 187.125C71.825 187.125 72.625 186.325 72.625 185.325C72.625 184.325 71.825 183.525 70.825 183.525C69.825 183.525 69.025 184.325 69.025 185.325C69.025 186.325 69.825 187.125 70.825 187.125Z" fill="url(#paint52_radial_2085_365)"/>
<path d="M30.225 198.825C29.525 199.525 28.425 199.525 27.725 198.825C27.025 198.125 27.025 197.025 27.725 196.325C28.425 195.625 29.525 195.625 30.225 196.325C30.925 197.025 30.925 198.225 30.225 198.825Z" fill="url(#paint53_radial_2085_365)"/>
<path d="M334.325 77.725H378.725L412.325 44.125H433.425L444.225 54.925H487.425V54.325H444.425L433.625 43.525H412.025L378.425 77.125H334.625L318.525 61.025H271.325L256.225 46.025H214.525V46.625H255.925L271.025 61.625H318.325L334.325 77.725Z" fill="url(#paint54_radial_2085_365)"/>
<path d="M214.625 47.625C213.925 47.625 213.225 47.025 213.225 46.225C213.225 45.525 213.825 44.825 214.625 44.825C215.325 44.825 216.025 45.425 216.025 46.225C215.925 47.025 215.325 47.625 214.625 47.625Z" fill="url(#paint55_radial_2085_365)"/>
<path d="M315.525 178.725H352.825L379.325 152.125H395.625L401.325 157.825H419.925V157.225H401.525L395.825 151.525H379.125L352.525 178.125H315.725L306.825 169.225H252.125L235.625 152.725H188.225L171.825 169.125H56.4253V169.725H172.125L188.525 153.325H235.425L251.825 169.825H306.525L315.525 178.725Z" fill="url(#paint56_radial_2085_365)"/>
<path d="M56.5253 170.725C55.8253 170.725 55.1253 170.125 55.1253 169.325C55.1253 168.625 55.7253 167.925 56.5253 167.925C57.3253 167.925 57.9253 168.525 57.9253 169.325C57.8253 170.125 57.2253 170.725 56.5253 170.725Z" fill="url(#paint57_radial_2085_365)"/>
<path d="M88.0251 204.225H155.325L180.525 179.025H239.725V178.425H180.225L155.025 203.625H88.0251V204.225Z" fill="url(#paint58_radial_2085_365)"/>
<path d="M88.1249 205.225C87.4249 205.225 86.7249 204.625 86.7249 203.825C86.7249 203.125 87.3249 202.425 88.1249 202.425C88.8249 202.425 89.5249 203.025 89.5249 203.825C89.4249 204.625 88.8249 205.225 88.1249 205.225Z" fill="url(#paint59_radial_2085_365)"/>
<path d="M411.825 163.025H467.825V161.925H412.325L387.225 136.825H291.725L255.425 100.525H119.125V101.625H255.025L291.325 137.925H386.725L411.825 163.025Z" fill="url(#paint60_radial_2085_365)"/>
<path d="M119.225 103.125C118.025 103.125 117.125 102.225 117.125 101.025C117.125 99.8251 118.025 98.925 119.225 98.925C120.425 98.925 121.325 99.8251 121.325 101.025C121.325 102.225 120.425 103.125 119.225 103.125Z" fill="url(#paint61_radial_2085_365)"/>
<path d="M407.825 112.825L408.625 112.025L381.525 84.925H334.225L317.925 68.625H183.525V69.725H317.425L333.725 86.125H381.025L407.825 112.825Z" fill="url(#paint62_radial_2085_365)"/>
<path d="M183.625 71.325C182.425 71.325 181.525 70.425 181.525 69.225C181.525 68.025 182.425 67.125 183.625 67.125C184.825 67.125 185.725 68.025 185.725 69.225C185.725 70.325 184.725 71.325 183.625 71.325Z" fill="url(#paint63_radial_2085_365)"/>
<path d="M277.625 148.425H333.325L343.825 137.925L343.025 137.125L332.825 147.325H278.025L243.325 112.625H192.625V113.725H242.925L277.625 148.425Z" fill="url(#paint64_radial_2085_365)"/>
<path d="M192.725 115.225C191.525 115.225 190.625 114.325 190.625 113.125C190.625 111.925 191.525 111.025 192.725 111.025C193.925 111.025 194.825 111.925 194.825 113.125C194.825 114.325 193.925 115.225 192.725 115.225Z" fill="url(#paint65_radial_2085_365)"/>
<path d="M214.525 84.5251H286.325L301.025 69.7251L300.225 68.925L285.825 83.3251H214.525V84.5251Z" fill="url(#paint66_radial_2085_365)"/>
<path d="M214.625 86.0249C213.425 86.0249 212.525 85.1249 212.525 83.9249C212.525 82.7249 213.425 81.825 214.625 81.825C215.825 81.825 216.725 82.7249 216.725 83.9249C216.725 85.1249 215.825 86.0249 214.625 86.0249Z" fill="url(#paint67_radial_2085_365)"/>
<path d="M207.125 101.225L207.925 100.425L197.725 90.225H142.425V91.325H197.225L207.125 101.225Z" fill="url(#paint68_radial_2085_365)"/>
<path d="M142.525 92.925C141.325 92.925 140.425 92.025 140.425 90.825C140.425 89.625 141.325 88.725 142.525 88.725C143.725 88.725 144.625 89.625 144.625 90.825C144.625 91.925 143.625 92.925 142.525 92.925Z" fill="url(#paint69_radial_2085_365)"/>
<path d="M124.925 138.725L137.425 126.225H218.025L230.725 113.525L229.925 112.725L217.525 125.125H136.925L124.125 137.925L124.925 138.725Z" fill="url(#paint70_radial_2085_365)"/>
<path d="M126.125 139.725C125.325 140.525 123.925 140.525 123.125 139.725C122.325 138.925 122.325 137.525 123.125 136.725C123.925 135.925 125.325 135.925 126.125 136.725C126.925 137.625 126.925 138.925 126.125 139.725Z" fill="url(#paint71_radial_2085_365)"/>
<path d="M165.825 66.325L173.925 58.125H262.225L274.425 45.9249H326.725L346.825 66.025L347.625 65.225L327.125 44.825H273.925L261.725 57.025H173.525L165.025 65.525L165.825 66.325Z" fill="url(#paint72_radial_2085_365)"/>
<path d="M166.925 67.325C166.125 68.125 164.725 68.125 163.925 67.325C163.125 66.525 163.125 65.125 163.925 64.325C164.725 63.525 166.125 63.525 166.925 64.325C167.725 65.125 167.725 66.525 166.925 67.325Z" fill="url(#paint73_radial_2085_365)"/>
<path d="M223.925 93.825C222.725 93.825 221.825 92.925 221.825 91.725C221.825 90.525 222.725 89.625 223.925 89.625C225.125 89.625 226.025 90.525 226.025 91.725C226.025 92.925 225.025 93.825 223.925 93.825Z" fill="url(#paint74_radial_2085_365)"/>
<path d="M241.525 57.825L242.325 57.025L222.725 37.4249H140.025L124.925 22.325L124.125 23.125L139.525 38.525H222.225L241.525 57.825Z" fill="url(#paint75_radial_2085_365)"/>
<path d="M123.125 24.325C122.325 23.525 122.325 22.125 123.125 21.325C123.925 20.525 125.325 20.525 126.125 21.325C126.925 22.125 126.925 23.525 126.125 24.325C125.325 25.125 124.025 25.125 123.125 24.325Z" fill="url(#paint76_radial_2085_365)"/>
</g>
<defs>
<radialGradient id="paint0_radial_2085_365" cx="0" cy="0" r="1" gradientUnits="userSpaceOnUse" gradientTransform="translate(292.527 46.5754) rotate(180) scale(141.738 141.738)">
<stop offset="0.0671642" stop-color="#C0C0C0"/>
<stop offset="1" stop-color="#3B3B3B"/>
</radialGradient>
<radialGradient id="paint1_radial_2085_365" cx="0" cy="0" r="1" gradientUnits="userSpaceOnUse" gradientTransform="translate(97.6296 1.8058) rotate(180) scale(1.7671)">
<stop offset="0.0671642" stop-color="#C0C0C0"/>
<stop offset="1" stop-color="#3B3B3B"/>
</radialGradient>
<radialGradient id="paint2_radial_2085_365" cx="0" cy="0" r="1" gradientUnits="userSpaceOnUse" gradientTransform="translate(289.008 186.442) rotate(180) scale(144.281 144.282)">
<stop offset="0.0671642" stop-color="#C0C0C0"/>
<stop offset="1" stop-color="#3B3B3B"/>
</radialGradient>
<radialGradient id="paint3_radial_2085_365" cx="0" cy="0" r="1" gradientUnits="userSpaceOnUse" gradientTransform="translate(87.4972 215.495) rotate(180) scale(1.7671)">
<stop offset="0.0671642" stop-color="#C0C0C0"/>
<stop offset="1" stop-color="#3B3B3B"/>
</radialGradient>
<radialGradient id="paint4_radial_2085_365" cx="0" cy="0" r="1" gradientUnits="userSpaceOnUse" gradientTransform="translate(251.31 147.183) rotate(180) scale(167.568 167.568)">
<stop offset="0.0671642" stop-color="#C0C0C0"/>
<stop offset="1" stop-color="#3B3B3B"/>
</radialGradient>
<radialGradient id="paint5_radial_2085_365" cx="0" cy="0" r="1" gradientUnits="userSpaceOnUse" gradientTransform="translate(17.1364 180.461) rotate(180) scale(1.7667)">
<stop offset="0.0671642" stop-color="#C0C0C0"/>
<stop offset="1" stop-color="#3B3B3B"/>
</radialGradient>
<radialGradient id="paint6_radial_2085_365" cx="0" cy="0" r="1" gradientUnits="userSpaceOnUse" gradientTransform="translate(273.193 102.456) rotate(180) scale(150.831 150.831)">
<stop offset="0.0671642" stop-color="#C0C0C0"/>
<stop offset="1" stop-color="#3B3B3B"/>
</radialGradient>
<radialGradient id="paint7_radial_2085_365" cx="0" cy="0" r="1" gradientUnits="userSpaceOnUse" gradientTransform="translate(61.2819 82.1873) rotate(180) scale(1.7668)">
<stop offset="0.0671642" stop-color="#C0C0C0"/>
<stop offset="1" stop-color="#3B3B3B"/>
</radialGradient>
<radialGradient id="paint8_radial_2085_365" cx="0" cy="0" r="1" gradientUnits="userSpaceOnUse" gradientTransform="translate(304.469 105.676) rotate(180) scale(66.2191 66.2191)">
<stop offset="0.0671642" stop-color="#C0C0C0"/>
<stop offset="1" stop-color="#3B3B3B"/>
</radialGradient>
<radialGradient id="paint9_radial_2085_365" cx="0" cy="0" r="1" gradientUnits="userSpaceOnUse" gradientTransform="translate(211.292 98.1888) rotate(180) scale(1.7668)">
<stop offset="0.0671642" stop-color="#C0C0C0"/>
<stop offset="1" stop-color="#3B3B3B"/>
</radialGradient>
<radialGradient id="paint10_radial_2085_365" cx="0" cy="0" r="1" gradientUnits="userSpaceOnUse" gradientTransform="translate(150.3 60.7107) rotate(180) scale(97.8197 97.8197)">
<stop offset="0.0671642" stop-color="#C0C0C0"/>
<stop offset="1" stop-color="#3B3B3B"/>
</radialGradient>
<radialGradient id="paint11_radial_2085_365" cx="0" cy="0" r="1" gradientUnits="userSpaceOnUse" gradientTransform="translate(18.5836 19.183) rotate(180) scale(1.768 1.768)">
<stop offset="0.0671642" stop-color="#C0C0C0"/>
<stop offset="1" stop-color="#3B3B3B"/>
</radialGradient>
<radialGradient id="paint12_radial_2085_365" cx="0" cy="0" r="1" gradientUnits="userSpaceOnUse" gradientTransform="translate(183.893 91.0173) rotate(180) scale(62.9606 62.9606)">
<stop offset="0.0671642" stop-color="#C0C0C0"/>
<stop offset="1" stop-color="#3B3B3B"/>
</radialGradient>
<radialGradient id="paint13_radial_2085_365" cx="0" cy="0" r="1" gradientUnits="userSpaceOnUse" gradientTransform="translate(96.1864 76.6714) rotate(180) scale(1.7665 1.7665)">
<stop offset="0.0671642" stop-color="#C0C0C0"/>
<stop offset="1" stop-color="#3B3B3B"/>
</radialGradient>
<radialGradient id="paint14_radial_2085_365" cx="0" cy="0" r="1" gradientUnits="userSpaceOnUse" gradientTransform="translate(116.338 63.922) rotate(180) scale(53.4668 53.4668)">
<stop offset="0.0671642" stop-color="#C0C0C0"/>
<stop offset="1" stop-color="#3B3B3B"/>
</radialGradient>
<radialGradient id="paint15_radial_2085_365" cx="0" cy="0" r="1" gradientUnits="userSpaceOnUse" gradientTransform="translate(187.967 87.4133) rotate(180) scale(1.76539 1.7654)">
<stop offset="0.0671642" stop-color="#C0C0C0"/>
<stop offset="1" stop-color="#3B3B3B"/>
</radialGradient>
<radialGradient id="paint16_radial_2085_365" cx="0" cy="0" r="1" gradientUnits="userSpaceOnUse" gradientTransform="translate(45.0158 40.3552) rotate(180) scale(1.766)">
<stop offset="0.0671642" stop-color="#C0C0C0"/>
<stop offset="1" stop-color="#3B3B3B"/>
</radialGradient>
<radialGradient id="paint17_radial_2085_365" cx="0" cy="0" r="1" gradientUnits="userSpaceOnUse" gradientTransform="translate(162.651 101.215) rotate(180) scale(52.833)">
<stop offset="0.0671642" stop-color="#C0C0C0"/>
<stop offset="1" stop-color="#3B3B3B"/>
</radialGradient>
<radialGradient id="paint18_radial_2085_365" cx="0" cy="0" r="1" gradientUnits="userSpaceOnUse" gradientTransform="translate(89.1542 88.7164) rotate(180) scale(1.7672)">
<stop offset="0.0671642" stop-color="#C0C0C0"/>
<stop offset="1" stop-color="#3B3B3B"/>
</radialGradient>
<radialGradient id="paint19_radial_2085_365" cx="0" cy="0" r="1" gradientUnits="userSpaceOnUse" gradientTransform="translate(144.16 83.443) rotate(180) scale(72.6054 72.6054)">
<stop offset="0.0671642" stop-color="#C0C0C0"/>
<stop offset="1" stop-color="#3B3B3B"/>
</radialGradient>
<radialGradient id="paint20_radial_2085_365" cx="0" cy="0" r="1" gradientUnits="userSpaceOnUse" gradientTransform="translate(44.1015 61.2424) rotate(180) scale(1.7659)">
<stop offset="0.0671642" stop-color="#C0C0C0"/>
<stop offset="1" stop-color="#3B3B3B"/>
</radialGradient>
<radialGradient id="paint21_radial_2085_365" cx="0" cy="0" r="1" gradientUnits="userSpaceOnUse" gradientTransform="translate(154.523 37.197) rotate(180) scale(74.823 74.823)">
<stop offset="0.0671642" stop-color="#C0C0C0"/>
<stop offset="1" stop-color="#3B3B3B"/>
</radialGradient>
<radialGradient id="paint22_radial_2085_365" cx="0" cy="0" r="1" gradientUnits="userSpaceOnUse" gradientTransform="translate(54.7177 3.57125) rotate(180) scale(1.7669)">
<stop offset="0.0671642" stop-color="#C0C0C0"/>
<stop offset="1" stop-color="#3B3B3B"/>
</radialGradient>
<radialGradient id="paint23_radial_2085_365" cx="0" cy="0" r="1" gradientUnits="userSpaceOnUse" gradientTransform="translate(232.964 163.714) rotate(180) scale(139.812 139.812)">
<stop offset="0.0671642" stop-color="#C0C0C0"/>
<stop offset="1" stop-color="#3B3B3B"/>
</radialGradient>
<radialGradient id="paint24_radial_2085_365" cx="0" cy="0" r="1" gradientUnits="userSpaceOnUse" gradientTransform="translate(35.7677 176.47) rotate(180) scale(1.7677)">
<stop offset="0.0671642" stop-color="#C0C0C0"/>
<stop offset="1" stop-color="#3B3B3B"/>
</radialGradient>
<radialGradient id="paint25_radial_2085_365" cx="0" cy="0" r="1" gradientUnits="userSpaceOnUse" gradientTransform="translate(212.129 149.929) rotate(180) scale(123.892 123.892)">
<stop offset="0.0671642" stop-color="#C0C0C0"/>
<stop offset="1" stop-color="#3B3B3B"/>
</radialGradient>
<radialGradient id="paint26_radial_2085_365" cx="0" cy="0" r="1" gradientUnits="userSpaceOnUse" gradientTransform="translate(38.3721 171.293) rotate(180) scale(1.7673)">
<stop offset="0.0671642" stop-color="#C0C0C0"/>
<stop offset="1" stop-color="#3B3B3B"/>
</radialGradient>
<radialGradient id="paint27_radial_2085_365" cx="0" cy="0" r="1" gradientUnits="userSpaceOnUse" gradientTransform="translate(100.864 109.355) rotate(180) scale(39.3504 39.3504)">
<stop offset="0.0671642" stop-color="#C0C0C0"/>
<stop offset="1" stop-color="#3B3B3B"/>
</radialGradient>
<radialGradient id="paint28_radial_2085_365" cx="0" cy="0" r="1" gradientUnits="userSpaceOnUse" gradientTransform="translate(152.024 129.916) rotate(180) scale(1.7676)">
<stop offset="0.0671642" stop-color="#C0C0C0"/>
<stop offset="1" stop-color="#3B3B3B"/>
</radialGradient>
<radialGradient id="paint29_radial_2085_365" cx="0" cy="0" r="1" gradientUnits="userSpaceOnUse" gradientTransform="translate(49.7044 88.7937) rotate(180) scale(1.766)">
<stop offset="0.0671642" stop-color="#C0C0C0"/>
<stop offset="1" stop-color="#3B3B3B"/>
</radialGradient>
<radialGradient id="paint30_radial_2085_365" cx="0" cy="0" r="1" gradientUnits="userSpaceOnUse" gradientTransform="translate(73.6302 152.573) rotate(180) scale(52.5059 52.5059)">
<stop offset="0.0671642" stop-color="#C0C0C0"/>
<stop offset="1" stop-color="#3B3B3B"/>
</radialGradient>
<radialGradient id="paint31_radial_2085_365" cx="0" cy="0" r="1" gradientUnits="userSpaceOnUse" gradientTransform="translate(145.778 135.852) rotate(180) scale(1.767 1.767)">
<stop offset="0.0671642" stop-color="#C0C0C0"/>
<stop offset="1" stop-color="#3B3B3B"/>
</radialGradient>
<radialGradient id="paint32_radial_2085_365" cx="0" cy="0" r="1" gradientUnits="userSpaceOnUse" gradientTransform="translate(1.78849 169.368) rotate(180) scale(1.7656)">
<stop offset="0.0671642" stop-color="#C0C0C0"/>
<stop offset="1" stop-color="#3B3B3B"/>
</radialGradient>
<radialGradient id="paint33_radial_2085_365" cx="0" cy="0" r="1" gradientUnits="userSpaceOnUse" gradientTransform="translate(86.2332 119.636) rotate(180) scale(36.6431)">
<stop offset="0.0671642" stop-color="#C0C0C0"/>
<stop offset="1" stop-color="#3B3B3B"/>
</radialGradient>
<radialGradient id="paint34_radial_2085_365" cx="0" cy="0" r="1" gradientUnits="userSpaceOnUse" gradientTransform="translate(136.399 128.353) rotate(180) scale(1.7672)">
<stop offset="0.0671642" stop-color="#C0C0C0"/>
<stop offset="1" stop-color="#3B3B3B"/>
</radialGradient>
<radialGradient id="paint35_radial_2085_365" cx="0" cy="0" r="1" gradientUnits="userSpaceOnUse" gradientTransform="translate(36.0656 108.683) rotate(180) scale(1.7661)">
<stop offset="0.0671642" stop-color="#C0C0C0"/>
<stop offset="1" stop-color="#3B3B3B"/>
</radialGradient>
<radialGradient id="paint36_radial_2085_365" cx="0" cy="0" r="1" gradientUnits="userSpaceOnUse" gradientTransform="translate(56.5075 102.66) rotate(180) scale(18.759)">
<stop offset="0.0671642" stop-color="#C0C0C0"/>
<stop offset="1" stop-color="#3B3B3B"/>
</radialGradient>
<radialGradient id="paint37_radial_2085_365" cx="0" cy="0" r="1" gradientUnits="userSpaceOnUse" gradientTransform="translate(80.6715 112.935) rotate(180) scale(1.7659)">
<stop offset="0.0671642" stop-color="#C0C0C0"/>
<stop offset="1" stop-color="#3B3B3B"/>
</radialGradient>
<radialGradient id="paint38_radial_2085_365" cx="0" cy="0" r="1" gradientUnits="userSpaceOnUse" gradientTransform="translate(32.6474 92.3083) rotate(180) scale(1.768)">
<stop offset="0.0671642" stop-color="#C0C0C0"/>
<stop offset="1" stop-color="#3B3B3B"/>
</radialGradient>
<radialGradient id="paint39_radial_2085_365" cx="0" cy="0" r="1" gradientUnits="userSpaceOnUse" gradientTransform="translate(68.8445 118.056) rotate(180) scale(42.8857 42.8857)">
<stop offset="0.0671642" stop-color="#C0C0C0"/>
<stop offset="1" stop-color="#3B3B3B"/>
</radialGradient>
<radialGradient id="paint40_radial_2085_365" cx="0" cy="0" r="1" gradientUnits="userSpaceOnUse" gradientTransform="translate(126.507 128.56) rotate(180) scale(1.7677)">
<stop offset="0.0671642" stop-color="#C0C0C0"/>
<stop offset="1" stop-color="#3B3B3B"/>
</radialGradient>
<radialGradient id="paint41_radial_2085_365" cx="0" cy="0" r="1" gradientUnits="userSpaceOnUse" gradientTransform="translate(11.4879 99.9269) rotate(180) scale(1.7671)">
<stop offset="0.0671642" stop-color="#C0C0C0"/>
<stop offset="1" stop-color="#3B3B3B"/>
</radialGradient>
<radialGradient id="paint42_radial_2085_365" cx="0" cy="0" r="1" gradientUnits="userSpaceOnUse" gradientTransform="translate(95.0912 141.332) rotate(180) scale(11.1927)">
<stop offset="0.0671642" stop-color="#C0C0C0"/>
<stop offset="1" stop-color="#3B3B3B"/>
</radialGradient>
<radialGradient id="paint43_radial_2085_365" cx="0" cy="0" r="1" gradientUnits="userSpaceOnUse" gradientTransform="translate(109.839 137.102) rotate(180) scale(1.7659)">
<stop offset="0.0671642" stop-color="#C0C0C0"/>
<stop offset="1" stop-color="#3B3B3B"/>
</radialGradient>
<radialGradient id="paint44_radial_2085_365" cx="0" cy="0" r="1" gradientUnits="userSpaceOnUse" gradientTransform="translate(80.0386 145.489) rotate(180) scale(1.7672)">
<stop offset="0.0671642" stop-color="#C0C0C0"/>
<stop offset="1" stop-color="#3B3B3B"/>
</radialGradient>
<radialGradient id="paint45_radial_2085_365" cx="0" cy="0" r="1" gradientUnits="userSpaceOnUse" gradientTransform="translate(70.4605 200.567) rotate(180) scale(37.9895 37.9895)">
<stop offset="0.0671642" stop-color="#C0C0C0"/>
<stop offset="1" stop-color="#3B3B3B"/>
</radialGradient>
<radialGradient id="paint46_radial_2085_365" cx="0" cy="0" r="1" gradientUnits="userSpaceOnUse" gradientTransform="translate(122.34 187.415) rotate(180) scale(1.7666)">
<stop offset="0.0671642" stop-color="#C0C0C0"/>
<stop offset="1" stop-color="#3B3B3B"/>
</radialGradient>
<radialGradient id="paint47_radial_2085_365" cx="0" cy="0" r="1" gradientUnits="userSpaceOnUse" gradientTransform="translate(18.5836 213.717) rotate(180) scale(1.7678 1.76779)">
<stop offset="0.0671642" stop-color="#C0C0C0"/>
<stop offset="1" stop-color="#3B3B3B"/>
</radialGradient>
<radialGradient id="paint48_radial_2085_365" cx="0" cy="0" r="1" gradientUnits="userSpaceOnUse" gradientTransform="translate(59.5225 192.559) rotate(180) scale(41.2907 41.2907)">
<stop offset="0.0671642" stop-color="#C0C0C0"/>
<stop offset="1" stop-color="#3B3B3B"/>
</radialGradient>
<radialGradient id="paint49_radial_2085_365" cx="0" cy="0" r="1" gradientUnits="userSpaceOnUse" gradientTransform="translate(116.61 181.165) rotate(180) scale(1.7661 1.7661)">
<stop offset="0.0671642" stop-color="#C0C0C0"/>
<stop offset="1" stop-color="#3B3B3B"/>
</radialGradient>
<radialGradient id="paint50_radial_2085_365" cx="0" cy="0" r="1" gradientUnits="userSpaceOnUse" gradientTransform="translate(2.43371 203.953) rotate(180) scale(1.76699 1.767)">
<stop offset="0.0671642" stop-color="#C0C0C0"/>
<stop offset="1" stop-color="#3B3B3B"/>
</radialGradient>
<radialGradient id="paint51_radial_2085_365" cx="0" cy="0" r="1" gradientUnits="userSpaceOnUse" gradientTransform="translate(49.735 191.441) rotate(180) scale(15.6488 15.6488)">
<stop offset="0.0671642" stop-color="#C0C0C0"/>
<stop offset="1" stop-color="#3B3B3B"/>
</radialGradient>
<radialGradient id="paint52_radial_2085_365" cx="0" cy="0" r="1" gradientUnits="userSpaceOnUse" gradientTransform="translate(70.7781 185.332) rotate(180) scale(1.7665 1.7665)">
<stop offset="0.0671642" stop-color="#C0C0C0"/>
<stop offset="1" stop-color="#3B3B3B"/>
</radialGradient>
<radialGradient id="paint53_radial_2085_365" cx="0" cy="0" r="1" gradientUnits="userSpaceOnUse" gradientTransform="translate(29.0005 197.623) rotate(180) scale(1.7659)">
<stop offset="0.0671642" stop-color="#C0C0C0"/>
<stop offset="1" stop-color="#3B3B3B"/>
</radialGradient>
<radialGradient id="paint54_radial_2085_365" cx="0" cy="0" r="1" gradientUnits="userSpaceOnUse" gradientTransform="translate(350.98 60.6071) rotate(180) scale(97.2398 97.2398)">
<stop offset="0.0671642" stop-color="#C0C0C0"/>
<stop offset="1" stop-color="#3B3B3B"/>
</radialGradient>
<radialGradient id="paint55_radial_2085_365" cx="0" cy="0" r="1" gradientUnits="userSpaceOnUse" gradientTransform="translate(214.597 46.2783) rotate(180) scale(1.3532)">
<stop offset="0.0671642" stop-color="#C0C0C0"/>
<stop offset="1" stop-color="#3B3B3B"/>
</radialGradient>
<radialGradient id="paint56_radial_2085_365" cx="0" cy="0" r="1" gradientUnits="userSpaceOnUse" gradientTransform="translate(238.187 165.15) rotate(180) scale(128.883 128.883)">
<stop offset="0.0671642" stop-color="#C0C0C0"/>
<stop offset="1" stop-color="#3B3B3B"/>
</radialGradient>
<radialGradient id="paint57_radial_2085_365" cx="0" cy="0" r="1" gradientUnits="userSpaceOnUse" gradientTransform="translate(56.4922 169.408) rotate(180) scale(1.35419 1.3542)">
<stop offset="0.0671642" stop-color="#C0C0C0"/>
<stop offset="1" stop-color="#3B3B3B"/>
</radialGradient>
<radialGradient id="paint58_radial_2085_365" cx="0" cy="0" r="1" gradientUnits="userSpaceOnUse" gradientTransform="translate(163.879 191.3) rotate(180) scale(54.3935 54.3935)">
<stop offset="0.0671642" stop-color="#C0C0C0"/>
<stop offset="1" stop-color="#3B3B3B"/>
</radialGradient>
<radialGradient id="paint59_radial_2085_365" cx="0" cy="0" r="1" gradientUnits="userSpaceOnUse" gradientTransform="translate(88.1145 203.904) rotate(180) scale(1.35321 1.35319)">
<stop offset="0.0671642" stop-color="#C0C0C0"/>
<stop offset="1" stop-color="#3B3B3B"/>
</radialGradient>
<radialGradient id="paint60_radial_2085_365" cx="0" cy="0" r="1" gradientUnits="userSpaceOnUse" gradientTransform="translate(293.449 131.751) rotate(180) scale(125.244 125.244)">
<stop offset="0.0671642" stop-color="#C0C0C0"/>
<stop offset="1" stop-color="#3B3B3B"/>
</radialGradient>
<radialGradient id="paint61_radial_2085_365" cx="0" cy="0" r="1" gradientUnits="userSpaceOnUse" gradientTransform="translate(119.213 101.042) rotate(180) scale(2.10939 2.1094)">
<stop offset="0.0671642" stop-color="#C0C0C0"/>
<stop offset="1" stop-color="#3B3B3B"/>
</radialGradient>
<radialGradient id="paint62_radial_2085_365" cx="0" cy="0" r="1" gradientUnits="userSpaceOnUse" gradientTransform="translate(296.035 90.7369) rotate(180) scale(81.1015 81.1015)">
<stop offset="0.0671642" stop-color="#C0C0C0"/>
<stop offset="1" stop-color="#3B3B3B"/>
</radialGradient>
<radialGradient id="paint63_radial_2085_365" cx="0" cy="0" r="1" gradientUnits="userSpaceOnUse" gradientTransform="translate(183.597 69.1943) rotate(180) scale(2.10929 2.10931)">
<stop offset="0.0671642" stop-color="#C0C0C0"/>
<stop offset="1" stop-color="#3B3B3B"/>
</radialGradient>
<radialGradient id="paint64_radial_2085_365" cx="0" cy="0" r="1" gradientUnits="userSpaceOnUse" gradientTransform="translate(268.212 130.495) rotate(180) scale(54.9283 54.9283)">
<stop offset="0.0671642" stop-color="#C0C0C0"/>
<stop offset="1" stop-color="#3B3B3B"/>
</radialGradient>
<radialGradient id="paint65_radial_2085_365" cx="0" cy="0" r="1" gradientUnits="userSpaceOnUse" gradientTransform="translate(192.731 113.144) rotate(180) scale(2.10849 2.1085)">
<stop offset="0.0671642" stop-color="#C0C0C0"/>
<stop offset="1" stop-color="#3B3B3B"/>
</radialGradient>
<radialGradient id="paint66_radial_2085_365" cx="0" cy="0" r="1" gradientUnits="userSpaceOnUse" gradientTransform="translate(257.802 76.6962) rotate(180) scale(31.0796 31.0796)">
<stop offset="0.0671642" stop-color="#C0C0C0"/>
<stop offset="1" stop-color="#3B3B3B"/>
</radialGradient>
<radialGradient id="paint67_radial_2085_365" cx="0" cy="0" r="1" gradientUnits="userSpaceOnUse" gradientTransform="translate(214.648 83.9204) rotate(180) scale(2.1094)">
<stop offset="0.0671642" stop-color="#C0C0C0"/>
<stop offset="1" stop-color="#3B3B3B"/>
</radialGradient>
<radialGradient id="paint68_radial_2085_365" cx="0" cy="0" r="1" gradientUnits="userSpaceOnUse" gradientTransform="translate(175.154 95.7107) rotate(180) scale(23.4875)">
<stop offset="0.0671642" stop-color="#C0C0C0"/>
<stop offset="1" stop-color="#3B3B3B"/>
</radialGradient>
<radialGradient id="paint69_radial_2085_365" cx="0" cy="0" r="1" gradientUnits="userSpaceOnUse" gradientTransform="translate(142.503 90.769) rotate(180) scale(2.10911 2.1091)">
<stop offset="0.0671642" stop-color="#C0C0C0"/>
<stop offset="1" stop-color="#3B3B3B"/>
</radialGradient>
<radialGradient id="paint70_radial_2085_365" cx="0" cy="0" r="1" gradientUnits="userSpaceOnUse" gradientTransform="translate(177.459 125.734) rotate(180) scale(38.7808 38.7808)">
<stop offset="0.0671642" stop-color="#C0C0C0"/>
<stop offset="1" stop-color="#3B3B3B"/>
</radialGradient>
<radialGradient id="paint71_radial_2085_365" cx="0" cy="0" r="1" gradientUnits="userSpaceOnUse" gradientTransform="translate(124.646 138.249) rotate(180) scale(2.1093)">
<stop offset="0.0671642" stop-color="#C0C0C0"/>
<stop offset="1" stop-color="#3B3B3B"/>
</radialGradient>
<radialGradient id="paint72_radial_2085_365" cx="0" cy="0" r="1" gradientUnits="userSpaceOnUse" gradientTransform="translate(256.311 55.533) rotate(180) scale(65.0245 65.0245)">
<stop offset="0.0671642" stop-color="#C0C0C0"/>
<stop offset="1" stop-color="#3B3B3B"/>
</radialGradient>
<radialGradient id="paint73_radial_2085_365" cx="0" cy="0" r="1" gradientUnits="userSpaceOnUse" gradientTransform="translate(165.454 65.819) rotate(180) scale(2.1091)">
<stop offset="0.0671642" stop-color="#C0C0C0"/>
<stop offset="1" stop-color="#3B3B3B"/>
</radialGradient>
<radialGradient id="paint74_radial_2085_365" cx="0" cy="0" r="1" gradientUnits="userSpaceOnUse" gradientTransform="translate(223.906 91.7372) rotate(180) scale(2.10941)">
<stop offset="0.0671642" stop-color="#C0C0C0"/>
<stop offset="1" stop-color="#3B3B3B"/>
</radialGradient>
<radialGradient id="paint75_radial_2085_365" cx="0" cy="0" r="1" gradientUnits="userSpaceOnUse" gradientTransform="translate(183.249 40.0975) rotate(180) scale(43.6159 43.6159)">
<stop offset="0.0671642" stop-color="#C0C0C0"/>
<stop offset="1" stop-color="#3B3B3B"/>
</radialGradient>
<radialGradient id="paint76_radial_2085_365" cx="0" cy="0" r="1" gradientUnits="userSpaceOnUse" gradientTransform="translate(124.644 22.8239) rotate(180) scale(2.1091)">
<stop offset="0.0671642" stop-color="#C0C0C0"/>
<stop offset="1" stop-color="#3B3B3B"/>
</radialGradient>
</defs>
</svg>
